STARTFONT 2.1
FONT -FontForge-Pacifico-Book-R-Normal--36-360-72-72-P-212-ISO10646-1
SIZE 36 72 72
FONTBOUNDINGBOX 81 70 -21 -17
COMMENT "Generated by fontforge, http://fontforge.sourceforge.net"
COMMENT "Copyright 2018 The Pacifico Project Authors (https://github.com/googlefonts/Pacifico)"
STARTPROPERTIES 40
FOUNDRY "FontForge"
FAMILY_NAME "Pacifico"
WEIGHT_NAME "Book"
SLANT "R"
SETWIDTH_NAME "Normal"
ADD_STYLE_NAME ""
PIXEL_SIZE 36
POINT_SIZE 360
RESOLUTION_X 72
RESOLUTION_Y 72
SPACING "P"
AVERAGE_WIDTH 212
CHARSET_REGISTRY "ISO10646"
CHARSET_ENCODING "1"
FONTNAME_REGISTRY ""
CHARSET_COLLECTIONS "ISO8859-2 ISO8859-5 ISO8859-9 ISO8859-4 ISO10646-1"
FONT_NAME "Pacifico-Regular"
FACE_NAME "Pacifico Regular"
COPYRIGHT "Copyright 2018 The Pacifico Project Authors (https://github.com/googlefonts/Pacifico)"
FONT_VERSION "3.001"
FONT_ASCENT 29
FONT_DESCENT 7
UNDERLINE_POSITION -4
UNDERLINE_THICKNESS 2
X_HEIGHT 16
CAP_HEIGHT 30
DEFAULT_CHAR 1
RAW_ASCENT 800
RAW_DESCENT 200
NORM_SPACE 10
RELATIVE_WEIGHT 40
RELATIVE_SETWIDTH 50
SUPERSCRIPT_X 0
SUPERSCRIPT_Y 12
SUPERSCRIPT_SIZE 21
SUBSCRIPT_X 0
SUBSCRIPT_Y 2
SUBSCRIPT_SIZE 21
AVG_LOWERCASE_WIDTH 170
AVG_UPPERCASE_WIDTH 294
ENDPROPERTIES
CHARS 1514
STARTCHAR NULL.dup1
ENCODING 0
SWIDTH 0 0
DWIDTH 0 0
BBX 1 1 0 0
BITMAP
00
ENDCHAR
STARTCHAR nonmarkingreturn
ENCODING 13
SWIDTH 265 0
DWIDTH 10 0
BBX 1 1 0 0
BITMAP
00
ENDCHAR
STARTCHAR space
ENCODING 32
SWIDTH 265 0
DWIDTH 10 0
BBX 1 1 0 0
BITMAP
00
ENDCHAR
STARTCHAR exclam
ENCODING 33
SWIDTH 340 0
DWIDTH 12 0
BBX 12 31 1 0
BITMAP
00F0
01F0
01F0
03F0
03E0
03E0
03E0
03E0
07C0
07C0
07C0
07C0
0780
0F80
0F80
0F00
0F00
0F00
1E00
1E00
1E00
1C00
0000
0000
3C00
7E00
FE00
FE00
FE00
7C00
7800
ENDCHAR
STARTCHAR quotedbl
ENCODING 34
SWIDTH 510 0
DWIDTH 18 0
BBX 14 12 4 19
BITMAP
3C3C
7C7C
7C7C
7C7C
7C7C
7CFC
FCF8
F8F8
F8F8
F8F8
F8F0
70F0
ENDCHAR
STARTCHAR numbersign
ENCODING 35
SWIDTH 700 0
DWIDTH 25 0
BBX 24 22 1 0
BITMAP
002020
00F078
01F0F8
01F0F0
01E0F0
3FFFFE
3FFFFF
3FFFFE
3FFFFE
07C3E0
07C3C0
0783C0
0787C0
7FFFFC
FFFFFC
FFFFFC
7FFFF8
1F0F00
1E1F00
1E1F00
1E1E00
1C0C00
ENDCHAR
STARTCHAR dollar
ENCODING 36
SWIDTH 524 0
DWIDTH 19 0
BBX 16 31 1 -5
BITMAP
0030
0070
0070
0070
0070
03F8
0FFE
1FFF
3FFF
3CEF
3CEF
3CE7
3EC0
3FC0
1FE0
0FF8
07FC
01FE
01FF
71DF
F98F
F98F
7D9E
7FFE
3FFC
1FF0
0380
0380
0300
0300
0300
ENDCHAR
STARTCHAR percent
ENCODING 37
SWIDTH 896 0
DWIDTH 32 0
BBX 30 27 2 0
BITMAP
0F800E00
3FC01E00
7FE03E00
7BE07E00
F3F1FC00
F1FFFC00
F1FFF800
F1FFF800
F0FDF000
F0E3E000
F9E3E000
7FC7C000
3F87C000
1F0F87C0
001F0FF0
001F1FF8
003E3E78
003E3C7C
007C3C3C
0078783C
00F8783C
01F07838
01F03C78
03E03C78
03E03FF0
03C01FE0
018007C0
ENDCHAR
STARTCHAR ampersand
ENCODING 38
SWIDTH 851 0
DWIDTH 31 0
BBX 28 34 2 -2
BITMAP
003F0000
00FFC000
01FFC000
03FFE000
07E1E000
07C1F000
0781F000
0781F000
0781F000
0781E000
0783E000
07C7C000
07CFC000
03FF8000
03FF0000
01FE0000
07F80000
0FF80000
1FFC00F0
3F7E01F0
7E3F03E0
FC3F87E0
F81F8FC0
F80FDF80
F807FF00
F803FE00
F803FC00
FC07FC00
7FFFFE00
3FFFFF00
1FFF3F80
07F81F80
00001F80
00000F80
ENDCHAR
STARTCHAR quotesingle
ENCODING 39
SWIDTH 290 0
DWIDTH 10 0
BBX 6 12 4 19
BITMAP
3C
7C
7C
7C
7C
7C
FC
F8
F8
F8
F8
70
ENDCHAR
STARTCHAR parenleft
ENCODING 40
SWIDTH 613 0
DWIDTH 22 0
BBX 24 39 3 -5
BITMAP
0003F0
001FFC
003FFE
007FFF
00FC1E
01F806
03F000
07E000
07C000
0FC000
0F8000
0F8000
1F0000
1F0000
3E0000
3E0000
3E0000
3E0000
7C0000
7C0000
7C0000
7C0000
7C0000
780000
F80000
F80000
F80000
F80000
F80000
F80000
F80000
780100
7C0380
7C0780
7E1F80
3FFF00
1FFE00
0FFC00
03F000
ENDCHAR
STARTCHAR parenright
ENCODING 41
SWIDTH 613 0
DWIDTH 22 0
BBX 23 39 -3 -5
BITMAP
000FC0
003FF0
00FFF8
01FFFC
01F87C
03E03E
03C03E
01003E
00003E
00003E
00003E
00003E
00003E
00003E
00003E
00003E
00003E
00003E
00003E
00003E
00007C
00007C
00007C
00007C
0000F8
0000F8
0001F8
0001F0
0001F0
0003E0
0003E0
0007C0
000FC0
601F80
F83F00
FFFE00
FFFC00
7FF800
1FC000
ENDCHAR
STARTCHAR asterisk
ENCODING 42
SWIDTH 520 0
DWIDTH 19 0
BBX 15 15 4 19
BITMAP
01C0
01C0
31C0
79C0
7DCC
3FBE
1FFE
07FC
7FC0
FFF0
FBF8
677C
073C
0718
0700
ENDCHAR
STARTCHAR plus
ENCODING 43
SWIDTH 700 0
DWIDTH 25 0
BBX 20 22 3 0
BITMAP
001000
007800
007800
007800
007800
00F800
00F000
00F000
00F000
7FFFE0
FFFFF0
FFFFF0
FFFFE0
01F000
01E000
01E000
01E000
01E000
01E000
01E000
01E000
01C000
ENDCHAR
STARTCHAR comma
ENCODING 44
SWIDTH 257 0
DWIDTH 9 0
BBX 6 13 1 -6
BITMAP
10
7C
7C
FC
FC
FC
F8
F8
F8
F0
F0
E0
C0
ENDCHAR
STARTCHAR hyphen
ENCODING 45
SWIDTH 403 0
DWIDTH 15 0
BBX 11 5 2 9
BITMAP
00C0
7FE0
FFE0
FFE0
FF80
ENDCHAR
STARTCHAR period
ENCODING 46
SWIDTH 257 0
DWIDTH 9 0
BBX 7 7 1 0
BITMAP
38
7C
FE
FE
FE
FC
78
ENDCHAR
STARTCHAR slash
ENCODING 47
SWIDTH 509 0
DWIDTH 18 0
BBX 20 34 0 0
BITMAP
000060
0000F0
0001F0
0001F0
0003E0
0003E0
0007C0
0007C0
000F80
000F80
001F00
001F00
003E00
003E00
007C00
007800
00F800
01F000
01F000
03E000
03E000
07C000
07C000
0F8000
0F8000
1F0000
1F0000
3E0000
3E0000
7C0000
7C0000
F80000
F00000
700000
ENDCHAR
STARTCHAR zero
ENCODING 48
SWIDTH 543 0
DWIDTH 20 0
BBX 16 21 2 0
BITMAP
03F0
0FFC
1FFC
3FFE
3E3F
7C1F
781F
F80F
F80F
F00F
F00F
F00F
F01F
F01F
F81E
F83E
FC7C
7FFC
3FF8
1FF0
0FC0
ENDCHAR
STARTCHAR one
ENCODING 49
SWIDTH 376 0
DWIDTH 14 0
BBX 10 22 2 0
BITMAP
0100
1FC0
7FC0
FFC0
FFC0
F780
0F80
0F80
0F80
0F80
0F80
0F80
0F00
1F00
1F00
1F00
1F00
1F00
1F00
1F00
1E00
1E00
ENDCHAR
STARTCHAR two
ENCODING 50
SWIDTH 560 0
DWIDTH 20 0
BBX 17 22 2 0
BITMAP
03F000
0FFC00
1FFE00
3FFF00
7E3F00
7C1F00
781F00
781F00
781F00
301F00
003E00
007C00
00FC00
01F800
03F000
07E000
1F8000
7F0000
FFFF00
FFFF80
FFFF80
FFFF00
ENDCHAR
STARTCHAR three
ENCODING 51
SWIDTH 520 0
DWIDTH 19 0
BBX 17 22 1 0
BITMAP
03F800
0FFE00
1FFF00
3FFF00
7E1F00
7C0F80
781F00
381F00
003F00
00FE00
03F800
03F800
03FE00
007E00
601F00
F01F00
F01F00
F83F00
FFFE00
7FFE00
3FFC00
0FE000
ENDCHAR
STARTCHAR four
ENCODING 52
SWIDTH 577 0
DWIDTH 21 0
BBX 18 22 2 0
BITMAP
03C000
07C000
07C000
0F8000
0F8000
1F0F00
1E0F00
3E1F00
3E1F00
7C1E00
7C1E00
F83E00
F83E00
FFFF80
FFFFC0
FFFFC0
7FFF80
003C00
003C00
007C00
003C00
003800
ENDCHAR
STARTCHAR five
ENCODING 53
SWIDTH 518 0
DWIDTH 19 0
BBX 16 21 2 0
BITMAP
3FFE
7FFF
7FFF
7FFE
3E00
3C00
3C00
7C00
7FC0
7FF0
7FFC
3FFC
00FE
003E
E03E
F03E
F03E
F87C
FFFC
7FF0
1FC0
ENDCHAR
STARTCHAR six
ENCODING 54
SWIDTH 541 0
DWIDTH 19 0
BBX 17 22 2 0
BITMAP
01F800
07FE00
0FFE00
1FFF00
3F1F00
7C0F80
7C0F00
780700
F80000
F9F000
FFFC00
FFFC00
FFFE00
FC3E00
F81E00
F81E00
F83E00
7C3E00
7FFE00
3FFC00
1FF800
0FE000
ENDCHAR
STARTCHAR seven
ENCODING 55
SWIDTH 497 0
DWIDTH 18 0
BBX 17 21 2 0
BITMAP
FFFF00
FFFF80
FFFF80
FFFF00
007E00
00F800
01F000
03E000
03C000
07C000
0F8000
0F8000
1F0000
1F0000
1F0000
1F0000
3E0000
3E0000
3E0000
1E0000
1C0000
ENDCHAR
STARTCHAR eight
ENCODING 56
SWIDTH 512 0
DWIDTH 18 0
BBX 17 22 1 0
BITMAP
01F800
0FFE00
1FFF00
3FFF00
3E0F80
3C0F80
3C0F00
3C0F00
3E3F00
1FFE00
1FF800
0FFC00
1FFE00
3C7F00
781F00
780F00
F80F00
FC1F00
7FFE00
7FFE00
3FFC00
0FE000
ENDCHAR
STARTCHAR nine
ENCODING 57
SWIDTH 541 0
DWIDTH 19 0
BBX 17 22 1 0
BITMAP
01F000
07FC00
1FFE00
1FFF00
3F1F00
3E0F80
3C0F80
3C0F80
3C0F80
3E1F80
3FFF80
1FFF80
0FFF80
07CF80
000F00
700F00
F81F00
7C3E00
7FFC00
7FFC00
3FF000
0FC000
ENDCHAR
STARTCHAR colon
ENCODING 58
SWIDTH 257 0
DWIDTH 9 0
BBX 8 17 1 0
BITMAP
1E
3F
7F
7F
7F
3E
1C
00
00
00
38
7C
FE
FE
FE
FC
78
ENDCHAR
STARTCHAR semicolon
ENCODING 59
SWIDTH 257 0
DWIDTH 9 0
BBX 8 23 1 -6
BITMAP
1E
3F
7F
7F
7F
3E
1C
00
00
00
10
7C
7C
FC
FC
FC
F8
F8
F8
F0
F0
E0
C0
ENDCHAR
STARTCHAR less
ENCODING 60
SWIDTH 700 0
DWIDTH 25 0
BBX 20 17 3 2
BITMAP
000020
0001F0
0007F0
003FF0
01FFE0
0FFF00
7FF800
FFC000
FE0000
FF0000
FFE000
3FF800
07FF00
01FFC0
003FE0
000FE0
0001C0
ENDCHAR
STARTCHAR equal
ENCODING 61
SWIDTH 700 0
DWIDTH 25 0
BBX 21 12 2 5
BITMAP
3FFFF8
3FFFF8
7FFFF8
3FFFF0
000000
000000
000000
000000
7FFFF0
7FFFF0
FFFFF0
7FFFE0
ENDCHAR
STARTCHAR greater
ENCODING 62
SWIDTH 700 0
DWIDTH 25 0
BBX 21 17 2 2
BITMAP
100000
3E0000
3FC000
3FF000
1FFE00
03FF80
007FF0
001FF8
0003F8
000FF8
003FF0
01FFC0
0FFE00
7FF000
7FC000
FE0000
700000
ENDCHAR
STARTCHAR question
ENCODING 63
SWIDTH 476 0
DWIDTH 17 0
BBX 17 31 2 0
BITMAP
03F800
0FFE00
1FFF00
3FFF00
3C1F80
7C1F80
780F80
781F80
381F00
003F00
003E00
007E00
00FC00
01F800
03E000
07C000
078000
0F0000
0F0000
0E0000
1E0000
0C0000
000000
000000
3C0000
7E0000
FE0000
FE0000
FE0000
7C0000
380000
ENDCHAR
STARTCHAR at
ENCODING 64
SWIDTH 1015 0
DWIDTH 37 0
BBX 34 37 1 -10
BITMAP
0000FF8000
0007FFF000
001FFFFC00
007FFFFE00
00FF00FF00
01F8001F00
03F0000F80
07E0000780
0FC00007C0
0F800003C0
1F007803C0
3E01FA03C0
3E03FF83C0
3C07FF03C0
7C0FCF03C0
7C0F8F03C0
7C1F0F03C0
781E1F03C0
783E1F07C0
F83E1E0780
F83E1E0F80
F83E3E0F00
F83E3F3F00
F83FFFFE00
781FEFFC00
7C0FE7F800
7C0783E000
7C00000000
3E00000000
3F00000000
1F80000E00
0FC0003E00
07F803FE00
03FFFFFC00
01FFFFF800
007FFFC000
000FFC0000
ENDCHAR
STARTCHAR A
ENCODING 65
SWIDTH 786 0
DWIDTH 28 0
BBX 31 31 2 0
BITMAP
0001FF80
000FFFF0
003FFFF0
00FFFFF0
01FE00E0
03F80000
07E00F00
0FC01F00
1F801F00
1F001F00
3F001F00
3E003F00
7E003E00
7C003E00
7C003E00
7C003E00
FC007E00
F8007C00
F8007C00
F800FC00
F800FC00
F800FC00
F801FC00
FC01FC06
FC03FC0E
7E07FC1E
7F0F7E3C
3FFF7FFC
1FFE3FF8
0FFC3FE0
03F00FC0
ENDCHAR
STARTCHAR B
ENCODING 66
SWIDTH 827 0
DWIDTH 30 0
BBX 30 33 1 -2
BITMAP
001FFE00
01FFFFC0
0FFFFFE0
3FFFFFF8
7FE007F8
FE0001FC
F80000FC
E000007C
01F0007C
01F0007C
03E000FC
03E000F8
03E003F8
03E00FF0
07C3FFE0
07C3FF00
07C3FC00
07C3FF00
07C01F80
0F800FC0
0F8007C0
0F8007C0
0F8007C0
0F8007C0
0F800FC0
1F801F80
1F00FF80
1FFFFF00
1FFFFC00
1FFFF000
1FFF8000
1F000000
0E000000
ENDCHAR
STARTCHAR C
ENCODING 67
SWIDTH 686 0
DWIDTH 25 0
BBX 27 31 2 0
BITMAP
000FE000
007FF800
01FFFC00
03FFFC00
07F07E00
0FC03E00
0F803E00
1F003E00
3F003E00
3E003E00
3E003E00
7C003C00
7C000000
7C000000
7C000000
FC000000
FC000000
FC000000
FC000000
FC000000
FC000000
7C000000
7E000000
7E000000
3F000040
3F8001E0
1FE00FE0
0FFFFFE0
07FFFFC0
01FFFE00
003FF000
ENDCHAR
STARTCHAR D
ENCODING 68
SWIDTH 836 0
DWIDTH 30 0
BBX 27 31 2 0
BITMAP
00FFC000
07FFF800
3FFFFC00
7FFFFF00
FF007F80
F8001F80
E0000FC0
808007C0
03E007E0
07C003E0
07C003E0
07C003E0
0FC003E0
0F8003E0
0F8003E0
0F8003E0
0F8003E0
1F8003E0
1F0007E0
1F0007C0
1F0007C0
1F000FC0
1F000F80
3F001F80
3E003F00
3E00FE00
3E03FC00
3FFFF800
3FFFF000
3FFFC000
0FFC0000
ENDCHAR
STARTCHAR E
ENCODING 69
SWIDTH 686 0
DWIDTH 25 0
BBX 28 31 1 0
BITMAP
000FF000
007FFC00
01FFFE00
03FFFF00
07F03F00
0FE01F80
0FC00F80
0F800F80
0F800F80
0F800F00
0F800F00
0FC00E00
07F00000
03FF0000
01FF0000
07FF0000
0FFE0000
3FC00000
3F000000
7E000000
FC000000
FC000000
F8000000
FC000000
FC000020
7E0000F0
7F800FF0
3FFFFFF0
1FFFFFE0
07FFFF00
00FFF000
ENDCHAR
STARTCHAR F
ENCODING 70
SWIDTH 712 0
DWIDTH 26 0
BBX 34 31 0 0
BITMAP
0007FFFE00
007FFFFFC0
01FFFFFFC0
07FFFFFF80
0FE3E00000
0F83E00000
1F03E00000
1E03E00000
1E03E00000
1F03E00000
1F03E00000
0F03E00000
0F03E00000
0003E00000
003FFFE000
007FFFE000
007FFFE000
003FFFC000
0007C00000
0007C00000
0007C00000
0007C00000
000F800000
400F800000
E00F800000
F01F000000
F83F000000
7FFE000000
7FFE000000
1FF8000000
07E0000000
ENDCHAR
STARTCHAR G
ENCODING 71
SWIDTH 811 0
DWIDTH 29 0
BBX 31 48 2 -17
BITMAP
000FE000
007FF800
00FFFE00
03FFFE00
07F03F00
0FE01F00
0F801F00
1F801F00
3F001F00
3E001F00
3E001F00
7C001E00
7C000C00
7C000000
7C000000
FC000000
FC000000
FC000000
FC01FF80
FC01FF80
FC01FF80
7C01FF80
7E000F80
7E000F80
3F000F0E
3F800F1E
1FE01F7E
0FFFFFFC
07FFFFF0
01FFFFE0
003FDF80
00003F00
00007E00
0000FE00
0001FE00
0003FE00
0007BC00
000F3C00
000E3C00
001C7800
003C7800
003C7800
0038F000
003DF000
003FE000
003FE000
001FC000
000F0000
ENDCHAR
STARTCHAR H
ENCODING 72
SWIDTH 873 0
DWIDTH 31 0
BBX 37 32 -1 0
BITMAP
0000000780
01F0000FC0
07FC001FE0
0FFC003CE0
1FFE007CE0
3C3E0078E0
783E00F8E0
703E00F0E0
E03E01F0E0
603E01F1E0
003E01E1C0
003E03E3C0
003E03E780
003E03EF80
003C03FF00
007C0FFE00
07FFFFF800
07FFFFE000
0FFFFFC000
07FE07C000
00F807C000
00F807C000
00F807C000
00F807C000
01F007C018
01F003E038
01F003E078
01F003F0F0
03F001FFF0
03E001FFE0
03E000FF80
01C0003E00
ENDCHAR
STARTCHAR I
ENCODING 73
SWIDTH 495 0
DWIDTH 18 0
BBX 21 31 -1 0
BITMAP
03FFF0
07FFF8
07FFF8
07FFF0
003E00
003E00
003E00
007E00
007C00
007C00
007C00
007C00
007C00
007C00
00F800
00F800
00F800
00F800
00F800
00F800
01F800
01F000
01F000
01F000
01F000
01F000
01F000
3FFF00
7FFF80
FFFF80
7FFF00
ENDCHAR
STARTCHAR J
ENCODING 74
SWIDTH 743 0
DWIDTH 27 0
BBX 25 34 3 -3
BITMAP
00FFF800
07FFFF00
1FFFFF80
7FFFFF00
7E003F00
F8007E00
F0007C00
F0007C00
F0007C00
F0007C00
F8007C00
F8007C00
70007C00
0000F800
0001F800
0007F800
001FF800
007FF800
00FEF000
01F9F000
03E1F000
07C1F000
0F81E000
1F03E000
1F03E000
1E03C000
3E07C000
3E078000
3E0F8000
3F1F0000
1FFE0000
1FFC0000
0FF80000
03E00000
ENDCHAR
STARTCHAR K
ENCODING 75
SWIDTH 937 0
DWIDTH 34 0
BBX 37 31 1 0
BITMAP
00FF800380
03FFF007C0
0FFFF00FC0
1FFFF00F80
3F03F00F80
3E07E01F80
3C07C01F00
7C07C03F00
7C07C03E00
7C07C07E00
3C07C07C00
3E07C0F800
3C07C1F000
180F87E000
000F9FC000
003FFF8000
007FFE0000
007FFC0000
003FFF0000
000FBF8000
001F1F8000
001F0FC000
001F0FC000
601F07E018
F03F07E018
F03E03F038
F87E03F8F8
FFFC01FFF0
7FFC00FFE0
3FF0007FC0
0FC0003F00
ENDCHAR
STARTCHAR L
ENCODING 76
SWIDTH 673 0
DWIDTH 24 0
BBX 30 31 -1 0
BITMAP
0000FE00
0007FF80
000FFFC0
001FFFC0
003F07E0
007E03E0
00FC01E0
00F801E0
00F801E0
01F803E0
01F003E0
01F001C0
01F00000
01F00000
01F00000
01F00000
01F00000
01F00000
01E00000
03E00000
03E00000
03E00000
03E00000
03E00008
1FF0001C
7FFFC07C
FFFFFFF8
FFFFFFF8
FF8FFFF0
FF03FFC0
7C007F00
ENDCHAR
STARTCHAR M
ENCODING 77
SWIDTH 1232 0
DWIDTH 44 0
BBX 49 31 0 0
BITMAP
03E00F803F0000
0FF03FC0FF8000
1FF87FE1FFC000
3FF8FFE3FFC000
7CF9E1F3C7C000
7879C1F707C000
F07B81FF07C000
E07B01FE07C000
40FF01FC07C000
00FE01FC07C000
00FE01F807C000
00FE01F80FC000
00FC01F80F8000
00FC03F00F8000
00FC03F00F8000
00F803F00F8000
01F803E01F8000
01F803E01F0000
01F803E01F0000
01F007E01F0000
01F007E01F0000
01F007C03F0000
03F007C03E0000
03F007C03E0180
03E007C03E0380
03E00FC03F0780
03E00FC01F0F00
03E00F801FFF00
03E00F801FFE00
03E00F800FF800
01C0070003F000
ENDCHAR
STARTCHAR N
ENCODING 78
SWIDTH 884 0
DWIDTH 32 0
BBX 36 31 0 0
BITMAP
01F007E000
07F81FF000
1FF83FF800
3FF87FF800
7CF8F0FC00
7879E0FC00
F079C07C00
E07B807C00
40FB00FC00
00FF00FC00
00FE00F800
00FE00F800
00FC00F800
00FC01F800
00FC01F800
00F801F000
01F801F000
01F801F000
01F803F000
01F003E000
01F003E000
01F003E000
03F003E000
03F003E030
03E003E030
03E003E070
03E003F1F0
03E003FFE0
03E001FFC0
03E000FF80
01C0007E00
ENDCHAR
STARTCHAR O
ENCODING 79
SWIDTH 816 0
DWIDTH 29 0
BBX 27 31 2 0
BITMAP
000FE000
007FF800
01FFFE00
03FFFF00
07F03F00
0FC01F80
0F800FC0
1F000FC0
3F0007C0
3E0007C0
3E0007E0
7E0007E0
7C0007E0
7C0007E0
7C0007E0
FC0007E0
FC0007C0
FC0007C0
FC0007C0
FC0007C0
FC000F80
7C000F80
7C001F80
7E001F00
7E003E00
3F007E00
1F81FC00
1FFFF800
0FFFF000
03FFC000
00FE0000
ENDCHAR
STARTCHAR P
ENCODING 80
SWIDTH 805 0
DWIDTH 29 0
BBX 28 34 2 -3
BITMAP
0007F800
003FFE00
00FFFF80
01FFFFC0
03F01FC0
07C007E0
0F8007E0
1F0F03E0
1E1F03F0
3E1F03F0
3C1F03F0
7C1F03E0
781F03E0
783F07E0
F83E07C0
F03E0FC0
F03E3F80
F1FFFF00
F3FFFE00
F3FFF800
F1FFC000
F07C0000
F07C0000
F07C0000
F07C0000
F0F80000
F0F80000
F0F80000
78F80000
7DF80000
3FF00000
3FF00000
0FE00000
07C00000
ENDCHAR
STARTCHAR Q
ENCODING 81
SWIDTH 816 0
DWIDTH 29 0
BBX 30 42 2 -11
BITMAP
000FE000
007FF800
01FFFE00
03FFFF00
07F03F00
0FC01F80
1F800FC0
1F000FC0
3F0007C0
3E0007C0
3E0007E0
7C0007E0
7C0007E0
7C0007E0
7C0007E0
FC0007E0
FC0007C0
FC0007C0
FC0007C0
FC000FC0
FC000F80
7C000F80
7C001F00
7E003F00
3F007E00
3F80FE00
1FFFFC00
0FFFF800
07FFE000
01FF8000
003F8000
001FC000
000FC000
0007E000
0007E00C
0003F01C
0003F03C
0001F878
0001FFF0
0000FFF0
00007FC0
00001F00
ENDCHAR
STARTCHAR R
ENCODING 82
SWIDTH 880 0
DWIDTH 32 0
BBX 34 31 2 0
BITMAP
000FF80000
003FFE0000
00FFFF8000
03FFFFC000
07F01FC000
0FC007E000
0F0007E000
1E0E03E000
3E1F03E000
3C1F03E000
7C3F07E000
783E07C000
783E0FC000
783E1F8000
F03E3F0000
F0FFFE0000
F1FFF80000
F1FFE00000
F0FFF80000
F07DFC0000
F07CFC0000
F07C7E0000
F0F83E0000
F0F83F00C0
78F81F01C0
78F81F83C0
7CF81FC7C0
3FF80FFF80
1FF007FF00
0FF003FE00
07E001F800
ENDCHAR
STARTCHAR S
ENCODING 83
SWIDTH 693 0
DWIDTH 25 0
BBX 24 31 1 0
BITMAP
003FC0
01FFF8
03FFFC
07FFFE
0FE07E
1F801F
1F001F
1F001F
1F001F
1F001F
1F801E
1FC00C
0FE000
0FFC00
07FF00
01FFC0
00FFF0
001FF8
0007FC
2001FC
78007C
F8007E
F8003E
F8003E
F8007C
F8007C
7E01F8
7FFFF8
3FFFF0
0FFFC0
03FE00
ENDCHAR
STARTCHAR T
ENCODING 84
SWIDTH 697 0
DWIDTH 25 0
BBX 32 31 1 0
BITMAP
001FFFFC
03FFFFFE
0FFFFFFF
3FFFFFFE
7F03E000
7C07E000
F807C000
F807C000
F807C000
F807C000
780FC000
780FC000
300F8000
000F8000
000F8000
000F8000
001F8000
001F0000
001F0000
001F0000
001F0000
001F0000
001F0000
003F0000
003E0000
003E0000
003E0000
003E0000
003E0000
003E0000
001C0000
ENDCHAR
STARTCHAR U
ENCODING 85
SWIDTH 890 0
DWIDTH 32 0
BBX 37 31 0 0
BITMAP
01F0003800
0FF8007C00
1FFC007C00
3FFC007C00
7C7C007C00
787C007C00
F07C00FC00
E07C00FC00
407C00F800
007C00F800
00FC00F800
00F801F800
00F801F800
00F801F800
00F801F000
01F803F000
01F003F000
01F007F000
01F007F000
01F007F000
03E00FF000
03E00DE000
03E01FE010
03E03BE038
03E07BE038
03F1F3E070
03FFF3F1F0
03FFE1FFE0
01FFC1FFC0
00FF80FF80
007E007E00
ENDCHAR
STARTCHAR V
ENCODING 86
SWIDTH 763 0
DWIDTH 27 0
BBX 29 32 4 0
BITMAP
00007C00
3C01FE00
3E01FF00
7E03FF00
7C03CF00
7C078F80
7C078F80
7C078F80
7C070F00
7C078F00
7C078F00
7C079F00
FC079F00
FC03DE00
FC03FE00
FC01FE00
FC00FFF0
FC007FF8
FC007FF0
7C00FBF0
7C00F800
7C01F000
7C01F000
7C03E000
7E07C000
3E0FC000
3F1F8000
3FFF0000
1FFE0000
1FFC0000
0FF80000
03E00000
ENDCHAR
STARTCHAR W
ENCODING 87
SWIDTH 1217 0
DWIDTH 44 0
BBX 45 32 4 0
BITMAP
000000007C00
3C001E00FE00
3E003E01FF00
7E003E03FF00
7C003E03CF80
7C003E038F80
7C003E078F80
7C007E078F80
7C007E078F80
7C007E078F80
7C007E078F00
FC00FC078F00
FC00FC03CF00
FC00FC03DF00
F800FC03FF00
F801FC01FE00
F801FC00FFF8
F801FC007FF8
F803FC007FF8
F803FC007FF0
7C03FC00F800
7C07BE00F800
7C07BE01F000
7C0F3E03E000
7C1F1E03E000
7E1E1F07C000
3E3E1F1F8000
3FFC1FFF0000
3FF80FFE0000
1FF80FFC0000
0FE007F80000
07C003E00000
ENDCHAR
STARTCHAR X
ENCODING 88
SWIDTH 712 0
DWIDTH 26 0
BBX 31 31 -1 0
BITMAP
01F00070
07FC01F8
1FFC01F0
3FFE03F0
3C7F07E0
783F0FC0
701F1F80
001FBF00
000FBE00
000FFE00
000FFC00
0007F800
0007F000
0007E000
0007C000
000FE000
001FE000
003FE000
007FF000
00FDF000
00F9F000
01F9F000
03F1F800
07E0F806
0FC0F80E
1F80FC1E
3F807C3E
7F007FFC
7E003FF8
FC001FF0
78000FC0
ENDCHAR
STARTCHAR Y
ENCODING 89
SWIDTH 851 0
DWIDTH 31 0
BBX 35 42 0 -11
BITMAP
01F0003800
0FF8007C00
1FFC007C00
3FFC007C00
7C7C007C00
787C007C00
F07C00FC00
E07C00FC00
407C00F800
007C00F800
00FC00F800
00F801F800
00F801F800
00F801F800
00F803F000
01F803F000
01F007F000
01F007F000
01F00FF000
01F01DF000
01F03DF000
01F879E000
01FFF1E1C0
00FFE3FFE0
007FC3FFC0
001F0FFFC0
00003FF800
0000FFE000
0003FFC000
0007E3C000
000F87C000
001F07C000
003C07C000
007C078000
00780F8000
00780F0000
00781F0000
007C3E0000
007FFE0000
007FFC0000
003FF00000
000FC00000
ENDCHAR
STARTCHAR Z
ENCODING 90
SWIDTH 721 0
DWIDTH 26 0
BBX 30 31 1 0
BITMAP
007FF800
03FFFFC0
0FFFFFE0
1FFFFFE0
3F000FE0
3C001F80
7C001F00
78003F00
78007E00
7C007C00
7C00FC00
3C00F800
1C01F800
0003F000
0003E000
0007E000
000FC000
000F8000
001F8000
003F0000
003E0000
007E0000
00FC0000
01F80008
3FF8003C
7FFF80FC
FFFFFFF8
FFFFFFF0
FF8FFFE0
FF03FFC0
7C007F00
ENDCHAR
STARTCHAR bracketleft
ENCODING 91
SWIDTH 405 0
DWIDTH 15 0
BBX 16 37 2 -3
BITMAP
03FE
07FF
07FF
0FFE
0F80
0F80
0F80
0F80
0F80
0F80
1F00
1F00
1F00
1F00
1F00
1F00
1F00
1F00
3E00
3E00
3E00
3E00
3E00
3E00
3E00
7C00
7C00
7C00
7C00
7C00
7C00
7C00
7C00
FFE0
FFF0
7FF0
3FE0
ENDCHAR
STARTCHAR backslash
ENCODING 92
SWIDTH 509 0
DWIDTH 18 0
BBX 13 34 4 0
BITMAP
7000
F000
F000
F800
F800
F800
7C00
7C00
7C00
3C00
3E00
3E00
3E00
1F00
1F00
1F00
0F00
0F80
0F80
0F80
07C0
07C0
07C0
03C0
03E0
03E0
03E0
01F0
01F0
01F0
00F0
00F8
00F0
0060
ENDCHAR
STARTCHAR bracketright
ENCODING 93
SWIDTH 405 0
DWIDTH 15 0
BBX 16 37 -2 -3
BITMAP
07FE
0FFF
0FFF
07FF
001F
003E
003E
003E
003E
003E
003E
003E
003E
007C
007C
007C
007C
007C
007C
007C
0078
00F8
00F8
00F8
00F8
00F8
00F8
00F8
01F0
01F0
01F0
01F0
01F0
7FF0
FFE0
FFE0
7FC0
ENDCHAR
STARTCHAR asciicircum
ENCODING 94
SWIDTH 700 0
DWIDTH 25 0
BBX 18 19 3 2
BITMAP
003000
007800
00F800
00FC00
01FC00
01FC00
03DE00
07DE00
079E00
0F8F00
0F0F00
1E0F00
1E0700
3C0780
3C0780
780380
F803C0
F003C0
600180
ENDCHAR
STARTCHAR underscore
ENCODING 95
SWIDTH 354 0
DWIDTH 13 0
BBX 13 4 -1 -4
BITMAP
7FF0
FFF8
FFF8
7FF0
ENDCHAR
STARTCHAR grave
ENCODING 96
SWIDTH 600 0
DWIDTH 22 0
BBX 8 11 4 19
BITMAP
70
F8
F8
7C
7C
3C
1E
0E
0F
07
03
ENDCHAR
STARTCHAR a
ENCODING 97
SWIDTH 470 0
DWIDTH 17 0
BBX 21 17 1 0
BITMAP
01E000
07E800
0FFE00
1FFE00
3F3C00
3E3C00
7C3C00
7C3C00
787C00
F87C10
F87838
F8F870
F8F8F0
7FFFE0
7FBFC0
3F9F80
1E0F00
ENDCHAR
STARTCHAR b
ENCODING 98
SWIDTH 473 0
DWIDTH 17 0
BBX 20 34 2 0
BITMAP
00E000
03F000
07F800
07F800
0F3800
0F3800
1E3800
1E3800
3E3800
3C7800
3C7000
7C7000
7CF000
78E000
79C000
79C000
FB8000
FBE000
FFF000
FFF800
FEFC00
FCFC00
F8FC20
F8FFF0
F87FF0
F07FF0
F83FC0
F83C00
787C00
7C7800
7FF800
3FF000
1FE000
0F8000
ENDCHAR
STARTCHAR c
ENCODING 99
SWIDTH 368 0
DWIDTH 13 0
BBX 17 17 1 0
BITMAP
03C000
0FE000
1FF000
3FF000
7C7000
7C7000
78F000
F86000
F80000
F80180
F80380
F80780
7C1F00
7FFE00
3FFC00
1FF800
0FE000
ENDCHAR
STARTCHAR d
ENCODING 100
SWIDTH 515 0
DWIDTH 19 0
BBX 22 34 1 0
BITMAP
0001E0
0003F0
0007F0
0007F8
000F78
000F38
000F38
001E38
001E38
001E78
001E70
003E70
003C70
003CE0
003CE0
003CE0
003DC0
01FDC0
07FDC0
0FFF80
1FFF80
3F7F00
3E7F00
7C7E00
787E00
787C00
F87C0C
F83C1C
F87C3C
F8FC7C
7FFFF8
7FDFF0
3F8FE0
1F0780
ENDCHAR
STARTCHAR e
ENCODING 101
SWIDTH 393 0
DWIDTH 14 0
BBX 18 17 1 0
BITMAP
03E000
0FF000
1FF800
3FF800
7C7800
787800
787800
F8F000
FBE000
FFC0C0
FF01C0
F807C0
7C1F80
7FFF00
3FFE00
1FFC00
07E000
ENDCHAR
STARTCHAR f
ENCODING 102
SWIDTH 371 0
DWIDTH 13 0
BBX 15 46 2 -12
BITMAP
0078
00FC
01FC
03FE
03DE
079E
079E
0F1E
0F1E
1F1C
1E1C
1E3C
3E38
3E38
3C70
3C70
7CE0
7DC0
7DC0
7B80
7F00
7E00
FC00
F800
F800
FBFE
FBFE
F7FE
F7FC
F700
F300
F380
F380
F380
F380
F380
F380
FB80
FB80
FB80
7B80
7B80
7F80
7F00
3F00
1E00
ENDCHAR
STARTCHAR g
ENCODING 103
SWIDTH 479 0
DWIDTH 17 0
BBX 21 34 0 -17
BITMAP
00F000
03F400
07FF00
0FFF00
1F9E00
1F1E00
3E1E00
3E1E00
3C3E00
7C3E18
7C3C78
7C7CF8
7C7FF0
3FFFE0
3FFFC0
1FBF00
0F7E00
00F800
01F800
03F800
07F800
0FF000
1EF000
3CF000
38F000
79E000
71E000
F1E000
E3C000
F7C000
FF8000
FF8000
7F0000
3C0000
ENDCHAR
STARTCHAR h
ENCODING 104
SWIDTH 502 0
DWIDTH 18 0
BBX 21 34 2 0
BITMAP
00E000
03F800
07F800
07F800
0F3800
0F3800
1E3800
1E3800
1E3800
3C7800
3C7000
3C7000
7CE000
78E000
79C000
7BC000
7F8000
7F1C00
FE7E00
FCFE00
FDFE00
FBFE00
F3FC00
F73C00
F73C00
FE3C00
FE7C18
FC7838
FC7878
FC7CF0
F87FE0
F87FC0
F03F80
F01E00
ENDCHAR
STARTCHAR i
ENCODING 105
SWIDTH 246 0
DWIDTH 9 0
BBX 12 25 2 0
BITMAP
1E00
3F00
7F00
7F00
3E00
3C00
0000
0000
3800
7C00
7800
7800
7800
F800
F800
F000
F000
F060
F0F0
F0E0
F1E0
FFC0
FF80
7F00
3C00
ENDCHAR
STARTCHAR j
ENCODING 106
SWIDTH 254 0
DWIDTH 9 0
BBX 21 42 -8 -17
BITMAP
000F00
001F80
001F80
001F80
001F80
000F00
000000
000000
000E00
001F00
001E00
001E00
001E00
001E00
003E00
003E00
003E00
003E18
003C78
003CF8
003DF0
003FE0
003F80
007F00
007E00
00F800
01F800
03F800
07F800
0FF000
1EF000
3CF000
38F000
71E000
71E000
F1E000
E3C000
F7C000
FF8000
FF0000
7F0000
3C0000
ENDCHAR
STARTCHAR k
ENCODING 107
SWIDTH 525 0
DWIDTH 19 0
BBX 22 34 2 0
BITMAP
00E000
03F000
07F800
07F800
0F3800
0F3800
1E3800
1E3800
1E3800
3C7800
3C7000
3C7000
7CF000
78E000
79C000
7BC000
7F8000
7F1C00
FF7F00
FEFF00
FDFF00
FBFF00
F3CF00
F78F00
F70F00
FE1E00
FE7C08
FCF81C
FDF038
FCF8F8
F8FFF0
F8FFE0
787FC0
701F00
ENDCHAR
STARTCHAR l
ENCODING 108
SWIDTH 326 0
DWIDTH 12 0
BBX 14 34 2 0
BITMAP
00E0
03F0
07F8
07F8
0F38
0F38
1E38
1E38
3E38
3C38
3C78
3C78
7C70
7870
78F0
78E0
78E0
F9C0
F9C0
FBC0
F380
F700
FF00
FE00
FE00
FC00
F80C
F81C
783C
7C7C
7FF8
3FF0
3FE0
0F80
ENDCHAR
STARTCHAR m
ENCODING 109
SWIDTH 744 0
DWIDTH 27 0
BBX 29 17 2 0
BITMAP
383C1E00
7CFC3E00
79FC7F00
79FCFE00
FBFDFE00
FFFFFE00
F77F9E00
FE7F3E00
FE7F3E00
FC7E3C18
FC7E3C38
FC7E3C78
F87C3CF8
F87C3FF0
F87C3FE0
F0783FC0
70381F00
ENDCHAR
STARTCHAR n
ENCODING 110
SWIDTH 496 0
DWIDTH 18 0
BBX 21 17 2 0
BITMAP
383C00
7C7C00
78FE00
79FE00
FBFC00
FBFC00
F73C00
F63C00
FE7C00
FC7830
FC7878
FC7870
F879F0
F87FE0
F87FC0
F07F80
703E00
ENDCHAR
STARTCHAR o
ENCODING 111
SWIDTH 451 0
DWIDTH 16 0
BBX 20 17 1 0
BITMAP
07E000
0FF000
1FF800
3FFC00
7CFC00
7CFC10
78FFF0
F87FF0
F87FF0
F83FC0
F83C00
F83C00
7C7800
7FF800
3FF000
1FE000
0FC000
ENDCHAR
STARTCHAR p
ENCODING 112
SWIDTH 481 0
DWIDTH 17 0
BBX 26 34 -4 -17
BITMAP
01C78000
03EFE000
03FFE000
03FFF000
03F9F000
03F1F000
03E1F000
03E1F000
03E1F000
03E1E0C0
03E3E1C0
07E3E3C0
07E7C780
0FFFFF80
0FFFFF00
1FFFFC00
1FF8F800
3BC00000
3BC00000
3BC00000
73C00000
73C00000
73C00000
E3C00000
E3C00000
E7800000
E7800000
E7800000
E7800000
EF000000
FF000000
FE000000
7E000000
38000000
ENDCHAR
STARTCHAR q
ENCODING 113
SWIDTH 500 0
DWIDTH 18 0
BBX 22 33 1 -14
BITMAP
000200
000F00
01FF00
07FF00
0FFF00
1FFE00
3F3E00
3E3E00
7C3C00
7C3C00
787C00
F87C00
F879FC
F8FBFC
F8FBF8
7FFBF8
7FF380
3FF380
1EF380
00F380
01F380
01F380
01F380
01F380
01F380
01F380
01F300
01F700
01F700
00FF00
00FE00
007C00
003800
ENDCHAR
STARTCHAR r
ENCODING 114
SWIDTH 455 0
DWIDTH 16 0
BBX 19 17 2 0
BITMAP
383C00
7C7C00
78FE00
79FC00
FBFC00
FBFC00
F73C60
F73CE0
FE3FE0
FE3FE0
FC3F80
FC1F00
F80000
F80000
F80000
F00000
700000
ENDCHAR
STARTCHAR s
ENCODING 115
SWIDTH 427 0
DWIDTH 15 0
BBX 20 18 0 -1
BITMAP
00E000
01E000
03E000
03C000
07C000
07C000
0FE000
0FF000
1FF000
1CF830
3CFC70
787CF0
F07DF0
E7FFE0
E7FFC0
07FF80
07FE00
03E000
ENDCHAR
STARTCHAR t
ENCODING 116
SWIDTH 393 0
DWIDTH 14 0
BBX 19 32 0 0
BITMAP
003C00
007E00
00FE00
00FF00
01EF00
03CF00
03CF00
038E00
078E00
078E00
079C00
0F9C00
0F3800
0F7000
0FF000
FFFF00
FFFF00
FFFF00
FFFE00
1F0000
1F0000
1F0000
1F0000
1F0000
1F0060
1F00E0
0F01E0
0F83C0
0FFF80
07FF00
03FE00
00F800
ENDCHAR
STARTCHAR u
ENCODING 117
SWIDTH 462 0
DWIDTH 17 0
BBX 19 17 2 0
BITMAP
3C1C00
7C3C00
783C00
787800
787800
F87800
F8F800
F0F800
F1F000
F1F060
F3F0E0
F3F1E0
FFF3E0
FEFFC0
FEFF80
7C7F00
387C00
ENDCHAR
STARTCHAR v
ENCODING 118
SWIDTH 449 0
DWIDTH 16 0
BBX 19 17 2 0
BITMAP
F03800
F0FC00
F0FC00
F1FC00
F1FC00
F1F840
F0FFE0
F0FFE0
F1FFE0
F3FF80
F3C000
FFC000
FF8000
FF0000
7F0000
7E0000
3C0000
ENDCHAR
STARTCHAR w
ENCODING 119
SWIDTH 700 0
DWIDTH 25 0
BBX 28 17 2 0
BITMAP
F0381C00
F0787E00
F0787E00
F0F8FE00
F0F8FE00
F0F8FC20
F1F87FF0
F1F87FF0
F3F8FFF0
F3F9FFC0
F7BDE000
FFBFE000
FF3FC000
FF3F8000
7E3F8000
7E3F0000
381E0000
ENDCHAR
STARTCHAR x
ENCODING 120
SWIDTH 529 0
DWIDTH 19 0
BBX 23 17 1 0
BITMAP
0F07C0
1FCFC0
3FDFE0
3FFFC0
3DF9C0
39F9C0
00F800
00F000
01F000
71F00E
F1F01E
F1F81E
F3F87C
FFFFF8
FFFFF0
FF3FE0
3C1F80
ENDCHAR
STARTCHAR y
ENCODING 121
SWIDTH 479 0
DWIDTH 17 0
BBX 21 34 0 -17
BITMAP
0F0700
1F0F00
1E0F00
1E1E00
1E1E00
3E1E00
3E3E00
3C3E00
3C7E00
3C7E18
3CFC38
3CFCF8
3FFDF8
3FFFE0
3FBFC0
1F3F00
0E7E00
00F800
01F800
03F800
07F800
0FF000
1EF000
3CF000
38F000
71E000
F1E000
F1E000
E3C000
F7C000
FF8000
FF0000
7F0000
3C0000
ENDCHAR
STARTCHAR z
ENCODING 122
SWIDTH 445 0
DWIDTH 16 0
BBX 19 17 2 0
BITMAP
7FFE00
FFFE00
FFFE00
7FFE00
03FC00
07E000
1F8000
3F0000
7C0000
7C00E0
F801E0
F803C0
FC0FC0
7FFF80
7FFF00
3FFC00
0FF000
ENDCHAR
STARTCHAR braceleft
ENCODING 123
SWIDTH 490 0
DWIDTH 18 0
BBX 19 37 2 -3
BITMAP
000FC0
003FE0
007FE0
00FFC0
00F800
01F000
01F000
01F000
01F000
01F000
01E000
03E000
03E000
03E000
03E000
07C000
FFC000
FF8000
FF0000
7F8000
0FC000
07C000
07C000
07C000
07C000
07C000
0F8000
0F8000
0F8000
0F8000
0F8000
0F8000
0FC000
07FC00
07FE00
03FE00
00FC00
ENDCHAR
STARTCHAR bar
ENCODING 124
SWIDTH 326 0
DWIDTH 12 0
BBX 10 45 1 -11
BITMAP
01C0
03C0
03C0
03C0
03C0
07C0
07C0
07C0
07C0
0780
0780
0780
0F80
0F80
0F80
0F80
0F00
0F00
0F00
1F00
1F00
1F00
1F00
1E00
1E00
1E00
3E00
3E00
3E00
3C00
3C00
3C00
7C00
7C00
7C00
7C00
7800
7800
7800
7800
F800
F800
F800
F800
7000
ENDCHAR
STARTCHAR braceright
ENCODING 125
SWIDTH 490 0
DWIDTH 18 0
BBX 20 37 -2 -3
BITMAP
07E000
0FF800
0FFC00
07FE00
007E00
003E00
003E00
003E00
003E00
003E00
003E00
003E00
003E00
003C00
003E00
003E00
003FE0
001FF0
001FE0
003FE0
007E00
007C00
00F800
00F800
00F800
00F800
00F800
00F800
00F000
01F000
01F000
01F000
03F000
7FE000
FFE000
7FC000
7E0000
ENDCHAR
STARTCHAR asciitilde
ENCODING 126
SWIDTH 700 0
DWIDTH 25 0
BBX 20 9 3 6
BITMAP
040000
1F0070
3FC0F0
7FF1F0
7FF9E0
F9FFE0
F07FC0
E01F80
400F00
ENDCHAR
STARTCHAR uni00A0
ENCODING 160
SWIDTH 265 0
DWIDTH 10 0
BBX 1 1 0 0
BITMAP
00
ENDCHAR
STARTCHAR exclamdown
ENCODING 161
SWIDTH 340 0
DWIDTH 12 0
BBX 12 31 -1 -14
BITMAP
01E0
03F0
03F0
07F0
07F0
03F0
01E0
0000
0000
0380
0780
0780
0780
0F80
0F00
0F00
0F00
1F00
1F00
1F00
3E00
3E00
3E00
3E00
7C00
7C00
7C00
FC00
FC00
F800
F000
ENDCHAR
STARTCHAR cent
ENCODING 162
SWIDTH 466 0
DWIDTH 17 0
BBX 14 26 2 -5
BITMAP
01C0
01C0
0180
0180
0180
07E0
1FF0
3FF8
7FF8
7BB8
F338
F378
F330
F300
F308
F71C
F73C
FF78
7FF8
3FF0
1FE0
0600
0600
0E00
0E00
0C00
ENDCHAR
STARTCHAR sterling
ENCODING 163
SWIDTH 525 0
DWIDTH 19 0
BBX 18 22 1 0
BITMAP
007C00
03FF00
07FF80
0FFF80
0FC7C0
1F07C0
1F03C0
1E0180
1E0000
1E0000
FFF800
FFF800
FFF800
3E0000
3E0000
3E0000
3E0000
7C0000
FFFF80
FFFF80
FFFF80
FFFF00
ENDCHAR
STARTCHAR currency
ENCODING 164
SWIDTH 700 0
DWIDTH 25 0
BBX 17 17 4 2
BITMAP
600180
F3F380
7FFF80
3FFF00
3E1E00
3C0F00
380700
780700
780700
780700
380700
3C0F00
3E1E00
3FFF00
7FFF80
F3F380
600180
ENDCHAR
STARTCHAR yen
ENCODING 165
SWIDTH 497 0
DWIDTH 18 0
BBX 18 22 1 0
BITMAP
200080
F803C0
F807C0
7C07C0
7C0F80
3E1F00
3E1E00
1F3E00
1F7C00
0FF800
0FF000
07F000
7FFE00
7FFE00
03C000
07C000
7FFE00
FFFE00
07C000
07C000
07C000
078000
ENDCHAR
STARTCHAR brokenbar
ENCODING 166
SWIDTH 326 0
DWIDTH 12 0
BBX 10 45 1 -11
BITMAP
01C0
03C0
03C0
03C0
03C0
07C0
07C0
07C0
0780
0780
0780
0780
0F80
0F80
0F80
0F00
0F00
0F00
0F00
0400
0000
0000
0000
0000
0000
0800
1E00
3E00
3E00
3E00
3C00
3C00
3C00
7C00
7C00
7C00
7C00
7800
7800
7800
F800
F800
F800
F800
7000
ENDCHAR
STARTCHAR section
ENCODING 167
SWIDTH 607 0
DWIDTH 22 0
BBX 17 31 3 0
BITMAP
01FC00
07FF00
0FFF00
1F0F80
1E0780
1E0780
1E0780
1E0780
1F0300
1FC000
1FF000
3FFC00
3FFE00
78FF00
783F00
780F00
7C0F00
7E0F00
3F8F00
3FFE00
0FFE00
07FC00
00FE00
F03E00
F01E00
F01E00
F01E00
F87C00
FFFC00
7FF800
1FE000
ENDCHAR
STARTCHAR dieresis
ENCODING 168
SWIDTH 600 0
DWIDTH 22 0
BBX 13 6 5 19
BITMAP
7070
F8F0
F9F8
F9F8
F8F0
70E0
ENDCHAR
STARTCHAR copyright
ENCODING 169
SWIDTH 647 0
DWIDTH 23 0
BBX 21 21 3 13
BITMAP
01FC00
07FF00
0F0780
1C01C0
387CE0
71FC70
73CE70
E30E38
E70C38
E70038
E70038
E70038
E70238
E38638
73FC70
70F870
3800E0
1C01C0
0F0780
07FF00
01FC00
ENDCHAR
STARTCHAR ordfeminine
ENCODING 170
SWIDTH 393 0
DWIDTH 14 0
BBX 12 14 3 16
BITMAP
0780
0FF0
1FF0
3CF0
78F0
78F0
F0F0
F1F0
F1E0
F1E0
F3E0
FFE0
7FE0
3CE0
ENDCHAR
STARTCHAR guillemotleft
ENCODING 171
SWIDTH 615 0
DWIDTH 22 0
BBX 20 14 1 2
BITMAP
0180E0
07C1F0
0FC7F0
3F8FE0
7F3F80
FC3F00
F83E00
F83E00
7E3F00
3F1F80
1F8FC0
0FC7E0
07C1E0
0380C0
ENDCHAR
STARTCHAR logicalnot
ENCODING 172
SWIDTH 700 0
DWIDTH 25 0
BBX 20 11 3 1
BITMAP
7FFFE0
FFFFF0
FFFFF0
FFFFF0
0001E0
0001E0
0001E0
0001E0
0003E0
0003E0
0001C0
ENDCHAR
STARTCHAR uni00AD
ENCODING 173
SWIDTH 403 0
DWIDTH 15 0
BBX 11 5 2 9
BITMAP
00C0
7FE0
FFE0
FFE0
FF80
ENDCHAR
STARTCHAR registered
ENCODING 174
SWIDTH 647 0
DWIDTH 23 0
BBX 21 21 3 13
BITMAP
01FC00
07FF00
0F0780
1C01C0
39F8E0
73FC70
71CE70
E1CE38
E18E38
E19C38
E1F838
E1F038
E1B838
E3B838
739C70
731C70
3904E0
1C01C0
0F0780
07FF00
01FC00
ENDCHAR
STARTCHAR macron
ENCODING 175
SWIDTH 600 0
DWIDTH 22 0
BBX 12 4 5 19
BITMAP
7FE0
FFF0
FFF0
7FE0
ENDCHAR
STARTCHAR degree
ENCODING 176
SWIDTH 385 0
DWIDTH 14 0
BBX 11 11 3 20
BITMAP
0F80
3FC0
7FE0
79E0
70E0
F0E0
70E0
79E0
7FC0
3FC0
1F00
ENDCHAR
STARTCHAR plusminus
ENCODING 177
SWIDTH 700 0
DWIDTH 25 0
BBX 19 21 3 0
BITMAP
003000
007800
007800
007800
007800
00F800
1FFFC0
3FFFE0
3FFFC0
3FFFC0
00F000
00F000
00F000
01F000
01E000
00C000
000000
7FFF80
7FFF80
FFFF80
7FFF00
ENDCHAR
STARTCHAR uni00B2
ENCODING 178
SWIDTH 450 0
DWIDTH 16 0
BBX 14 17 2 13
BITMAP
07E0
1FF0
3FF8
3C7C
783C
787C
787C
0078
00F8
01F0
03E0
07C0
1F80
7E00
FFFC
FFFC
FFFC
ENDCHAR
STARTCHAR uni00B3
ENCODING 179
SWIDTH 450 0
DWIDTH 16 0
BBX 13 17 3 13
BITMAP
0FE0
3FF0
7FF8
78F8
F078
7078
00F0
07E0
0FC0
0FE0
01F0
C0F8
E078
F0F8
FFF0
7FE0
3FC0
ENDCHAR
STARTCHAR acute
ENCODING 180
SWIDTH 600 0
DWIDTH 22 0
BBX 7 11 10 19
BITMAP
0E
1E
1E
3E
3E
7C
78
F0
F0
E0
C0
ENDCHAR
STARTCHAR uni00B5
ENCODING 181
SWIDTH 462 0
DWIDTH 17 0
BBX 20 26 1 -9
BITMAP
1E0E00
3E1E00
3C1E00
3C3C00
3C3C00
7C3C00
7C7C00
787C00
78F800
78F830
79F870
79F8F0
FFF9F0
FF7FE0
FF7FC0
FE3F80
FC3E00
F00000
F00000
F00000
F00000
F00000
F00000
F00000
F00000
F00000
ENDCHAR
STARTCHAR paragraph
ENCODING 182
SWIDTH 739 0
DWIDTH 27 0
BBX 21 31 4 0
BITMAP
01FF80
0FFFF0
3FFFF8
7FFFF8
FFFFF8
FFF8F8
FFF8F8
FFF8F8
FFF8F8
FFF0F0
FFF1F0
7FF1F0
3FF1F0
1FF1F0
07F1F0
03E1E0
03E3E0
03E3E0
03E3E0
03E3E0
03E3E0
07C3E0
07C7C0
07C7C0
07C7C0
07C7C0
07C7C0
07C7C0
07C7C0
0787C0
078780
ENDCHAR
STARTCHAR periodcentered
ENCODING 183
SWIDTH 257 0
DWIDTH 9 0
BBX 6 7 2 5
BITMAP
78
FC
FC
FC
FC
FC
78
ENDCHAR
STARTCHAR cedilla
ENCODING 184
SWIDTH 600 0
DWIDTH 22 0
BBX 10 11 2 -9
BITMAP
1E00
3F80
3FC0
03C0
01C0
01C0
03C0
FFC0
FF80
FF00
7E00
ENDCHAR
STARTCHAR uni00B9
ENCODING 185
SWIDTH 450 0
DWIDTH 16 0
BBX 10 17 4 13
BITMAP
0780
3FC0
FFC0
FF80
E780
0780
0780
0F80
0F80
0F80
0F00
0F00
0F00
0F00
0F00
1F00
0E00
ENDCHAR
STARTCHAR ordmasculine
ENCODING 186
SWIDTH 408 0
DWIDTH 15 0
BBX 12 14 3 16
BITMAP
0F80
1FE0
3FE0
78F0
F0F0
F0F0
F0F0
F0F0
F0F0
F0F0
F9E0
7FE0
3FC0
1F00
ENDCHAR
STARTCHAR guillemotright
ENCODING 187
SWIDTH 615 0
DWIDTH 22 0
BBX 19 14 2 2
BITMAP
603800
F83C00
FC7E00
7E3F00
3F1FC0
1F87E0
0FC3E0
07C3E0
1F87E0
3F8FC0
7E3F80
FC7E00
F07C00
E03800
ENDCHAR
STARTCHAR onequarter
ENCODING 188
SWIDTH 955 0
DWIDTH 34 0
BBX 29 30 4 0
BITMAP
07800000
3FC00000
FFC00000
FF803800
E7807800
07807800
0780F800
0F80F000
0F81F000
0F83E000
0F03C000
0F07C000
0F078000
0F0F8700
0F1F0F00
1F1E1F00
0E3E1E20
003C3EF0
007C3CF0
00F878F0
00F079E0
01F0F1E0
01E0F1E0
03E0FFF8
03C0FFF8
0180FFF8
000001C0
000003C0
000003C0
000001C0
ENDCHAR
STARTCHAR onehalf
ENCODING 189
SWIDTH 1024 0
DWIDTH 37 0
BBX 31 30 4 0
BITMAP
07800000
3FC00000
FFC00000
FF803800
E7807800
07807800
0780F800
0F80F000
0F81F000
0F83E000
0F03C000
0F07C000
0F078000
0F0F83F0
0F1F0FFC
1F1E1FFC
0E3E1E3E
003C3C1E
007C3C1E
00F83C3E
00F0003C
01F0007C
01E000F8
03E001F0
03C003E0
01800FC0
00003F80
00007FFE
00007FFE
00007FFE
ENDCHAR
STARTCHAR threequarters
ENCODING 190
SWIDTH 1035 0
DWIDTH 37 0
BBX 33 30 3 0
BITMAP
0FE0000000
3FF0000000
7FF8000000
78F8030000
F078078000
7078078000
00F00F8000
07E01F0000
0FC01E0000
0FE03E0000
01F03C0000
C0F87C0000
E078F80000
F0F8F07000
FFF1F0F000
7FE1E1F000
3FC3E1E200
0007C3CF00
0007C3CF00
000F879E00
000F079E00
001F0F1E00
003E0F1E00
003E0FFF80
003C0FFF80
00180FFF80
0000003C00
0000003C00
0000003C00
0000001C00
ENDCHAR
STARTCHAR questiondown
ENCODING 191
SWIDTH 476 0
DWIDTH 17 0
BBX 17 31 -2 -14
BITMAP
000F00
001F00
003F80
003F80
003F80
003F00
001E00
000000
000000
001800
003C00
003C00
007800
007800
00F800
01F000
03E000
07C000
1F8000
1F0000
3E0000
7E0000
7C0E00
7C0F00
FC0F00
FC0F00
7C1F00
7FFE00
7FFC00
3FF800
0FE000
ENDCHAR
STARTCHAR Agrave
ENCODING 192
SWIDTH 786 0
DWIDTH 28 0
BBX 31 42 2 0
BITMAP
00080000
003C0000
003E0000
003F0000
003FC000
000FE000
0003F000
0000F800
00003000
00000000
00000000
0001FF80
000FFFF0
003FFFF0
00FFFFF0
01FE00E0
03F80000
07E00F00
0FC01F00
1F801F00
1F001F00
3F001F00
3E003F00
7E003E00
7C003E00
7C003E00
7C003E00
FC007E00
F8007C00
F8007C00
F800FC00
F800FC00
F800FC00
F801FC00
FC01FC06
FC03FC0E
7E07FC1E
7F0F7E3C
3FFF7FFC
1FFE3FF8
0FFC3FE0
03F00FC0
ENDCHAR
STARTCHAR Aacute
ENCODING 193
SWIDTH 786 0
DWIDTH 28 0
BBX 31 42 2 0
BITMAP
00000020
00000078
000001F8
000003F8
000007F0
00000FE0
00001F80
00003E00
00001800
00000000
00000000
0001FF80
000FFFF0
003FFFF0
00FFFFF0
01FE00E0
03F80000
07E00F00
0FC01F00
1F801F00
1F001F00
3F001F00
3E003F00
7E003E00
7C003E00
7C003E00
7C003E00
FC007E00
F8007C00
F8007C00
F800FC00
F800FC00
F800FC00
F801FC00
FC01FC06
FC03FC0E
7E07FC1E
7F0F7E3C
3FFF7FFC
1FFE3FF8
0FFC3FE0
03F00FC0
ENDCHAR
STARTCHAR Acircumflex
ENCODING 194
SWIDTH 786 0
DWIDTH 28 0
BBX 31 43 2 0
BITMAP
00001E00
00003E00
00007F00
0000FF00
0000F780
0001E780
0003E780
0003C3C0
0007C3C0
00038380
00000000
00000000
0001FF80
000FFFF0
003FFFF0
00FFFFF0
01FE00E0
03F80000
07E00F00
0FC01F00
1F801F00
1F001F00
3F001F00
3E003F00
7E003E00
7C003E00
7C003E00
7C003E00
FC007E00
F8007C00
F8007C00
F800FC00
F800FC00
F800FC00
F801FC00
FC01FC06
FC03FC0E
7E07FC1E
7F0F7E3C
3FFF7FFC
1FFE3FF8
0FFC3FE0
03F00FC0
ENDCHAR
STARTCHAR Atilde
ENCODING 195
SWIDTH 786 0
DWIDTH 28 0
BBX 31 40 2 0
BITMAP
0001E020
0003F070
0007FCF0
0007FFE0
000F3FE0
000F0FC0
00040380
00000000
00000000
0001FF80
000FFFF0
003FFFF0
00FFFFF0
01FE00E0
03F80000
07E00F00
0FC01F00
1F801F00
1F001F00
3F001F00
3E003F00
7E003E00
7C003E00
7C003E00
7C003E00
FC007E00
F8007C00
F8007C00
F800FC00
F800FC00
F800FC00
F801FC00
FC01FC06
FC03FC0E
7E07FC1E
7F0F7E3C
3FFF7FFC
1FFE3FF8
0FFC3FE0
03F00FC0
ENDCHAR
STARTCHAR Adieresis
ENCODING 196
SWIDTH 786 0
DWIDTH 28 0
BBX 31 39 2 0
BITMAP
0001C3C0
0003E7C0
0003E7C0
0003E7C0
0003E7C0
0003C380
00000000
00000000
0001FF80
000FFFF0
003FFFF0
00FFFFF0
01FE00E0
03F80000
07E00F00
0FC01F00
1F801F00
1F001F00
3F001F00
3E003F00
7E003E00
7C003E00
7C003E00
7C003E00
FC007E00
F8007C00
F8007C00
F800FC00
F800FC00
F800FC00
F801FC00
FC01FC06
FC03FC0E
7E07FC1E
7F0F7E3C
3FFF7FFC
1FFE3FF8
0FFC3FE0
03F00FC0
ENDCHAR
STARTCHAR Aring
ENCODING 197
SWIDTH 786 0
DWIDTH 28 0
BBX 31 43 2 0
BITMAP
00003E00
00007F00
0000FF80
0000E780
0001E380
0001E380
0001E780
0000FF00
0000FF00
00003C00
00000000
00000000
0001FF80
000FFFF0
003FFFF0
00FFFFF0
01FE00E0
03F80000
07E00F00
0FC01F00
1F801F00
1F001F00
3F001F00
3E003F00
7E003E00
7C003E00
7C003E00
7C003E00
FC007E00
F8007C00
F8007C00
F800FC00
F800FC00
F800FC00
F801FC00
FC01FC06
FC03FC0E
7E07FC1E
7F0F7E3C
3FFF7FFC
1FFE3FF8
0FFC3FE0
03F00FC0
ENDCHAR
STARTCHAR AE
ENCODING 198
SWIDTH 1015 0
DWIDTH 37 0
BBX 39 31 2 0
BITMAP
0003E1FFF0
001FE3FFF8
007FE7FFF8
00FFE7FFF8
01FF07FFF0
03F80FC000
07F00F8000
0FC00F8000
1F800F8000
1F801F0000
3F001F0000
3E001F0000
7E003F0000
7C003FFFC0
7C003FFFC0
7C003FFFC0
FC007FFF80
FC007E0000
F8007C0000
F800FC0000
F800FC0000
F800FC0000
F801FC0000
FC01FE0000
7C03FE0006
7E07BF001E
7F0F9FC0FE
3FFF1FFFFC
1FFE0FFFF8
0FFC03FFE0
03F000FF00
ENDCHAR
STARTCHAR Ccedilla
ENCODING 199
SWIDTH 686 0
DWIDTH 25 0
BBX 27 40 2 -9
BITMAP
000FE000
007FF800
01FFFC00
03FFFC00
07F07E00
0FC03E00
0F803E00
1F003E00
3F003E00
3E003E00
3E003E00
7C003C00
7C000000
7C000000
7C000000
FC000000
FC000000
FC000000
FC000000
FC000000
FC000000
7C000000
7E000000
7E000000
3F000040
3F8001E0
1FE00FE0
0FFFFFE0
07FFFFC0
01FFFF00
00FFF000
01FE0000
001F0000
000F0000
000F0000
001F0000
03FE0000
07FE0000
07FC0000
03F00000
ENDCHAR
STARTCHAR Egrave
ENCODING 200
SWIDTH 686 0
DWIDTH 25 0
BBX 28 42 1 0
BITMAP
00800000
01E00000
03F00000
03F80000
01FC0000
00FE0000
003F0000
000F8000
00038000
00000000
00000000
000FF000
007FFC00
01FFFE00
03FFFF00
07F03F00
0FE01F80
0FC00F80
0F800F80
0F800F80
0F800F00
0F800F00
0FC00E00
07F00000
03FF0000
01FF0000
07FF0000
0FFE0000
3FC00000
3F000000
7E000000
FC000000
FC000000
F8000000
FC000000
FC000020
7E0000F0
7F800FF0
3FFFFFF0
1FFFFFE0
07FFFF00
00FFF000
ENDCHAR
STARTCHAR Eacute
ENCODING 201
SWIDTH 686 0
DWIDTH 25 0
BBX 28 42 1 0
BITMAP
00000100
00000780
00000F80
00001F80
00003F80
0000FE00
0001F800
0001E000
00018000
00000000
00000000
000FF000
007FFC00
01FFFE00
03FFFF00
07F03F00
0FE01F80
0FC00F80
0F800F80
0F800F80
0F800F00
0F800F00
0FC00E00
07F00000
03FF0000
01FF0000
07FF0000
0FFE0000
3FC00000
3F000000
7E000000
FC000000
FC000000
F8000000
FC000000
FC000020
7E0000F0
7F800FF0
3FFFFFF0
1FFFFFE0
07FFFF00
00FFF000
ENDCHAR
STARTCHAR Ecircumflex
ENCODING 202
SWIDTH 686 0
DWIDTH 25 0
BBX 28 43 1 0
BITMAP
0001E000
0003F000
0007F000
0007F800
000F7800
001F7C00
001E3C00
003E3C00
003C3C00
00381C00
00000000
00000000
000FF000
007FFC00
01FFFE00
03FFFF00
07F03F00
0FE01F80
0FC00F80
0F800F80
0F800F80
0F800F00
0F800F00
0FC00E00
07F00000
03FF0000
01FF0000
07FF0000
0FFE0000
3FC00000
3F000000
7E000000
FC000000
FC000000
F8000000
FC000000
FC000020
7E0000F0
7F800FF0
3FFFFFF0
1FFFFFE0
07FFFF00
00FFF000
ENDCHAR
STARTCHAR Edieresis
ENCODING 203
SWIDTH 686 0
DWIDTH 25 0
BBX 28 39 1 0
BITMAP
001E1C00
003E3E00
003E3E00
003E7E00
003E3E00
001C3C00
00000000
00000000
000FF000
007FFC00
01FFFE00
03FFFF00
07F03F00
0FE01F80
0FC00F80
0F800F80
0F800F80
0F800F00
0F800F00
0FC00E00
07F00000
03FF0000
01FF0000
07FF0000
0FFE0000
3FC00000
3F000000
7E000000
FC000000
FC000000
F8000000
FC000000
FC000020
7E0000F0
7F800FF0
3FFFFFF0
1FFFFFE0
07FFFF00
00FFF000
ENDCHAR
STARTCHAR Igrave
ENCODING 204
SWIDTH 495 0
DWIDTH 18 0
BBX 21 42 -1 0
BITMAP
040000
0F0000
0F8000
0FC000
0FE000
03F800
00FC00
003C00
000C00
000000
000000
03FFF0
07FFF8
07FFF8
07FFF0
003E00
003E00
003E00
007E00
007C00
007C00
007C00
007C00
007C00
007C00
00F800
00F800
00F800
00F800
00F800
00F800
01F800
01F000
01F000
01F000
01F000
01F000
01F000
3FFF00
7FFF80
FFFF80
7FFF00
ENDCHAR
STARTCHAR Iacute
ENCODING 205
SWIDTH 495 0
DWIDTH 18 0
BBX 23 42 -1 0
BITMAP
000008
00001C
00007E
0000FE
0001FC
0003F8
0007E0
000F80
000E00
000000
000000
03FFF0
07FFF8
07FFF8
07FFF0
003E00
003E00
003E00
007E00
007C00
007C00
007C00
007C00
007C00
007C00
00F800
00F800
00F800
00F800
00F800
00F800
01F800
01F000
01F000
01F000
01F000
01F000
01F000
3FFF00
7FFF80
FFFF80
7FFF00
ENDCHAR
STARTCHAR Icircumflex
ENCODING 206
SWIDTH 495 0
DWIDTH 18 0
BBX 21 43 -1 0
BITMAP
000700
001F80
001FC0
003FC0
007DE0
0079E0
00F9E0
01F1F0
01E0F0
00E0E0
000000
000000
03FFF0
07FFF8
07FFF8
07FFF0
003E00
003E00
003E00
007E00
007C00
007C00
007C00
007C00
007C00
007C00
00F800
00F800
00F800
00F800
00F800
00F800
01F800
01F000
01F000
01F000
01F000
01F000
01F000
3FFF00
7FFF80
FFFF80
7FFF00
ENDCHAR
STARTCHAR Idieresis
ENCODING 207
SWIDTH 495 0
DWIDTH 18 0
BBX 21 39 -1 0
BITMAP
0070E0
00F9F0
01F9F0
01F9F0
00F1F0
00F0E0
000000
000000
03FFF0
07FFF8
07FFF8
07FFF0
003E00
003E00
003E00
007E00
007C00
007C00
007C00
007C00
007C00
007C00
00F800
00F800
00F800
00F800
00F800
00F800
01F800
01F000
01F000
01F000
01F000
01F000
01F000
3FFF00
7FFF80
FFFF80
7FFF00
ENDCHAR
STARTCHAR Eth
ENCODING 208
SWIDTH 821 0
DWIDTH 30 0
BBX 28 31 1 0
BITMAP
007FE000
00FFF800
00FFFE00
01FFFF00
01F07F80
01F01FC0
03E00FC0
03E007E0
03E003E0
03E003F0
07C003F0
07C003F0
07C001F0
7FFF01F0
FFFF81F0
FFFF83F0
FFFF03F0
0F8003E0
0F8003E0
1F0003E0
1F0007E0
1F0007C0
1F000FC0
1F001F80
1F003F00
3F007F00
3E03FC00
3FFFF800
3FFFF000
3FFFC000
0FFC0000
ENDCHAR
STARTCHAR Ntilde
ENCODING 209
SWIDTH 884 0
DWIDTH 32 0
BBX 36 40 0 0
BITMAP
0000E02000
0001F87800
0003FCF000
0007FFF000
00079FE000
00070FE000
000203C000
0000000000
0000000000
01F007E000
07F81FF000
1FF83FF800
3FF87FF800
7CF8F0FC00
7879E0FC00
F079C07C00
E07B807C00
40FB00FC00
00FF00FC00
00FE00F800
00FE00F800
00FC00F800
00FC01F800
00FC01F800
00F801F000
01F801F000
01F801F000
01F803F000
01F003E000
01F003E000
01F003E000
03F003E000
03F003E030
03E003E030
03E003E070
03E003F1F0
03E003FFE0
03E001FFC0
03E000FF80
01C0007E00
ENDCHAR
STARTCHAR Ograve
ENCODING 210
SWIDTH 816 0
DWIDTH 29 0
BBX 27 42 2 0
BITMAP
00800000
03C00000
03E00000
03F00000
01FC0000
00FE0000
003F0000
000F8000
00030000
00000000
00000000
000FE000
007FF800
01FFFE00
03FFFF00
07F03F00
0FC01F80
0F800FC0
1F000FC0
3F0007C0
3E0007C0
3E0007E0
7E0007E0
7C0007E0
7C0007E0
7C0007E0
FC0007E0
FC0007C0
FC0007C0
FC0007C0
FC0007C0
FC000F80
7C000F80
7C001F80
7E001F00
7E003E00
3F007E00
1F81FC00
1FFFF800
0FFFF000
03FFC000
00FE0000
ENDCHAR
STARTCHAR Oacute
ENCODING 211
SWIDTH 816 0
DWIDTH 29 0
BBX 27 42 2 0
BITMAP
00000200
00000780
00000F80
00003F80
00007F00
0000FE00
0001F800
0003E000
00018000
00000000
00000000
000FE000
007FF800
01FFFE00
03FFFF00
07F03F00
0FC01F80
0F800FC0
1F000FC0
3F0007C0
3E0007C0
3E0007E0
7E0007E0
7C0007E0
7C0007E0
7C0007E0
FC0007E0
FC0007C0
FC0007C0
FC0007C0
FC0007C0
FC000F80
7C000F80
7C001F80
7E001F00
7E003E00
3F007E00
1F81FC00
1FFFF800
0FFFF000
03FFC000
00FE0000
ENDCHAR
STARTCHAR Ocircumflex
ENCODING 212
SWIDTH 816 0
DWIDTH 29 0
BBX 27 43 2 0
BITMAP
0001E000
0003E000
0007F000
000FF000
000F7800
001E7800
003E7800
003C3C00
007C3C00
00381800
00000000
00000000
000FE000
007FF800
01FFFE00
03FFFF00
07F03F00
0FC01F80
0F800FC0
1F000FC0
3F0007C0
3E0007C0
3E0007E0
7E0007E0
7C0007E0
7C0007E0
7C0007E0
FC0007E0
FC0007C0
FC0007C0
FC0007C0
FC0007C0
FC000F80
7C000F80
7C001F80
7E001F00
7E003E00
3F007E00
1F81FC00
1FFFF800
0FFFF000
03FFC000
00FE0000
ENDCHAR
STARTCHAR Otilde
ENCODING 213
SWIDTH 816 0
DWIDTH 29 0
BBX 27 40 2 0
BITMAP
001E0200
003F0700
007FCF00
007FFF00
00F1FE00
00F0FC00
00403800
00000000
00000000
000FE000
007FF800
01FFFE00
03FFFF00
07F03F00
0FC01F80
0F800FC0
1F000FC0
3F0007C0
3E0007C0
3E0007E0
7E0007E0
7C0007E0
7C0007E0
7C0007E0
FC0007E0
FC0007C0
FC0007C0
FC0007C0
FC0007C0
FC000F80
7C000F80
7C001F80
7E001F00
7E003E00
3F007E00
1F81FC00
1FFFF800
0FFFF000
03FFC000
00FE0000
ENDCHAR
STARTCHAR Odieresis
ENCODING 214
SWIDTH 816 0
DWIDTH 29 0
BBX 27 39 2 0
BITMAP
001C3C00
003E7C00
003E7C00
003E7C00
003E7C00
003C3800
00000000
00000000
000FE000
007FF800
01FFFE00
03FFFF00
07F03F00
0FC01F80
0F800FC0
1F000FC0
3F0007C0
3E0007C0
3E0007E0
7E0007E0
7C0007E0
7C0007E0
7C0007E0
FC0007E0
FC0007C0
FC0007C0
FC0007C0
FC0007C0
FC000F80
7C000F80
7C001F80
7E001F00
7E003E00
3F007E00
1F81FC00
1FFFF800
0FFFF000
03FFC000
00FE0000
ENDCHAR
STARTCHAR multiply
ENCODING 215
SWIDTH 700 0
DWIDTH 25 0
BBX 18 17 4 2
BITMAP
100100
380380
7C07C0
3E0F80
3F1F00
1FBE00
0FFC00
07F800
03F000
07F000
0FF800
1FFC00
3F7E00
7C3F00
F81F00
F00F00
600600
ENDCHAR
STARTCHAR Oslash
ENCODING 216
SWIDTH 816 0
DWIDTH 29 0
BBX 27 38 2 -4
BITMAP
0000F000
0000F000
0000F000
000FE000
007FF800
01FFFE00
03FFFF00
07F3FF00
0FC3DF80
0F83CFC0
1F03CFC0
3F0787C0
3E0787C0
3E0787E0
7C0707E0
7C0F07E0
7C0F07E0
7C0F07E0
FC0E07E0
FC1E07C0
FC1E07C0
FC1E07C0
FC1C07C0
FC3C0F80
7C3C0F80
7C3C1F80
7E381F00
7E783E00
3F787E00
3FF9FC00
1FFFF800
0FFFF000
03FFC000
00FE0000
01E00000
01E00000
01E00000
01C00000
ENDCHAR
STARTCHAR Ugrave
ENCODING 217
SWIDTH 890 0
DWIDTH 32 0
BBX 37 42 0 0
BITMAP
0010000000
003C000000
003E000000
003F000000
003F800000
000FE00000
0003F00000
0000F00000
0000300000
0000000000
0000000000
01F0003800
0FF8007C00
1FFC007C00
3FFC007C00
7C7C007C00
787C007C00
F07C00FC00
E07C00FC00
407C00F800
007C00F800
00FC00F800
00F801F800
00F801F800
00F801F800
00F801F000
01F803F000
01F003F000
01F007F000
01F007F000
01F007F000
03E00FF000
03E00DE000
03E01FE010
03E03BE038
03E07BE038
03F1F3E070
03FFF3F1F0
03FFE1FFE0
01FFC1FFC0
00FF80FF80
007E007E00
ENDCHAR
STARTCHAR Uacute
ENCODING 218
SWIDTH 890 0
DWIDTH 32 0
BBX 37 42 0 0
BITMAP
0000002000
0000007000
000001F800
000003F800
000007F000
00000FE000
00001F8000
00003E0000
0000380000
0000000000
0000000000
01F0003800
0FF8007C00
1FFC007C00
3FFC007C00
7C7C007C00
787C007C00
F07C00FC00
E07C00FC00
407C00F800
007C00F800
00FC00F800
00F801F800
00F801F800
00F801F800
00F801F000
01F803F000
01F003F000
01F007F000
01F007F000
01F007F000
03E00FF000
03E00DE000
03E01FE010
03E03BE038
03E07BE038
03F1F3E070
03FFF3F1F0
03FFE1FFE0
01FFC1FFC0
00FF80FF80
007E007E00
ENDCHAR
STARTCHAR Ucircumflex
ENCODING 219
SWIDTH 890 0
DWIDTH 32 0
BBX 37 43 0 0
BITMAP
00001C0000
00007E0000
00007F0000
0000FF0000
0001F78000
0001E78000
0003E78000
0007C7C000
0007C3C000
0003838000
0000000000
0000000000
01F0003800
0FF8007C00
1FFC007C00
3FFC007C00
7C7C007C00
787C007C00
F07C00FC00
E07C00FC00
407C00F800
007C00F800
00FC00F800
00F801F800
00F801F800
00F801F800
00F801F000
01F803F000
01F003F000
01F007F000
01F007F000
01F007F000
03E00FF000
03E00DE000
03E01FE010
03E03BE038
03E07BE038
03F1F3E070
03FFF3F1F0
03FFE1FFE0
01FFC1FFC0
00FF80FF80
007E007E00
ENDCHAR
STARTCHAR Udieresis
ENCODING 220
SWIDTH 890 0
DWIDTH 32 0
BBX 37 39 0 0
BITMAP
0001C38000
0003E7C000
0007E7C000
0007E7C000
0003C7C000
0003C38000
0000000000
0000000000
01F0003800
0FF8007C00
1FFC007C00
3FFC007C00
7C7C007C00
787C007C00
F07C00FC00
E07C00FC00
407C00F800
007C00F800
00FC00F800
00F801F800
00F801F800
00F801F800
00F801F000
01F803F000
01F003F000
01F007F000
01F007F000
01F007F000
03E00FF000
03E00DE000
03E01FE010
03E03BE038
03E07BE038
03F1F3E070
03FFF3F1F0
03FFE1FFE0
01FFC1FFC0
00FF80FF80
007E007E00
ENDCHAR
STARTCHAR Yacute
ENCODING 221
SWIDTH 851 0
DWIDTH 31 0
BBX 35 53 0 -11
BITMAP
0000001000
0000007800
000000F800
000001F800
000007F800
00000FE000
00001F8000
00001E0000
0000180000
0000000000
0000000000
01F0003800
0FF8007C00
1FFC007C00
3FFC007C00
7C7C007C00
787C007C00
F07C00FC00
E07C00FC00
407C00F800
007C00F800
00FC00F800
00F801F800
00F801F800
00F801F800
00F803F000
01F803F000
01F007F000
01F007F000
01F00FF000
01F01DF000
01F03DF000
01F879E000
01FFF1E1C0
00FFE3FFE0
007FC3FFC0
001F0FFFC0
00003FF800
0000FFE000
0003FFC000
0007E3C000
000F87C000
001F07C000
003C07C000
007C078000
00780F8000
00780F0000
00781F0000
007C3E0000
007FFE0000
007FFC0000
003FF00000
000FC00000
ENDCHAR
STARTCHAR Thorn
ENCODING 222
SWIDTH 776 0
DWIDTH 28 0
BBX 26 38 2 -4
BITMAP
000F0000
001F0000
001F0000
001F0000
001F0000
001F0000
001F0000
001FE000
007FFC00
01FFFE00
03FFFF00
07FE3F80
0FBE1FC0
1F3E0FC0
3E3E07C0
3C7C07C0
7C7C07C0
787C07C0
787C0FC0
F07C0F80
F07C1F80
F0FC3F00
F0F8FE00
F3FFFC00
F7FFF800
F3FFE000
F1FE0000
F1F80000
F1F00000
F1F00000
F1F00000
F1F00000
F1F00000
7BE00000
7FE00000
3FE00000
1FC00000
07800000
ENDCHAR
STARTCHAR germandbls
ENCODING 223
SWIDTH 596 0
DWIDTH 21 0
BBX 24 36 2 -7
BITMAP
007E00
01FF80
07FFC0
0FFFC0
0F87C0
1F03E0
3E03E0
3E03E0
3C03C0
7C07C0
781F80
783F00
787E00
F8F800
F8F000
F9F000
F8F800
F0FC00
F0FF00
F07FFC
F0FFFF
F3FFFF
F3C7E7
F7C3E0
F7C3E0
F7C3C0
F3FFC0
F1FF80
F0FE00
F00000
F00000
F00000
F00000
F00000
F00000
F00000
ENDCHAR
STARTCHAR agrave
ENCODING 224
SWIDTH 470 0
DWIDTH 17 0
BBX 21 30 1 0
BITMAP
060000
0F0000
0F0000
0F8000
0F8000
07C000
03C000
01E000
00E000
00E000
006000
000000
000000
01E000
07E800
0FFE00
1FFE00
3F3C00
3E3C00
7C3C00
7C3C00
787C00
F87C10
F87838
F8F870
F8F8F0
7FFFE0
7FBFC0
3F9F80
1E0F00
ENDCHAR
STARTCHAR aacute
ENCODING 225
SWIDTH 470 0
DWIDTH 17 0
BBX 21 30 1 0
BITMAP
000700
000F80
000F80
000F00
001F00
001E00
003C00
003C00
007800
007000
006000
000000
000000
01E000
07E800
0FFE00
1FFE00
3F3C00
3E3C00
7C3C00
7C3C00
787C00
F87C10
F87838
F8F870
F8F8F0
7FFFE0
7FBFC0
3F9F80
1E0F00
ENDCHAR
STARTCHAR acircumflex
ENCODING 226
SWIDTH 470 0
DWIDTH 17 0
BBX 21 31 1 0
BITMAP
003800
007C00
00FC00
00FE00
01FE00
01CE00
03CE00
078F00
078F00
0F0F00
0F0F00
0E0700
000000
000000
01E000
07E800
0FFE00
1FFE00
3F3C00
3E3C00
7C3C00
7C3C00
787C00
F87C10
F87838
F8F870
F8F8F0
7FFFE0
7FBFC0
3F9F80
1E0F00
ENDCHAR
STARTCHAR atilde
ENCODING 227
SWIDTH 470 0
DWIDTH 17 0
BBX 21 26 1 0
BITMAP
038080
07E1C0
0FF3C0
1EFFC0
1E7F80
1C1F00
080E00
000000
000000
01E000
07E800
0FFE00
1FFE00
3F3C00
3E3C00
7C3C00
7C3C00
787C00
F87C10
F87838
F8F870
F8F8F0
7FFFE0
7FBFC0
3F9F80
1E0F00
ENDCHAR
STARTCHAR adieresis
ENCODING 228
SWIDTH 470 0
DWIDTH 17 0
BBX 21 25 1 0
BITMAP
078700
0F8F80
0F8F80
0F8F80
0F8F80
070F00
000000
000000
01E000
07E800
0FFE00
1FFE00
3F3C00
3E3C00
7C3C00
7C3C00
787C00
F87C10
F87838
F8F870
F8F8F0
7FFFE0
7FBFC0
3F9F80
1E0F00
ENDCHAR
STARTCHAR aring
ENCODING 229
SWIDTH 470 0
DWIDTH 17 0
BBX 21 29 1 0
BITMAP
007800
01FC00
01FE00
03CE00
038F00
038F00
03CE00
03FE00
01FC00
00F800
000000
000000
01E000
07E800
0FFE00
1FFE00
3F3C00
3E3C00
7C3C00
7C3C00
787C00
F87C10
F87838
F8F870
F8F8F0
7FFFE0
7FBFC0
3F9F80
1E0F00
ENDCHAR
STARTCHAR ae
ENCODING 230
SWIDTH 653 0
DWIDTH 24 0
BBX 27 17 1 0
BITMAP
00F1F000
07FFF800
0FFFFC00
1FFFFC00
3F1F3C00
3E3E3C00
7C3C3C00
783C7C00
F87CF800
F87FF060
F87FC0E0
F87E01E0
F8FE07E0
7FFFFFC0
7FDFFF00
3F8FFE00
1F03F800
ENDCHAR
STARTCHAR ccedilla
ENCODING 231
SWIDTH 368 0
DWIDTH 13 0
BBX 17 27 1 -10
BITMAP
03C000
0FE000
1FF000
3FF000
7E7000
7C7000
78F000
F8E000
F80000
F80100
F80380
F80780
F80F80
7C3F00
7FFE00
3FFC00
1FF000
1FC000
1FE000
01E000
00E000
00E000
01E000
7FE000
7FC000
7F8000
3E0000
ENDCHAR
STARTCHAR egrave
ENCODING 232
SWIDTH 393 0
DWIDTH 14 0
BBX 18 30 1 0
BITMAP
1C0000
3C0000
3E0000
3E0000
1F0000
0F0000
078000
078000
03C000
01C000
00C000
000000
000000
03E000
0FF000
1FF800
3FF800
7C7800
787800
787800
F8F000
FBE000
FFC0C0
FF01C0
F807C0
7C1F80
7FFF00
3FFE00
1FFC00
07E000
ENDCHAR
STARTCHAR eacute
ENCODING 233
SWIDTH 393 0
DWIDTH 14 0
BBX 18 30 1 0
BITMAP
000C00
001E00
003E00
003E00
003C00
007C00
007800
00F000
00E000
01C000
00C000
000000
000000
03E000
0FF000
1FF800
3FF800
7C7800
787800
787800
F8F000
FBE000
FFC0C0
FF01C0
F807C0
7C1F80
7FFF00
3FFE00
1FFC00
07E000
ENDCHAR
STARTCHAR ecircumflex
ENCODING 234
SWIDTH 393 0
DWIDTH 14 0
BBX 18 31 1 0
BITMAP
007000
01F800
01F800
03F800
03B800
07BC00
0F3C00
0F3C00
1E3C00
1E1E00
3C1E00
1C1C00
000000
000000
03E000
0FF000
1FF800
3FF800
7C7800
787800
787800
F8F000
FBE000
FFC0C0
FF01C0
F807C0
7C1F80
7FFF00
3FFE00
1FFC00
07E000
ENDCHAR
STARTCHAR edieresis
ENCODING 235
SWIDTH 393 0
DWIDTH 14 0
BBX 18 25 1 0
BITMAP
0E1E00
1F3E00
1F3E00
1F3E00
1F3E00
1E1C00
000000
000000
03E000
0FF000
1FF800
3FF800
7C7800
787800
787800
F8F000
FBE000
FFC0C0
FF01C0
F807C0
7C1F80
7FFF00
3FFE00
1FFC00
07E000
ENDCHAR
STARTCHAR igrave
ENCODING 236
SWIDTH 246 0
DWIDTH 9 0
BBX 14 30 0 0
BITMAP
E000
F000
F000
F800
F800
7C00
3C00
1E00
0E00
0E00
0600
0000
0000
0E00
1F00
1E00
1E00
1E00
3E00
3E00
3C00
3C00
3C18
3C3C
3C38
3C78
3FF0
3FE0
1FC0
0F00
ENDCHAR
STARTCHAR iacute
ENCODING 237
SWIDTH 246 0
DWIDTH 9 0
BBX 12 30 2 0
BITMAP
01C0
03E0
03E0
07C0
07C0
0780
0F00
0E00
1E00
1C00
1800
0000
0000
3800
7C00
7800
7800
7800
F800
F800
F000
F000
F060
F0F0
F0E0
F1E0
FFC0
FF80
7F00
3C00
ENDCHAR
STARTCHAR icircumflex
ENCODING 238
SWIDTH 246 0
DWIDTH 9 0
BBX 14 31 0 0
BITMAP
0380
07C0
0FC0
0FE0
1FE0
3DE0
3CE0
78F0
78F0
F0F0
F0F0
E060
0000
0000
0E00
1F00
1E00
1E00
1E00
3E00
3E00
3C00
3C00
3C18
3C3C
3C38
3C78
3FF0
3FE0
1FC0
0F00
ENDCHAR
STARTCHAR idieresis
ENCODING 239
SWIDTH 246 0
DWIDTH 9 0
BBX 14 25 0 0
BITMAP
7070
F8F8
F8F8
F8F8
F8F0
70F0
0000
0000
0E00
1F00
1E00
1E00
1E00
3E00
3E00
3C00
3C00
3C18
3C3C
3C38
3C78
3FF0
3FE0
1FC0
0F00
ENDCHAR
STARTCHAR eth
ENCODING 240
SWIDTH 451 0
DWIDTH 16 0
BBX 18 34 1 0
BITMAP
070000
0F8000
07C180
03E7C0
03EF80
01FF80
00FE00
01FC00
07F800
0FFC00
0FBC00
0E3C00
003E00
003E00
003E00
001E00
001E00
07DE00
0FFE00
1FFE00
3FFE00
7C3E00
7C1E00
781E00
F81E00
F83E00
F83C00
F83C00
F87C00
7CF800
7FF800
3FF000
1FE000
0FC000
ENDCHAR
STARTCHAR ntilde
ENCODING 241
SWIDTH 496 0
DWIDTH 18 0
BBX 21 26 2 0
BITMAP
070080
0FC3C0
1FE3C0
1FFF80
3CFF00
383F00
101E00
000000
000000
383C00
7C7C00
78FE00
79FE00
FBFC00
FBFC00
F73C00
F63C00
FE7C00
FC7830
FC7878
FC7870
F879F0
F87FE0
F87FC0
F07F80
703E00
ENDCHAR
STARTCHAR ograve
ENCODING 242
SWIDTH 451 0
DWIDTH 16 0
BBX 20 30 1 0
BITMAP
1C0000
3C0000
3E0000
3E0000
1F0000
0F0000
0F8000
078000
038000
01C000
008000
000000
000000
07E000
0FF000
1FF800
3FFC00
7CFC00
7CFC10
78FFF0
F87FF0
F87FF0
F83FC0
F83C00
F83C00
7C7800
7FF800
3FF000
1FE000
0FC000
ENDCHAR
STARTCHAR oacute
ENCODING 243
SWIDTH 451 0
DWIDTH 16 0
BBX 20 30 1 0
BITMAP
001C00
001E00
003E00
003E00
007C00
007800
007800
00F000
00E000
01C000
00C000
000000
000000
07E000
0FF000
1FF800
3FFC00
7CFC00
7CFC10
78FFF0
F87FF0
F87FF0
F83FC0
F83C00
F83C00
7C7800
7FF800
3FF000
1FE000
0FC000
ENDCHAR
STARTCHAR ocircumflex
ENCODING 244
SWIDTH 451 0
DWIDTH 16 0
BBX 20 31 1 0
BITMAP
00F000
01F000
01F800
03F800
07B800
07B800
0F3C00
0F3C00
1E3C00
1E3C00
3C1C00
1C1C00
000000
000000
07E000
0FF000
1FF800
3FFC00
7CFC00
7CFC10
78FFF0
F87FF0
F87FF0
F83FC0
F83C00
F83C00
7C7800
7FF800
3FF000
1FE000
0FC000
ENDCHAR
STARTCHAR otilde
ENCODING 245
SWIDTH 451 0
DWIDTH 16 0
BBX 20 26 1 0
BITMAP
0F0100
1F8780
3FC780
3FFF00
79FF00
707E00
203C00
000000
000000
07E000
0FF000
1FF800
3FFC00
7CFC00
7CFC10
78FFF0
F87FF0
F87FF0
F83FC0
F83C00
F83C00
7C7800
7FF800
3FF000
1FE000
0FC000
ENDCHAR
STARTCHAR odieresis
ENCODING 246
SWIDTH 451 0
DWIDTH 16 0
BBX 20 25 1 0
BITMAP
0E1C00
1F3E00
1F3E00
3F3E00
1E3E00
1E1C00
000000
000000
07E000
0FF000
1FF800
3FFC00
7CFC00
7CFC10
78FFF0
F87FF0
F87FF0
F83FC0
F83C00
F83C00
7C7800
7FF800
3FF000
1FE000
0FC000
ENDCHAR
STARTCHAR divide
ENCODING 247
SWIDTH 700 0
DWIDTH 25 0
BBX 20 21 3 0
BITMAP
007000
00F800
00F800
00F800
00F800
007000
000000
000000
000000
7FFFE0
FFFFF0
FFFFF0
FFFFE0
000000
000000
01E000
03E000
03F000
03E000
03E000
01C000
ENDCHAR
STARTCHAR oslash
ENCODING 248
SWIDTH 459 0
DWIDTH 17 0
BBX 20 26 1 -4
BITMAP
004000
00E000
00E000
00E000
00E000
07E000
0FF800
1FF800
3FFC00
7DFC00
79BE00
799FF0
F99FF0
FB9FF0
FB9FE0
FBBE00
FB3C00
7B7C00
7FF800
3FF800
1FF000
0FC000
060000
060000
0E0000
0E0000
ENDCHAR
STARTCHAR ugrave
ENCODING 249
SWIDTH 462 0
DWIDTH 17 0
BBX 19 30 2 0
BITMAP
1C0000
3C0000
3E0000
3E0000
1F0000
0F0000
078000
078000
03C000
01C000
00C000
000000
000000
3C1C00
7C3C00
783C00
787800
787800
F87800
F8F800
F0F800
F1F000
F1F060
F3F0E0
F3F1E0
FFF3E0
FEFFC0
FEFF80
7C7F00
387C00
ENDCHAR
STARTCHAR uacute
ENCODING 250
SWIDTH 462 0
DWIDTH 17 0
BBX 19 30 2 0
BITMAP
000C00
001E00
003E00
003E00
003C00
007C00
007800
00F000
00E000
01C000
00C000
000000
000000
3C1C00
7C3C00
783C00
787800
787800
F87800
F8F800
F0F800
F1F000
F1F060
F3F0E0
F3F1E0
FFF3E0
FEFFC0
FEFF80
7C7F00
387C00
ENDCHAR
STARTCHAR ucircumflex
ENCODING 251
SWIDTH 462 0
DWIDTH 17 0
BBX 19 31 2 0
BITMAP
007000
01F800
01F800
03F800
03B800
07BC00
0F3C00
0F3C00
1E3C00
1E1E00
3C1E00
1C1C00
000000
000000
3C1C00
7C3C00
783C00
787800
787800
F87800
F8F800
F0F800
F1F000
F1F060
F3F0E0
F3F1E0
FFF3E0
FEFFC0
FEFF80
7C7F00
387C00
ENDCHAR
STARTCHAR udieresis
ENCODING 252
SWIDTH 462 0
DWIDTH 17 0
BBX 19 25 2 0
BITMAP
0E1E00
1F3E00
1F3E00
1F3E00
1F3E00
1E1C00
000000
000000
3C1C00
7C3C00
783C00
787800
787800
F87800
F8F800
F0F800
F1F000
F1F060
F3F0E0
F3F1E0
FFF3E0
FEFFC0
FEFF80
7C7F00
387C00
ENDCHAR
STARTCHAR yacute
ENCODING 253
SWIDTH 479 0
DWIDTH 17 0
BBX 21 47 0 -17
BITMAP
000300
000780
000F80
000F80
000F00
001F00
001E00
003C00
003800
007000
003000
000000
000000
0F0700
1F0F00
1E0F00
1E1E00
1E1E00
3E1E00
3E3E00
3C3E00
3C7E00
3C7E18
3CFC38
3CFCF8
3FFDF8
3FFFE0
3FBFC0
1F3F00
0E7E00
00F800
01F800
03F800
07F800
0FF000
1EF000
3CF000
38F000
71E000
F1E000
F1E000
E3C000
F7C000
FF8000
FF0000
7F0000
3C0000
ENDCHAR
STARTCHAR thorn
ENCODING 254
SWIDTH 508 0
DWIDTH 18 0
BBX 22 41 1 -12
BITMAP
020000
0F0000
0F0000
1F0000
1F0000
1F0000
1F0000
1E0000
3E0000
3E0000
3E0000
3C0000
3C3C00
3C7E00
7CFF00
7DFF00
7FFF00
7B9F00
7F1F00
7F1F00
7E1F00
7C1E0C
7C3E1C
FC3C3C
F8FC78
FBFFF8
FFFFF0
FFDFC0
FF0F80
F00000
F00000
F00000
F00000
F00000
F00000
F00000
F00000
F00000
F00000
F00000
F00000
ENDCHAR
STARTCHAR ydieresis
ENCODING 255
SWIDTH 479 0
DWIDTH 17 0
BBX 21 42 0 -17
BITMAP
038780
07CF80
07CF80
07CF80
07CF80
078700
000000
000000
0F0700
1F0F00
1E0F00
1E1E00
1E1E00
3E1E00
3E3E00
3C3E00
3C7E00
3C7E18
3CFC38
3CFCF8
3FFDF8
3FFFE0
3FBFC0
1F3F00
0E7E00
00F800
01F800
03F800
07F800
0FF000
1EF000
3CF000
38F000
71E000
F1E000
F1E000
E3C000
F7C000
FF8000
FF0000
7F0000
3C0000
ENDCHAR
STARTCHAR Amacron
ENCODING 256
SWIDTH 786 0
DWIDTH 28 0
BBX 31 37 2 0
BITMAP
0001FF80
0003FF80
0003FF80
0003FF80
00000000
00000000
0001FF80
000FFFF0
003FFFF0
00FFFFF0
01FE00E0
03F80000
07E00F00
0FC01F00
1F801F00
1F001F00
3F001F00
3E003F00
7E003E00
7C003E00
7C003E00
7C003E00
FC007E00
F8007C00
F8007C00
F800FC00
F800FC00
F800FC00
F801FC00
FC01FC06
FC03FC0E
7E07FC1E
7F0F7E3C
3FFF7FFC
1FFE3FF8
0FFC3FE0
03F00FC0
ENDCHAR
STARTCHAR amacron
ENCODING 257
SWIDTH 470 0
DWIDTH 17 0
BBX 21 23 1 0
BITMAP
07FE00
0FFF00
0FFF00
07FE00
000000
000000
01E000
07E800
0FFE00
1FFE00
3F3C00
3E3C00
7C3C00
7C3C00
787C00
F87C10
F87838
F8F870
F8F8F0
7FFFE0
7FBFC0
3F9F80
1E0F00
ENDCHAR
STARTCHAR Abreve
ENCODING 258
SWIDTH 786 0
DWIDTH 28 0
BBX 31 40 2 0
BITMAP
00020020
000780F0
000781E0
0007FFE0
0003FFC0
0001FF80
0000FE00
00000000
00000000
0001FF80
000FFFF0
003FFFF0
00FFFFF0
01FE00E0
03F80000
07E00F00
0FC01F00
1F801F00
1F001F00
3F001F00
3E003F00
7E003E00
7C003E00
7C003E00
7C003E00
FC007E00
F8007C00
F8007C00
F800FC00
F800FC00
F800FC00
F801FC00
FC01FC06
FC03FC0E
7E07FC1E
7F0F7E3C
3FFF7FFC
1FFE3FF8
0FFC3FE0
03F00FC0
ENDCHAR
STARTCHAR abreve
ENCODING 259
SWIDTH 470 0
DWIDTH 17 0
BBX 21 27 1 0
BITMAP
0E01C0
1E03C0
1F03C0
1F87C0
0FFF80
0FFF00
03FE00
01F800
000000
000000
01E000
07E800
0FFE00
1FFE00
3F3C00
3E3C00
7C3C00
7C3C00
787C00
F87C10
F87838
F8F870
F8F8F0
7FFFE0
7FBFC0
3F9F80
1E0F00
ENDCHAR
STARTCHAR Aogonek
ENCODING 260
SWIDTH 786 0
DWIDTH 28 0
BBX 31 40 2 -9
BITMAP
0001FF80
000FFFF0
003FFFF0
00FFFFF0
01FE00E0
03F80000
07E00F00
0FC01F00
1F801F00
1F001F00
3F001F00
3E003F00
7E003E00
7C003E00
7C003E00
7C003E00
FC007E00
F8007C00
F8007C00
F800FC00
F800FC00
F800FC00
F801FC00
FC01FC06
FC03FC0E
7E07FC1E
7F0F7E3C
3FFF7FF8
1FFE3FF0
0FFC3FE0
03F00F80
00000F00
00001E00
00003C00
00003C00
00003E00
00003FF0
00001FF0
00000FF0
000007C0
ENDCHAR
STARTCHAR aogonek
ENCODING 261
SWIDTH 470 0
DWIDTH 17 0
BBX 21 26 1 -9
BITMAP
01E000
07E800
0FFE00
1FFE00
3F3C00
3E3C00
7C3C00
7C3C00
787C00
F87C30
F87878
F8F8F0
F8FDF0
7FFFE0
7FBFC0
3F9F80
1E3F00
007C00
007800
00F000
00F000
00F000
00F080
007FC0
007F80
001F00
ENDCHAR
STARTCHAR Cacute
ENCODING 262
SWIDTH 686 0
DWIDTH 25 0
BBX 27 42 2 0
BITMAP
00000200
00000780
00001F80
00003F80
00007F00
0000FE00
0001F800
0003E000
00018000
00000000
00000000
000FE000
007FF800
01FFFC00
03FFFC00
07F07E00
0FC03E00
0F803E00
1F003E00
3F003E00
3E003E00
3E003E00
7C003C00
7C000000
7C000000
7C000000
FC000000
FC000000
FC000000
FC000000
FC000000
FC000000
7C000000
7E000000
7E000000
3F000040
3F8001E0
1FE00FE0
0FFFFFE0
07FFFFC0
01FFFE00
003FF000
ENDCHAR
STARTCHAR cacute
ENCODING 263
SWIDTH 368 0
DWIDTH 13 0
BBX 17 30 1 0
BITMAP
001C00
001E00
003E00
003E00
007C00
007800
00F800
00F000
00E000
01C000
01C000
000000
000000
03C000
0FE000
1FF000
3FF000
7C7000
7C7000
78F000
F86000
F80000
F80180
F80380
F80780
7C1F00
7FFE00
3FFC00
1FF800
0FE000
ENDCHAR
STARTCHAR Ccircumflex
ENCODING 264
SWIDTH 686 0
DWIDTH 25 0
BBX 27 43 2 0
BITMAP
0001E000
0003E000
0007F000
000FF000
000F7800
001E7800
003E7800
003C3C00
007C3C00
00383800
00000000
00000000
000FE000
007FF800
01FFFC00
03FFFC00
07F07E00
0FC03E00
0F803E00
1F003E00
3F003E00
3E003E00
3E003E00
7C003C00
7C000000
7C000000
7C000000
FC000000
FC000000
FC000000
FC000000
FC000000
FC000000
7C000000
7E000000
7E000000
3F000040
3F8001E0
1FE00FE0
0FFFFFE0
07FFFFC0
01FFFE00
003FF000
ENDCHAR
STARTCHAR ccircumflex
ENCODING 265
SWIDTH 368 0
DWIDTH 13 0
BBX 17 31 1 0
BITMAP
00F000
01F000
01F800
03F800
07B800
07B800
0F3C00
0F3C00
1E3C00
1E3C00
3C1C00
181C00
000000
000000
03C000
0FE000
1FF000
3FF000
7C7000
7C7000
78F000
F86000
F80000
F80180
F80380
F80780
7C1F00
7FFE00
3FFC00
1FF800
0FE000
ENDCHAR
STARTCHAR Cdotaccent
ENCODING 266
SWIDTH 686 0
DWIDTH 25 0
BBX 27 39 2 0
BITMAP
0003C000
0007E000
0007E000
0007E000
0007E000
0003C000
00000000
00000000
000FE000
007FF800
01FFFC00
03FFFC00
07F07E00
0FC03E00
0F803E00
1F003E00
3F003E00
3E003E00
3E003E00
7C003C00
7C000000
7C000000
7C000000
FC000000
FC000000
FC000000
FC000000
FC000000
FC000000
7C000000
7E000000
7E000000
3F000040
3F8001E0
1FE00FE0
0FFFFFE0
07FFFFC0
01FFFE00
003FF000
ENDCHAR
STARTCHAR cdotaccent
ENCODING 267
SWIDTH 368 0
DWIDTH 13 0
BBX 17 25 1 0
BITMAP
01E000
03F000
03F000
03F000
03E000
01E000
000000
000000
03C000
0FE000
1FF000
3FF000
7C7000
7C7000
78F000
F86000
F80000
F80180
F80380
F80780
7C1F00
7FFE00
3FFC00
1FF800
0FE000
ENDCHAR
STARTCHAR Ccaron
ENCODING 268
SWIDTH 686 0
DWIDTH 25 0
BBX 27 42 2 0
BITMAP
001C1C00
003C1E00
001E3C00
001E7C00
000E7800
000FF000
0007E000
0007E000
00038000
00000000
00000000
000FE000
007FF800
01FFFC00
03FFFC00
07F07E00
0FC03E00
0F803E00
1F003E00
3F003E00
3E003E00
3E003E00
7C003C00
7C000000
7C000000
7C000000
FC000000
FC000000
FC000000
FC000000
FC000000
FC000000
7C000000
7E000000
7E000000
3F000040
3F8001E0
1FE00FE0
0FFFFFE0
07FFFFC0
01FFFE00
003FF000
ENDCHAR
STARTCHAR ccaron
ENCODING 269
SWIDTH 368 0
DWIDTH 13 0
BBX 17 31 1 0
BITMAP
060700
0F0F00
0F0F00
0F1E00
0F1E00
073C00
073800
07F800
07F000
03F000
03E000
01C000
000000
000000
03C000
0FE000
1FF000
3FF000
7C7000
7C7000
78F000
F86000
F80000
F80180
F80380
F80780
7C1F00
7FFE00
3FFC00
1FF800
0FE000
ENDCHAR
STARTCHAR Dcaron
ENCODING 270
SWIDTH 836 0
DWIDTH 30 0
BBX 27 42 2 0
BITMAP
00703800
00787800
00787800
003CF000
003DE000
001DE000
001FC000
000F8000
00070000
00000000
00000000
00FFC000
07FFF800
3FFFFC00
7FFFFF00
FF007F80
F8001F80
E0000FC0
808007C0
03E007E0
07C003E0
07C003E0
07C003E0
0FC003E0
0F8003E0
0F8003E0
0F8003E0
0F8003E0
1F8003E0
1F0007E0
1F0007C0
1F0007C0
1F000FC0
1F000F80
3F001F80
3E003F00
3E00FE00
3E03FC00
3FFFF800
3FFFF000
3FFFC000
0FFC0000
ENDCHAR
STARTCHAR dcaron
ENCODING 271
SWIDTH 470 0
DWIDTH 17 0
BBX 23 33 1 0
BITMAP
00001E
00001E
00011E
00079E
0007DC
000FBC
000FBC
000F98
000F80
000F80
000F00
000F00
000F00
001F00
001F00
001E00
01FE00
07FE00
0FFE00
1FFE00
3F3C00
3E3C00
7C3C00
7C3C00
787C00
F87C10
F87838
F8F870
F8F8F0
7FFFE0
7FBFC0
3F9F80
1E0F00
ENDCHAR
STARTCHAR Dcroat
ENCODING 272
SWIDTH 821 0
DWIDTH 30 0
BBX 28 31 1 0
BITMAP
007FE000
00FFF800
00FFFE00
01FFFF00
01F07F80
01F01FC0
03E00FC0
03E007E0
03E003E0
03E003F0
07C003F0
07C003F0
07C001F0
7FFF01F0
FFFF81F0
FFFF83F0
FFFF03F0
0F8003E0
0F8003E0
1F0003E0
1F0007E0
1F0007C0
1F000FC0
1F001F80
1F003F00
3F007F00
3E03FC00
3FFFF800
3FFFF000
3FFFC000
0FFC0000
ENDCHAR
STARTCHAR dcroat
ENCODING 273
SWIDTH 470 0
DWIDTH 17 0
BBX 21 31 1 0
BITMAP
000100
000780
0007C0
000F80
000F80
000F80
07FFE0
07FFE0
07FFE0
07FF80
001F00
001F00
001F00
001E00
01FE00
07FE00
0FFE00
1FFE00
3F3C00
3E3C00
7C3C00
7C3C00
787C00
F87C10
F87838
F8F870
F8F8F0
7FFFE0
7FBFC0
3F9F80
1E0F00
ENDCHAR
STARTCHAR Emacron
ENCODING 274
SWIDTH 686 0
DWIDTH 25 0
BBX 28 37 1 0
BITMAP
001FF800
003FFC00
003FFC00
001FF800
00000000
00000000
000FF000
007FFC00
01FFFE00
03FFFF00
07F03F00
0FE01F80
0FC00F80
0F800F80
0F800F80
0F800F00
0F800F00
0FC00E00
07F00000
03FF0000
01FF0000
07FF0000
0FFE0000
3FC00000
3F000000
7E000000
FC000000
FC000000
F8000000
FC000000
FC000020
7E0000F0
7F800FF0
3FFFFFF0
1FFFFFE0
07FFFF00
00FFF000
ENDCHAR
STARTCHAR emacron
ENCODING 275
SWIDTH 393 0
DWIDTH 14 0
BBX 18 23 1 0
BITMAP
0FFC00
1FFC00
1FFC00
1FFC00
000000
000000
03E000
0FF000
1FF800
3FF800
7C7800
787800
787800
F8F000
FBE000
FFC0C0
FF01C0
F807C0
7C1F80
7FFF00
3FFE00
1FFC00
07E000
ENDCHAR
STARTCHAR Ebreve
ENCODING 276
SWIDTH 686 0
DWIDTH 25 0
BBX 28 40 1 0
BITMAP
00100200
00780F00
007C1F00
007FFF00
003FFE00
001FFC00
0007F000
00000000
00000000
000FF000
007FFC00
01FFFE00
03FFFF00
07F03F00
0FE01F80
0FC00F80
0F800F80
0F800F80
0F800F00
0F800F00
0FC00E00
07F00000
03FF0000
01FF0000
07FF0000
0FFE0000
3FC00000
3F000000
7E000000
FC000000
FC000000
F8000000
FC000000
FC000020
7E0000F0
7F800FF0
3FFFFFF0
1FFFFFE0
07FFFF00
00FFF000
ENDCHAR
STARTCHAR ebreve
ENCODING 277
SWIDTH 393 0
DWIDTH 14 0
BBX 18 27 1 0
BITMAP
380300
3C0780
3C0F00
3E1F00
3FFF00
1FFE00
0FFC00
03F000
000000
000000
03E000
0FF000
1FF800
3FF800
7C7800
787800
787800
F8F000
FBE000
FFC0C0
FF01C0
F807C0
7C1F80
7FFF00
3FFE00
1FFC00
07E000
ENDCHAR
STARTCHAR Edotaccent
ENCODING 278
SWIDTH 686 0
DWIDTH 25 0
BBX 28 39 1 0
BITMAP
0001E000
0003E000
0007F000
0007F000
0007E000
0003C000
00000000
00000000
000FF000
007FFC00
01FFFE00
03FFFF00
07F03F00
0FE01F80
0FC00F80
0F800F80
0F800F80
0F800F00
0F800F00
0FC00E00
07F00000
03FF0000
01FF0000
07FF0000
0FFE0000
3FC00000
3F000000
7E000000
FC000000
FC000000
F8000000
FC000000
FC000020
7E0000F0
7F800FF0
3FFFFFF0
1FFFFFE0
07FFFF00
00FFF000
ENDCHAR
STARTCHAR edotaccent
ENCODING 279
SWIDTH 393 0
DWIDTH 14 0
BBX 18 25 1 0
BITMAP
01E000
03F000
03F000
03F000
03F000
01E000
000000
000000
03E000
0FF000
1FF800
3FF800
7C7800
787800
787800
F8F000
FBE000
FFC0C0
FF01C0
F807C0
7C1F80
7FFF00
3FFE00
1FFC00
07E000
ENDCHAR
STARTCHAR Eogonek
ENCODING 280
SWIDTH 686 0
DWIDTH 25 0
BBX 28 40 1 -9
BITMAP
000FF000
007FFC00
01FFFE00
03FFFF00
07F03F00
0FE01F80
0FC00F80
0F800F80
0F800F80
0F800F00
0F800F00
0FC00E00
07F00000
03FF0000
01FF0000
07FF0000
0FFE0000
3FC00000
3F000000
7E000000
7C000000
FC000000
F8000000
FC000000
FC000020
7E0000F0
7F800FF0
3FFFFFF0
1FFFFFC0
07FFFF00
00FFE000
000F0000
001E0000
001E0000
001E0000
001E0000
001FF800
001FF800
000FF000
0003E000
ENDCHAR
STARTCHAR eogonek
ENCODING 281
SWIDTH 393 0
DWIDTH 14 0
BBX 18 26 1 -9
BITMAP
03E000
0FF000
1FF000
3FF800
7C7800
787800
787800
F8F000
F9F000
FFE080
FF81C0
FE03C0
780F80
7E3F80
3FFF00
3FFC00
0FF000
03C000
078000
070000
070000
070000
078000
07FC00
03FC00
01F800
ENDCHAR
STARTCHAR Ecaron
ENCODING 282
SWIDTH 686 0
DWIDTH 25 0
BBX 28 42 1 0
BITMAP
001C0E00
001E1E00
001E1E00
000F3C00
000F7800
00077800
0007F000
0003E000
0001C000
00000000
00000000
000FF000
007FFC00
01FFFE00
03FFFF00
07F03F00
0FE01F80
0FC00F80
0F800F80
0F800F80
0F800F00
0F800F00
0FC00E00
07F00000
03FF0000
01FF0000
07FF0000
0FFE0000
3FC00000
3F000000
7E000000
FC000000
FC000000
F8000000
FC000000
FC000020
7E0000F0
7F800FF0
3FFFFFF0
1FFFFFE0
07FFFF00
00FFF000
ENDCHAR
STARTCHAR ecaron
ENCODING 283
SWIDTH 393 0
DWIDTH 14 0
BBX 18 31 1 0
BITMAP
070700
0F0F00
0F0F00
0F1E00
071E00
07BC00
07BC00
07F800
03F800
03F000
03E000
01C000
000000
000000
03E000
0FF000
1FF800
3FF800
7C7800
787800
787800
F8F000
FBE000
FFC0C0
FF01C0
F807C0
7C1F80
7FFF00
3FFE00
1FFC00
07E000
ENDCHAR
STARTCHAR Gcircumflex
ENCODING 284
SWIDTH 811 0
DWIDTH 29 0
BBX 31 60 2 -17
BITMAP
0001E000
0003F000
0007F000
0007F800
000F7800
001F3C00
001E3C00
003E3C00
003C3C00
00381C00
00000000
00000000
000FE000
007FF800
00FFFE00
03FFFE00
07F03F00
0FE01F00
0F801F00
1F801F00
3F001F00
3E001F00
3E001F00
7C001E00
7C000C00
7C000000
7C000000
FC000000
FC000000
FC000000
FC01FF80
FC01FF80
FC01FF80
7C01FF80
7E000F80
7E000F80
3F000F0E
3F800F1E
1FE01F7E
0FFFFFFC
07FFFFF0
01FFFFE0
003FDF80
00003F00
00007E00
0000FE00
0001FE00
0003FE00
0007BC00
000F3C00
000E3C00
001C7800
003C7800
003C7800
0038F000
003DF000
003FE000
003FE000
001FC000
000F0000
ENDCHAR
STARTCHAR gcircumflex
ENCODING 285
SWIDTH 479 0
DWIDTH 17 0
BBX 21 48 0 -17
BITMAP
001C00
003E00
007E00
007F00
00FF00
00E700
01E700
03C780
03C780
078780
078780
070380
000000
000000
00F000
03F400
07FF00
0FFF00
1F9E00
1F1E00
3E1E00
3E1E00
3C3E00
7C3E18
7C3C78
7C7CF8
7C7FF0
3FFFE0
3FFFC0
1FBF00
0F7E00
00F800
01F800
03F800
07F800
0FF000
1EF000
3CF000
38F000
79E000
71E000
F1E000
E3C000
F7C000
FF8000
FF8000
7F0000
3C0000
ENDCHAR
STARTCHAR Gbreve
ENCODING 286
SWIDTH 811 0
DWIDTH 29 0
BBX 31 57 2 -17
BITMAP
00100200
00780F00
007C1F00
007FFF00
003FFE00
001FFC00
0007F000
00000000
00000000
000FE000
007FF800
00FFFE00
03FFFE00
07F03F00
0FE01F00
0F801F00
1F801F00
3F001F00
3E001F00
3E001F00
7C001E00
7C000C00
7C000000
7C000000
FC000000
FC000000
FC000000
FC01FF80
FC01FF80
FC01FF80
7C01FF80
7E000F80
7E000F80
3F000F0E
3F800F1E
1FE01F7E
0FFFFFFC
07FFFFF0
01FFFFE0
003FDF80
00003F00
00007E00
0000FE00
0001FE00
0003FE00
0007BC00
000F3C00
000E3C00
001C7800
003C7800
003C7800
0038F000
003DF000
003FE000
003FE000
001FC000
000F0000
ENDCHAR
STARTCHAR gbreve
ENCODING 287
SWIDTH 479 0
DWIDTH 17 0
BBX 21 44 0 -17
BITMAP
0700E0
0F01E0
0F81E0
0FC3E0
07FFC0
07FF80
01FF00
00FC00
000000
000000
00F000
03F400
07FF00
0FFF00
1F9E00
1F1E00
3E1E00
3E1E00
3C3E00
7C3E18
7C3C78
7C7CF8
7C7FF0
3FFFE0
3FFFC0
1FBF00
0F7E00
00F800
01F800
03F800
07F800
0FF000
1EF000
3CF000
38F000
79E000
71E000
F1E000
E3C000
F7C000
FF8000
FF8000
7F0000
3C0000
ENDCHAR
STARTCHAR Gdotaccent
ENCODING 288
SWIDTH 811 0
DWIDTH 29 0
BBX 31 56 2 -17
BITMAP
0001E000
0003E000
0007F000
0007F000
0007E000
0003C000
00000000
00000000
000FE000
007FF800
00FFFE00
03FFFE00
07F03F00
0FE01F00
0F801F00
1F801F00
3F001F00
3E001F00
3E001F00
7C001E00
7C000C00
7C000000
7C000000
FC000000
FC000000
FC000000
FC01FF80
FC01FF80
FC01FF80
7C01FF80
7E000F80
7E000F80
3F000F0E
3F800F1E
1FE01F7E
0FFFFFFC
07FFFFF0
01FFFFE0
003FDF80
00003F00
00007E00
0000FE00
0001FE00
0003FE00
0007BC00
000F3C00
000E3C00
001C7800
003C7800
003C7800
0038F000
003DF000
003FE000
003FE000
001FC000
000F0000
ENDCHAR
STARTCHAR gdotaccent
ENCODING 289
SWIDTH 479 0
DWIDTH 17 0
BBX 21 42 0 -17
BITMAP
003C00
007C00
00FE00
00FE00
00FC00
007800
000000
000000
00F000
03F400
07FF00
0FFF00
1F9E00
1F1E00
3E1E00
3E1E00
3C3E00
7C3E18
7C3C78
7C7CF8
7C7FF0
3FFFE0
3FFFC0
1FBF00
0F7E00
00F800
01F800
03F800
07F800
0FF000
1EF000
3CF000
38F000
79E000
71E000
F1E000
E3C000
F7C000
FF8000
FF8000
7F0000
3C0000
ENDCHAR
STARTCHAR uni0122
ENCODING 290
SWIDTH 811 0
DWIDTH 29 0
BBX 31 48 2 -17
BITMAP
000FE000
007FF800
00FFFE00
03FFFE00
07F03F00
0FE01F00
0F801F00
1F801F00
3F001F00
3E001F00
3E001F00
7C001E00
7C000C00
7C000000
7C000000
FC000000
FC000000
FC000000
FC01FF80
FC01FF80
FC01FF80
7C01FF80
7E000F80
7E000F80
3F000F0E
3F800F1E
1FE01F7E
0FFFFFFC
07FFFFF0
01FFFFE0
003FDF80
00003F00
00007E00
0380FE00
07C1FE00
07C3FE00
0787BC00
078F3C00
078E3C00
031C7800
003C7800
003C7800
0038F000
003DF000
003FE000
003FE000
001FC000
000F0000
ENDCHAR
STARTCHAR uni0123
ENCODING 291
SWIDTH 479 0
DWIDTH 17 0
BBX 21 45 0 -17
BITMAP
001C00
003C00
003C00
003C00
003C00
003C00
003800
003800
003000
000000
000000
00F000
03F400
07FF00
0FFF00
1F9E00
1F1E00
3E1E00
3E1E00
3C3E00
7C3E18
7C3C78
7C7CF8
7C7FF0
3FFFE0
3FFFC0
1FBF00
0F7E00
00F800
01F800
03F800
07F800
0FF000
1EF000
3CF000
38F000
79E000
71E000
F1E000
E3C000
F7C000
FF8000
FF8000
7F0000
3C0000
ENDCHAR
STARTCHAR Hcircumflex
ENCODING 292
SWIDTH 873 0
DWIDTH 31 0
BBX 37 43 -1 0
BITMAP
00000E0000
00003F0000
00003F8000
00007F8000
0000FF8000
0000F3C000
0001F3C000
0003E3C000
0003C1E000
000181C000
0000000000
0000000780
01F0000FC0
07FC001FE0
0FFC003CE0
1FFE007CE0
3C3E0078E0
783E00F8E0
703E00F0E0
E03E01F0E0
603E01F1E0
003E01E1C0
003E03E3C0
003E03E780
003E03EF80
003C03FF00
007C0FFE00
07FFFFF800
07FFFFE000
0FFFFFC000
07FE07C000
00F807C000
00F807C000
00F807C000
00F807C000
01F007C018
01F003E038
01F003E078
01F003F0F0
03F001FFF0
03E001FFE0
03E000FF80
01C0003E00
ENDCHAR
STARTCHAR hcircumflex
ENCODING 293
SWIDTH 502 0
DWIDTH 18 0
BBX 21 46 2 0
BITMAP
007800
00FC00
01FC00
01FE00
03DE00
07CF00
078F00
0F8F00
0F0F00
0E0700
000000
000000
00E000
03F800
07F800
07F800
0F3800
0F3800
1E3800
1E3800
1E3800
3C7800
3C7000
3C7000
7CE000
78E000
79C000
7BC000
7F8000
7F1C00
FE7E00
FCFE00
FDFE00
FBFE00
F3FC00
F73C00
F73C00
FE3C00
FE7C18
FC7838
FC7878
FC7CF0
F87FE0
F87FC0
F03F80
F01E00
ENDCHAR
STARTCHAR Hbar
ENCODING 294
SWIDTH 856 0
DWIDTH 31 0
BBX 30 31 2 0
BITMAP
03C001C0
07C003E0
07C003E0
07C003E0
07C007E0
3FFFFFF8
7FFFFFFC
7FFFFFFC
3FFFFFF8
0F8007C0
0F8007C0
0F8007C0
0F800F80
7FFFFFF0
FFFFFFF8
FFFFFFF0
FFFFFFF0
1F001F80
1F001F00
1F001F00
3F001F00
3E001F00
3E001F00
3E003F00
3E003F00
3E003E00
3E003E00
3E003E00
7E003E00
3C003E00
3C001C00
ENDCHAR
STARTCHAR hbar
ENCODING 295
SWIDTH 502 0
DWIDTH 18 0
BBX 21 31 2 0
BITMAP
020000
0F8000
0F8000
0F0000
1F0000
1F0000
FFF800
FFFC00
FFFC00
7FF800
3E0000
3C0000
3C0000
7C0000
7C1C00
7C7E00
78FE00
79FE00
7BFE00
FBFC00
FF3C00
FF3C00
FE3C00
FE7C18
FC7838
FC7878
FC7CF0
F87FE0
F87FC0
F83F80
701E00
ENDCHAR
STARTCHAR Itilde
ENCODING 296
SWIDTH 495 0
DWIDTH 18 0
BBX 22 40 -1 0
BITMAP
007808
00FC3C
01FF3C
03FFF8
03CFF8
0383F0
0101E0
000000
000000
03FFF0
07FFF8
07FFF8
07FFF0
003E00
003E00
003E00
007E00
007C00
007C00
007C00
007C00
007C00
007C00
00F800
00F800
00F800
00F800
00F800
00F800
01F800
01F000
01F000
01F000
01F000
01F000
01F000
3FFF00
7FFF80
FFFF80
7FFF00
ENDCHAR
STARTCHAR itilde
ENCODING 297
SWIDTH 246 0
DWIDTH 9 0
BBX 15 26 -1 0
BITMAP
1C04
3F0E
7F9E
F7FE
F3FC
E1F8
4070
0000
0000
0700
0F80
0F00
0F00
0F00
1F00
1F00
1E00
1E00
1E0C
1E1E
1E1C
1E3C
1FF8
1FF0
0FE0
0780
ENDCHAR
STARTCHAR Imacron
ENCODING 298
SWIDTH 495 0
DWIDTH 18 0
BBX 21 37 -1 0
BITMAP
00FFE0
00FFE0
00FFE0
00FFE0
000000
000000
03FFF0
07FFF8
07FFF8
07FFF0
003E00
003E00
003E00
007E00
007C00
007C00
007C00
007C00
007C00
007C00
00F800
00F800
00F800
00F800
00F800
00F800
01F800
01F000
01F000
01F000
01F000
01F000
01F000
3FFF00
7FFF80
FFFF80
7FFF00
ENDCHAR
STARTCHAR imacron
ENCODING 299
SWIDTH 246 0
DWIDTH 9 0
BBX 14 23 0 0
BITMAP
7FE0
FFF0
FFF0
7FE0
0000
0000
0E00
1F00
1E00
1E00
1E00
3E00
3E00
3C00
3C00
3C18
3C3C
3C38
3C78
3FF0
3FE0
1FC0
0F00
ENDCHAR
STARTCHAR Ibreve
ENCODING 300
SWIDTH 495 0
DWIDTH 18 0
BBX 21 40 -1 0
BITMAP
008010
01C038
03E0F8
01FFF8
01FFF0
00FFE0
003F80
000000
000000
03FFF0
07FFF8
07FFF8
07FFF0
003E00
003E00
003E00
007E00
007C00
007C00
007C00
007C00
007C00
007C00
00F800
00F800
00F800
00F800
00F800
00F800
01F800
01F000
01F000
01F000
01F000
01F000
01F000
3FFF00
7FFF80
FFFF80
7FFF00
ENDCHAR
STARTCHAR ibreve
ENCODING 301
SWIDTH 246 0
DWIDTH 9 0
BBX 15 27 -1 0
BITMAP
700E
F01E
F81E
FC3E
7FFC
7FF8
3FF0
0FC0
0000
0000
0700
0F80
0F00
0F00
0F00
1F00
1F00
1E00
1E00
1E0C
1E1E
1E1C
1E3C
1FF8
1FF0
0FE0
0780
ENDCHAR
STARTCHAR Iogonek
ENCODING 302
SWIDTH 495 0
DWIDTH 18 0
BBX 21 40 -1 -9
BITMAP
03FFF0
07FFF8
07FFF8
07FFF0
003E00
003E00
003E00
007E00
007C00
007C00
007C00
007C00
007C00
007C00
00F800
00F800
00F800
00F800
00F800
00F800
01F800
01F000
01F000
01F000
01F000
01F000
01F000
3FFF00
7FFF80
FFFF80
7FFF00
03C000
078000
070000
070000
078000
07FC00
07FC00
03FC00
00F800
ENDCHAR
STARTCHAR iogonek
ENCODING 303
SWIDTH 246 0
DWIDTH 9 0
BBX 13 34 1 -9
BITMAP
0E00
1F00
3F80
3F80
3F00
1E00
0000
0000
1C00
3E00
3C00
3C00
3C00
7C00
7C00
7C00
7800
7830
7838
7870
78F0
7FE0
7FC0
3F80
3F00
7C00
7800
F000
F000
F000
F000
FF80
7F80
1F00
ENDCHAR
STARTCHAR Idotaccent
ENCODING 304
SWIDTH 495 0
DWIDTH 18 0
BBX 21 39 -1 0
BITMAP
000F00
001F80
001F80
003F80
001F80
000F00
000000
000000
03FFF0
07FFF8
07FFF8
07FFF0
003E00
003E00
003E00
007E00
007C00
007C00
007C00
007C00
007C00
007C00
00F800
00F800
00F800
00F800
00F800
00F800
01F800
01F000
01F000
01F000
01F000
01F000
01F000
3FFF00
7FFF80
FFFF80
7FFF00
ENDCHAR
STARTCHAR dotlessi
ENCODING 305
SWIDTH 246 0
DWIDTH 9 0
BBX 12 17 2 0
BITMAP
3800
7C00
7800
7800
7800
F800
F800
F000
F000
F060
F0F0
F0E0
F1E0
FFC0
FF80
7F00
3C00
ENDCHAR
STARTCHAR Jcircumflex
ENCODING 308
SWIDTH 743 0
DWIDTH 27 0
BBX 25 46 3 -3
BITMAP
000F0000
001F8000
003F8000
003FC000
007BC000
00F9E000
00F1E000
01F1E000
01E1E000
01C0E000
00000000
00000000
00FFF800
07FFFF00
1FFFFF80
7FFFFF00
7E003F00
F8007E00
F0007C00
F0007C00
F0007C00
F0007C00
F8007C00
F8007C00
70007C00
0000F800
0001F800
0007F800
001FF800
007FF800
00FEF000
01F9F000
03E1F000
07C1F000
0F81E000
1F03E000
1F03E000
1E03C000
3E07C000
3E078000
3E0F8000
3F1F0000
1FFE0000
1FFC0000
0FF80000
03E00000
ENDCHAR
STARTCHAR jcircumflex
ENCODING 309
SWIDTH 254 0
DWIDTH 9 0
BBX 21 48 -8 -17
BITMAP
000380
0007C0
000FC0
000FE0
001FE0
003DE0
003CE0
0078E0
0078F0
00F0F0
00F0F0
00E060
000000
000000
000E00
001F00
001E00
001E00
001E00
001E00
003E00
003E00
003E00
003E18
003C78
003CF8
003DF0
003FE0
003F80
007F00
007E00
00F800
01F800
03F800
07F800
0FF000
1EF000
3CF000
38F000
71E000
71E000
F1E000
E3C000
F7C000
FF8000
FF0000
7F0000
3C0000
ENDCHAR
STARTCHAR uni0136
ENCODING 310
SWIDTH 937 0
DWIDTH 34 0
BBX 37 41 1 -10
BITMAP
00FF800380
03FFF007C0
0FFFF00FC0
1FFFF00F80
3F03F00F80
3E07E01F80
3C07C01F00
7C07C03F00
7C07C03E00
7C07C07E00
3C07C07C00
3E07C0F800
3C07C1F000
180F87E000
000F9FC000
003FFF8000
007FFE0000
007FFC0000
003FFF0000
000FBF8000
001F1F8000
001F0FC000
001F0FC000
601F07E018
F03F07E018
F03E03F038
F87E03F8F8
FFFC01FFF0
7FFC00FFE0
3FF0007FC0
0FC0003F00
0000000000
0000000000
0000000000
0000E00000
0001E00000
0001E00000
0001E00000
0001C00000
0001C00000
0001C00000
ENDCHAR
STARTCHAR uni0137
ENCODING 311
SWIDTH 525 0
DWIDTH 19 0
BBX 22 45 2 -11
BITMAP
00E000
03F000
07F800
07F800
0F3800
0F3800
1E3800
1E3800
1E3800
3C7800
3C7000
3C7000
7CF000
78E000
79C000
7BC000
7F8000
7F1C00
FF7F00
FEFF00
FDFF00
FBFF00
F3CF00
F78F00
F70F00
FE1E00
FE7C08
FCF81C
FDF038
FCF8F8
F8FFF0
F8FFE0
787FC0
701F00
000000
000000
070000
0F0000
0F0000
0F0000
0F0000
0F0000
0E0000
0E0000
0C0000
ENDCHAR
STARTCHAR kgreenlandic
ENCODING 312
SWIDTH 465 0
DWIDTH 17 0
BBX 19 17 2 0
BITMAP
383C00
7CFE00
79FF00
7BFF00
FBCF00
FFCF00
F78F00
F78E00
FF8000
FF8060
FF80E0
FF81E0
FFC3E0
FBFFC0
F9FF80
F0FF00
707C00
ENDCHAR
STARTCHAR Lacute
ENCODING 313
SWIDTH 673 0
DWIDTH 24 0
BBX 30 42 -1 0
BITMAP
00000020
000000F0
000001F8
000003F8
000007F0
00000FE0
00001F80
00003E00
00003800
00000000
00000000
0000FE00
0007FF80
000FFFC0
001FFFC0
003F07E0
007E03E0
00FC01E0
00F801E0
00F801E0
01F803E0
01F003E0
01F001C0
01F00000
01F00000
01F00000
01F00000
01F00000
01F00000
01E00000
03E00000
03E00000
03E00000
03E00000
03E00008
1FF0001C
7FFFC07C
FFFFFFF8
FFFFFFF8
FF8FFFF0
FF03FFC0
7C007F00
ENDCHAR
STARTCHAR lacute
ENCODING 314
SWIDTH 326 0
DWIDTH 12 0
BBX 19 45 2 0
BITMAP
000040
0001E0
0003E0
0007E0
000FE0
003F80
007E00
007800
006000
000000
000000
00E000
03F000
07F800
07F800
0F3800
0F3800
1E3800
1E3800
3E3800
3C3800
3C7800
3C7800
7C7000
787000
78F000
78E000
78E000
F9C000
F9C000
FBC000
F38000
F70000
FF0000
FE0000
FE0000
FC0000
F80C00
F81C00
783C00
7C7C00
7FF800
3FF000
3FE000
0F8000
ENDCHAR
STARTCHAR uni013B
ENCODING 315
SWIDTH 673 0
DWIDTH 24 0
BBX 30 41 -1 -10
BITMAP
0000FE00
0007FF80
000FFFC0
001FFFC0
003F07E0
007E03E0
00FC01E0
00F801E0
00F801E0
01F803E0
01F003E0
01F001C0
01F00000
01F00000
01F00000
01F00000
01F00000
01F00000
01E00000
03E00000
03E00000
03E00000
03E00000
03E00008
1FF0001C
7FFFC07C
FFFFFFF8
FFFFFFF8
FF8FFFF0
FF03FFC0
7C007F00
00000000
00000000
00000000
001C0000
003E0000
003E0000
003C0000
003C0000
00380000
00380000
ENDCHAR
STARTCHAR uni013C
ENCODING 316
SWIDTH 326 0
DWIDTH 12 0
BBX 14 45 2 -11
BITMAP
00E0
03F0
07F8
07F8
0F38
0F38
1E38
1E38
3E38
3C38
3C78
3C78
7C70
7870
78F0
78E0
78E0
F9C0
F9C0
FBC0
F380
F700
FF00
FE00
FE00
FC00
F80C
F81C
783C
7C7C
7FF8
3FF0
3FE0
0F80
0000
0000
1C00
3C00
3C00
3C00
3C00
3C00
3800
3800
3000
ENDCHAR
STARTCHAR Lcaron
ENCODING 317
SWIDTH 673 0
DWIDTH 24 0
BBX 33 31 -1 0
BITMAP
0000FE0000
0007FF8780
000FFFC780
001FFFC780
003F07E780
007E03E700
00FC01E700
00F801E700
00F801E600
01F803E000
01F003E000
01F001C000
01F0000000
01F0000000
01F0000000
01F0000000
01F0000000
01F0000000
01E0000000
03E0000000
03E0000000
03E0000000
03E0000000
03E0000800
1FF0001C00
7FFFC07C00
FFFFFFF800
FFFFFFF800
FF8FFFF000
FF03FFC000
7C007F0000
ENDCHAR
STARTCHAR lcaron
ENCODING 318
SWIDTH 237 0
DWIDTH 9 0
BBX 14 33 2 0
BITMAP
0038
007C
027C
0F78
1F78
1F78
1F70
1F70
1E00
3E00
3E00
3E00
3E00
3C00
7C00
7C00
7C00
7800
7800
F800
F800
F800
F000
F000
F020
F060
F0E0
F1E0
F3C0
FFC0
FF80
7F00
3C00
ENDCHAR
STARTCHAR Ldot
ENCODING 319
SWIDTH 673 0
DWIDTH 24 0
BBX 30 31 -1 0
BITMAP
0000FE00
0007FF80
000FFFC0
001FFFC0
003F07E0
007E03E0
00FC01E0
00F801E0
00F801E0
01F803E0
01F003E0
01F001C0
01F00000
01F00000
01F07000
01F0F800
01F1FC00
01F1F800
01E1F800
03E0F000
03E00000
03E00000
03E00000
03E00008
1FF0001C
7FFFC07C
FFFFFFF8
FFFFFFF8
FF8FFFF0
FF03FFC0
7C007F00
ENDCHAR
STARTCHAR ldot
ENCODING 320
SWIDTH 363 0
DWIDTH 13 0
BBX 16 34 2 0
BITMAP
0780
0780
0F80
0F80
0F80
0F00
1F00
1F00
1F00
1E00
3E00
3E00
3E00
3E00
3CF0
7DF0
7DF8
7DF0
79F0
78E0
F800
F800
F800
F800
F000
F000
F003
F807
F80F
FC3E
FFFC
7FF8
3FF0
0FC0
ENDCHAR
STARTCHAR Lslash
ENCODING 321
SWIDTH 673 0
DWIDTH 24 0
BBX 30 37 -1 0
BITMAP
00007FC0
0007FFF0
001FFFF0
003FFFF0
003F8000
003C0000
00000000
0000FE00
0007FF80
000FFFC0
001FFFC0
003F07E0
007E03E0
00FC01E0
00F801E0
01F801E0
01F003E0
01F003E0
01F001C0
01F00000
01F00000
01F00000
01F00000
01F00000
01E00000
03E00000
03E00000
03E00000
03E00000
03E0000C
1FF0001C
7FFFC07C
FFFFFFF8
FFFFFFF8
FF8FFFF0
FF03FFC0
7C007F00
ENDCHAR
STARTCHAR lslash
ENCODING 322
SWIDTH 326 0
DWIDTH 12 0
BBX 19 37 2 0
BITMAP
007F80
03FFE0
0FFFE0
1FFFE0
1F8000
1E0000
01E000
03F000
07F800
0FF800
0F3800
1E3800
1E3800
3E3800
3C3800
3C3800
7C7800
787000
787000
78F000
F8E000
F9E000
F9C000
F38000
F78000
F70000
FF0000
FE0000
FC0000
F80C00
F81C00
783C00
7C7C00
7FF800
3FF000
1FE000
0F8000
ENDCHAR
STARTCHAR Nacute
ENCODING 323
SWIDTH 884 0
DWIDTH 32 0
BBX 36 42 0 0
BITMAP
0000001000
0000007800
000000FC00
000001F800
000003F800
000007E000
00001F8000
00001E0000
00001C0000
0000000000
0000000000
01F007E000
07F81FF000
1FF83FF800
3FF87FF800
7CF8F0FC00
7879E0FC00
F079C07C00
E07B807C00
40FB00FC00
00FF00FC00
00FE00F800
00FE00F800
00FC00F800
00FC01F800
00FC01F800
00F801F000
01F801F000
01F801F000
01F803F000
01F003E000
01F003E000
01F003E000
03F003E000
03F003E030
03E003E030
03E003E070
03E003F1F0
03E003FFE0
03E001FFC0
03E000FF80
01C0007E00
ENDCHAR
STARTCHAR nacute
ENCODING 324
SWIDTH 496 0
DWIDTH 18 0
BBX 21 30 2 0
BITMAP
000E00
000F00
001F00
001F00
003E00
003C00
007C00
007800
007000
00E000
00C000
000000
000000
383C00
7C7C00
78FE00
79FE00
FBFC00
FBFC00
F73C00
F63C00
FE7C00
FC7830
FC7878
FC7870
F879F0
F87FE0
F87FC0
F07F80
703E00
ENDCHAR
STARTCHAR uni0145
ENCODING 325
SWIDTH 884 0
DWIDTH 32 0
BBX 36 41 0 -10
BITMAP
01F007E000
07F81FF000
1FF83FF800
3FF87FF800
7CF8F0FC00
7879E0FC00
F079C07C00
E07B807C00
40FB00FC00
00FF00FC00
00FE00F800
00FE00F800
00FC00F800
00FC01F800
00FC01F800
00F801F000
01F801F000
01F801F000
01F803F000
01F003E000
01F003E000
01F003E000
03F003E000
03F003E030
03E003E030
03E003E070
03E003F1F0
03E003FFE0
03E001FFC0
03E000FF80
01C0007E00
0000000000
0000000000
0000000000
0003800000
0007800000
0007800000
0007800000
0007800000
0007000000
0007000000
ENDCHAR
STARTCHAR uni0146
ENCODING 326
SWIDTH 496 0
DWIDTH 18 0
BBX 21 28 2 -11
BITMAP
383C00
7C7C00
78FE00
79FE00
FBFC00
FBFC00
F73C00
F63C00
FE7C00
FC7830
FC7878
FC7870
F879F0
F87FE0
F87FC0
F07F80
703E00
000000
000000
070000
0F0000
0F0000
0F0000
0F0000
0F0000
0E0000
0E0000
0C0000
ENDCHAR
STARTCHAR Ncaron
ENCODING 327
SWIDTH 884 0
DWIDTH 32 0
BBX 36 42 0 0
BITMAP
0001C0E000
0001E1E000
0001E1E000
0000F3C000
0000F78000
0000778000
00007F0000
00003E0000
00001C0000
0000000000
0000000000
01F007E000
07F81FF000
1FF83FF800
3FF87FF800
7CF8F0FC00
7879E0FC00
F079C07C00
E07B807C00
40FB00FC00
00FF00FC00
00FE00F800
00FE00F800
00FC00F800
00FC01F800
00FC01F800
00F801F000
01F801F000
01F801F000
01F803F000
01F003E000
01F003E000
01F003E000
03F003E000
03F003E030
03E003E030
03E003E070
03E003F1F0
03E003FFE0
03E001FFC0
03E000FF80
01C0007E00
ENDCHAR
STARTCHAR ncaron
ENCODING 328
SWIDTH 496 0
DWIDTH 18 0
BBX 21 31 2 0
BITMAP
070380
078780
078780
078F00
078F00
039E00
039C00
03FC00
03F800
01F800
01F000
00E000
000000
000000
383C00
7C7C00
78FE00
79FE00
FBFC00
FBFC00
F73C00
F63C00
FE7C00
FC7830
FC7878
FC7870
F879F0
F87FE0
F87FC0
F07F80
703E00
ENDCHAR
STARTCHAR napostrophe
ENCODING 329
SWIDTH 496 0
DWIDTH 18 0
BBX 23 28 0 0
BITMAP
700000
F00000
F00000
F00000
F00000
F00000
E00000
E00000
C00000
000000
000000
0E0F00
1F1F00
1E3F80
1E7F80
3EFF00
3EFF00
3DCF00
3D8F00
3F9F00
3F1E0C
3F1E1E
3F1E1C
3E1E7C
3E1FF8
3E1FF0
3C1FE0
1C0F80
ENDCHAR
STARTCHAR Eng
ENCODING 330
SWIDTH 884 0
DWIDTH 32 0
BBX 36 44 0 -13
BITMAP
01E007E000
07F81FF000
1FF83FF800
3FF87FF800
3FF8FFFC00
7CF9F0FC00
F879E0FC00
F07BC07C00
E07B80FC00
40FF00F800
00FF00F800
00FE00F800
00FE00F800
00FC00F800
00FC01F000
00FC01F000
00F801F000
01F801F000
01F803F000
01F003E000
01F003E000
01F003E000
01F003E000
03F007C010
03E007C030
03E007C070
03E007E0F0
03E007FFE0
03E00FFFC0
03E00FFF80
01C00FBE00
00000F0000
00001F0000
00001F0000
00001E0000
00003E0000
01803E0000
03C03C0000
03E07C0000
03F0F80000
01FFF00000
00FFE00000
007FC00000
001F000000
ENDCHAR
STARTCHAR eng
ENCODING 331
SWIDTH 495 0
DWIDTH 18 0
BBX 21 28 1 -11
BITMAP
1C1E00
3E3E00
3C7F00
3CFE00
7DFE00
7DFE00
7B9E00
7B1E00
7F3E00
7E3C18
7E3C38
7E3C78
7C3CF8
7C7FF0
7C7FE0
787FC0
387F00
00F000
00F000
00F000
00E000
01E000
E1E000
E3C000
F38000
7F8000
7F0000
3E0000
ENDCHAR
STARTCHAR Omacron
ENCODING 332
SWIDTH 816 0
DWIDTH 29 0
BBX 27 37 2 0
BITMAP
001FF800
003FF800
003FF800
003FF800
00000000
00000000
000FE000
007FF800
01FFFE00
03FFFF00
07F03F00
0FC01F80
0F800FC0
1F000FC0
3F0007C0
3E0007C0
3E0007E0
7E0007E0
7C0007E0
7C0007E0
7C0007E0
FC0007E0
FC0007C0
FC0007C0
FC0007C0
FC0007C0
FC000F80
7C000F80
7C001F80
7E001F00
7E003E00
3F007E00
1F81FC00
1FFFF800
0FFFF000
03FFC000
00FE0000
ENDCHAR
STARTCHAR omacron
ENCODING 333
SWIDTH 451 0
DWIDTH 16 0
BBX 20 23 1 0
BITMAP
1FFC00
1FFC00
1FFC00
1FFC00
000000
000000
07E000
0FF000
1FF800
3FFC00
7CFC00
7CFC10
78FFF0
F87FF0
F87FF0
F83FC0
F83C00
F83C00
7C7800
7FF800
3FF000
1FE000
0FC000
ENDCHAR
STARTCHAR Obreve
ENCODING 334
SWIDTH 816 0
DWIDTH 29 0
BBX 27 40 2 0
BITMAP
00200200
00780F00
007C1F00
007FFE00
003FFC00
001FF800
000FE000
00000000
00000000
000FE000
007FF800
01FFFE00
03FFFF00
07F03F00
0FC01F80
0F800FC0
1F000FC0
3F0007C0
3E0007C0
3E0007E0
7E0007E0
7C0007E0
7C0007E0
7C0007E0
FC0007E0
FC0007C0
FC0007C0
FC0007C0
FC0007C0
FC000F80
7C000F80
7C001F80
7E001F00
7E003E00
3F007E00
1F81FC00
1FFFF800
0FFFF000
03FFC000
00FE0000
ENDCHAR
STARTCHAR obreve
ENCODING 335
SWIDTH 451 0
DWIDTH 16 0
BBX 20 27 1 0
BITMAP
380700
3C0700
3C0F00
3E1F00
3FFE00
1FFE00
0FFC00
03F000
000000
000000
07E000
0FF000
1FF800
3FFC00
7CFC00
7CFC10
78FFF0
F87FF0
F87FF0
F83FC0
F83C00
F83C00
7C7800
7FF800
3FF000
1FE000
0FC000
ENDCHAR
STARTCHAR Ohungarumlaut
ENCODING 336
SWIDTH 816 0
DWIDTH 29 0
BBX 27 42 2 0
BITMAP
00020400
00071E00
000F9E00
000F9E00
000F3E00
000F3C00
001E3800
001C3800
001C3000
00000000
00000000
000FE000
007FF800
01FFFE00
03FFFF00
07F03F00
0FC01F80
0F800FC0
1F000FC0
3F0007C0
3E0007C0
3E0007E0
7E0007E0
7C0007E0
7C0007E0
7C0007E0
FC0007E0
FC0007C0
FC0007C0
FC0007C0
FC0007C0
FC000F80
7C000F80
7C001F80
7E001F00
7E003E00
3F007E00
1F81FC00
1FFFF800
0FFFF000
03FFC000
00FE0000
ENDCHAR
STARTCHAR ohungarumlaut
ENCODING 337
SWIDTH 451 0
DWIDTH 16 0
BBX 20 30 1 0
BITMAP
01C300
03E780
03E780
03EF80
07CF00
078F00
079E00
071E00
0F1C00
0E3800
0C1800
000000
000000
07E000
0FF000
1FF800
3FFC00
7CFC00
7CFC10
78FFF0
F87FF0
F87FF0
F83FC0
F83C00
F83C00
7C7800
7FF800
3FF000
1FE000
0FC000
ENDCHAR
STARTCHAR OE
ENCODING 338
SWIDTH 1124 0
DWIDTH 40 0
BBX 43 31 2 0
BITMAP
000FE01FFF00
007FF83FFF80
01FFFC7FFF80
03FFFE7FFF80
07F03F7FFF00
0FC01FF80000
0F800FF80000
1F000FF80000
3F0007F80000
3E0007F00000
3E0007F00000
7E0007F00000
7C0007F00000
7C0007FFFC00
7C0007FFFC00
FC0007FFFC00
FC0007FFF800
FC0007E00000
FC0007C00000
FC0007C00000
FC000FC00000
7C000FC00000
7C001FE00000
7E001FE00000
7E003FE00060
3F007FF001E0
1F81FFFC07E0
1FFFF9FFFFC0
0FFFE0FFFF80
03FFC07FFE00
00FE000FF000
ENDCHAR
STARTCHAR oe
ENCODING 339
SWIDTH 668 0
DWIDTH 24 0
BBX 28 17 1 0
BITMAP
07C0F800
0FF3FC00
1FFFFC00
3FFFFE00
7C7F1E00
783E1E00
783E1C00
F83E3C00
F83CF800
F83FF070
F83FC0F0
F87E01F0
7C7F07E0
7FFFFFC0
3FFFFF80
1FE7FE00
0F81F800
ENDCHAR
STARTCHAR Racute
ENCODING 340
SWIDTH 880 0
DWIDTH 32 0
BBX 34 42 2 0
BITMAP
0000010000
000003C000
000007C000
00001FC000
00003F8000
00007F0000
0000FC0000
0001F00000
0000C00000
0000000000
0000000000
000FF80000
003FFE0000
00FFFF8000
03FFFFC000
07F01FC000
0FC007E000
0F0007E000
1E0E03E000
3E1F03E000
3C1F03E000
7C3F07E000
783E07C000
783E0FC000
783E1F8000
F03E3F0000
F0FFFE0000
F1FFF80000
F1FFE00000
F0FFF80000
F07DFC0000
F07CFC0000
F07C7E0000
F0F83E0000
F0F83F00C0
78F81F01C0
78F81F83C0
7CF81FC7C0
3FF80FFF80
1FF007FF00
0FF003FE00
07E001F800
ENDCHAR
STARTCHAR racute
ENCODING 341
SWIDTH 455 0
DWIDTH 16 0
BBX 19 30 2 0
BITMAP
000C00
001E00
003E00
003E00
007C00
007C00
007800
00F000
00E000
01C000
00C000
000000
000000
383C00
7C7C00
78FE00
79FC00
FBFC00
FBFC00
F73C60
F73CE0
FE3FE0
FE3FE0
FC3F80
FC1F00
F80000
F80000
F80000
F00000
700000
ENDCHAR
STARTCHAR uni0156
ENCODING 342
SWIDTH 880 0
DWIDTH 32 0
BBX 34 41 2 -10
BITMAP
000FF80000
003FFE0000
00FFFF8000
03FFFFC000
07F01FC000
0FC007E000
0F0007E000
1E0E03E000
3E1F03E000
3C1F03E000
7C3F07E000
783E07C000
783E0FC000
783E1F8000
F03E3F0000
F0FFFE0000
F1FFF80000
F1FFE00000
F0FFF80000
F07DFC0000
F07CFC0000
F07C7E0000
F0F83E0000
F0F83F00C0
78F81F01C0
78F81F83C0
7CF81FC7C0
3FF80FFF80
1FF007FF00
0FF003FE00
07E001F800
0000000000
0000000000
0000000000
0003800000
0007C00000
0007C00000
0007800000
0007800000
0007800000
0003000000
ENDCHAR
STARTCHAR uni0157
ENCODING 343
SWIDTH 455 0
DWIDTH 16 0
BBX 20 28 1 -11
BITMAP
1C1E00
3E3E00
3C7F00
3CFE00
7DFE00
7DFE00
7B9E30
7B9E70
7F1FF0
7F1FF0
7E1FC0
7E0F80
7C0000
7C0000
7C0000
780000
380000
000000
000000
700000
780000
780000
780000
700000
F00000
F00000
E00000
600000
ENDCHAR
STARTCHAR Rcaron
ENCODING 344
SWIDTH 880 0
DWIDTH 32 0
BBX 34 42 2 0
BITMAP
000E060000
000E0F0000
000F1E0000
000F1E0000
0007BC0000
0007F80000
0003F00000
0003F00000
0001E00000
0000000000
0000000000
000FF80000
003FFE0000
00FFFF8000
03FFFFC000
07F01FC000
0FC007E000
0F0007E000
1E0E03E000
3E1F03E000
3C1F03E000
7C3F07E000
783E07C000
783E0FC000
783E1F8000
F03E3F0000
F0FFFE0000
F1FFF80000
F1FFE00000
F0FFF80000
F07DFC0000
F07CFC0000
F07C7E0000
F0F83E0000
F0F83F00C0
78F81F01C0
78F81F83C0
7CF81FC7C0
3FF80FFF80
1FF007FF00
0FF003FE00
07E001F800
ENDCHAR
STARTCHAR rcaron
ENCODING 345
SWIDTH 455 0
DWIDTH 16 0
BBX 19 31 2 0
BITMAP
060700
0F0F00
0F0F00
0F1E00
071E00
07BC00
07BC00
07F800
03F000
03F000
03E000
01C000
000000
000000
383C00
7C7C00
78FE00
79FC00
FBFC00
FBFC00
F73C60
F73CE0
FE3FE0
FE3FE0
FC3F80
FC1F00
F80000
F80000
F80000
F00000
700000
ENDCHAR
STARTCHAR Sacute
ENCODING 346
SWIDTH 693 0
DWIDTH 25 0
BBX 24 42 1 0
BITMAP
000004
00000F
00003F
00007F
0000FE
0001FC
0003F0
0007C0
000300
000000
000000
003FC0
01FFF8
03FFFC
07FFFE
0FE07E
1F801F
1F001F
1F001F
1F001F
1F001F
1F801E
1FC00C
0FE000
0FFC00
07FF00
01FFC0
00FFF0
001FF8
0007FC
2001FC
78007C
F8007E
F8003E
F8003E
F8007C
F8007C
7E01F8
7FFFF8
3FFFF0
0FFFC0
03FE00
ENDCHAR
STARTCHAR sacute
ENCODING 347
SWIDTH 427 0
DWIDTH 15 0
BBX 20 31 0 -1
BITMAP
000600
000F00
001F00
001F00
003E00
003C00
003C00
007800
007000
00E000
006000
000000
000000
00E000
01E000
03E000
03C000
07C000
07C000
0FE000
0FF000
1FF000
1CF830
3CFC70
787CF0
F07DF0
E7FFE0
E7FFC0
07FF80
07FE00
03E000
ENDCHAR
STARTCHAR Scircumflex
ENCODING 348
SWIDTH 693 0
DWIDTH 25 0
BBX 24 43 1 0
BITMAP
0003C0
0007C0
000FE0
001FE0
001EF0
003CF0
007CF0
007878
00F878
007070
000000
000000
003FC0
01FFF8
03FFFC
07FFFE
0FE07E
1F801F
1F001F
1F001F
1F001F
1F001F
1F801E
1FC00C
0FE000
0FFC00
07FF00
01FFC0
00FFF0
001FF8
0007FC
2001FC
78007C
F8007E
F8003E
F8003E
F8007C
F8007C
7E01F8
7FFFF8
3FFFF0
0FFFC0
03FE00
ENDCHAR
STARTCHAR scircumflex
ENCODING 349
SWIDTH 427 0
DWIDTH 15 0
BBX 20 32 0 -1
BITMAP
007800
00F800
00FC00
01FC00
01DC00
03DE00
079E00
079E00
0F1E00
0F1E00
1E0F00
0E0E00
000000
000000
00E000
01E000
03E000
03C000
07C000
07C000
0FE000
0FF000
1FF000
1CF830
3CFC70
787CF0
F07DF0
E7FFE0
E7FFC0
07FF80
07FE00
03E000
ENDCHAR
STARTCHAR Scedilla
ENCODING 350
SWIDTH 693 0
DWIDTH 25 0
BBX 24 40 1 -9
BITMAP
003FC0
01FFF8
03FFFC
07FFFE
0FE07E
1F801F
1F001F
1F001F
1F001F
1F001F
1F801E
1FC00C
0FE000
0FFC00
07FF00
01FFC0
007FF0
001FF8
0007FC
2001FC
78007C
F8007E
F8003E
F8003E
F8007C
FC00FC
7E01F8
7FFFF8
3FFFF0
0FFFC0
03FE00
01FC00
003E00
001E00
001E00
003E00
07FC00
0FFC00
0FF800
07E000
ENDCHAR
STARTCHAR scedilla
ENCODING 351
SWIDTH 427 0
DWIDTH 15 0
BBX 20 27 0 -10
BITMAP
00E000
01E000
03E000
03C000
07C000
07C000
0FE000
0FF000
1FF000
1CF830
3CFC70
787CF0
F07DF0
E7FFE0
E7FFC0
07FF80
0FFE00
0FE000
0FF000
00F000
007000
007000
00F000
3FF000
3FE000
3FC000
1F0000
ENDCHAR
STARTCHAR Scaron
ENCODING 352
SWIDTH 693 0
DWIDTH 25 0
BBX 24 42 1 0
BITMAP
003838
00783C
003C78
003CF8
001CF0
001FE0
000FC0
000FC0
000700
000000
000000
003FC0
01FFF8
03FFFC
07FFFE
0FE07E
1F801F
1F001F
1F001F
1F001F
1F001F
1F801E
1FC00C
0FE000
0FFC00
07FF00
01FFC0
00FFF0
001FF8
0007FC
2001FC
78007C
F8007E
F8003E
F8003E
F8007C
F8007C
7E01F8
7FFFF8
3FFFF0
0FFFC0
03FE00
ENDCHAR
STARTCHAR scaron
ENCODING 353
SWIDTH 427 0
DWIDTH 15 0
BBX 20 32 0 -1
BITMAP
030380
078780
078780
078F00
038F00
039E00
03DE00
03FC00
01F800
01F800
01F000
00E000
000000
000000
00E000
01E000
03E000
03C000
07C000
07C000
0FE000
0FF000
1FF000
1CF830
3CFC70
787CF0
F07DF0
E7FFE0
E7FFC0
07FF80
07FE00
03E000
ENDCHAR
STARTCHAR uni0162
ENCODING 354
SWIDTH 697 0
DWIDTH 25 0
BBX 32 40 1 -9
BITMAP
003FFFFC
03FFFFFE
0FFFFFFF
3FFFFFFE
7F03E000
7C07E000
F807C000
F807C000
F807C000
F807C000
780FC000
780F8000
300F8000
000F8000
000F8000
000F8000
001F8000
001F0000
001F0000
001F0000
001F0000
001F0000
003F0000
003F0000
003E0000
003E0000
003E0000
003E0000
003E0000
00FE0000
00FE0000
00FF0000
000F0000
00070000
00070000
000F0000
03FF0000
03FE0000
03FC0000
01F00000
ENDCHAR
STARTCHAR uni0163
ENCODING 355
SWIDTH 393 0
DWIDTH 14 0
BBX 19 42 0 -10
BITMAP
001C00
007E00
00FE00
00FF00
01EF00
03CF00
03CF00
038E00
078E00
078E00
079C00
0F9C00
0F3800
0F7800
0FF000
FFFF00
FFFF00
FFFF00
FFFE00
1F0000
1F0000
1F0000
1F0000
1F0000
1F0040
1F00E0
0F01E0
0F83E0
0FEFC0
07FF80
07FF00
07FC00
0FF000
07F000
007800
007800
007800
00F800
1FF000
3FF000
3FE000
1F8000
ENDCHAR
STARTCHAR Tcaron
ENCODING 356
SWIDTH 697 0
DWIDTH 25 0
BBX 32 42 1 0
BITMAP
00060700
000F0F00
000F0F00
00079E00
00079E00
0003FC00
0003F800
0001F000
0000E000
00000000
00000000
001FFFFC
03FFFFFE
0FFFFFFF
3FFFFFFE
7F03E000
7C07E000
F807C000
F807C000
F807C000
F807C000
780FC000
780FC000
300F8000
000F8000
000F8000
000F8000
001F8000
001F0000
001F0000
001F0000
001F0000
001F0000
001F0000
003F0000
003E0000
003E0000
003E0000
003E0000
003E0000
003E0000
001C0000
ENDCHAR
STARTCHAR tcaron
ENCODING 357
SWIDTH 343 0
DWIDTH 12 0
BBX 17 33 0 0
BITMAP
000700
000F80
000F80
000F00
000F00
01CF00
03EE00
03CE00
07C000
07C000
07C000
078000
0F8000
0F8000
0F8000
7FFC00
FFFC00
FFFC00
7FF800
1F0000
1F0000
1E0000
1E0000
1E0000
3E0000
3E0180
3E0380
1E0780
1F0F00
1FFF00
0FFE00
0FF800
03E000
ENDCHAR
STARTCHAR Tbar
ENCODING 358
SWIDTH 697 0
DWIDTH 25 0
BBX 32 31 1 0
BITMAP
001FFFFC
03FFFFFE
0FFFFFFF
3FFFFFFE
7F03E000
7C07E000
F807C000
F807C000
F807C000
F807C000
F807C000
780FC000
380F8000
000F8000
03FFFC00
03FFFE00
03FFFE00
03FFFC00
001F0000
001F0000
001F0000
001F0000
001F0000
003F0000
003F0000
003E0000
003E0000
003E0000
003E0000
003E0000
001C0000
ENDCHAR
STARTCHAR tbar
ENCODING 359
SWIDTH 343 0
DWIDTH 12 0
BBX 17 28 0 0
BITMAP
01C000
03E000
03C000
07C000
07C000
07C000
078000
0F8000
0F8000
0F8000
7FFC00
FFFC00
FFFC00
7FF800
1F0000
1F0000
FFF800
FFF800
FFF800
FFF000
3E0180
3E0380
1E0780
1F0F00
1FFF00
1FFE00
0FF800
03F000
ENDCHAR
STARTCHAR Utilde
ENCODING 360
SWIDTH 890 0
DWIDTH 32 0
BBX 37 40 0 0
BITMAP
0001E02000
0003F0F000
0007FCF000
0007FFE000
000F3FE000
000E0FC000
0004078000
0000000000
0000000000
01F0003800
0FF8007C00
1FFC007C00
3FFC007C00
7C7C007C00
787C007C00
F07C00FC00
E07C00FC00
407C00F800
007C00F800
00FC00F800
00F801F800
00F801F800
00F801F800
00F801F000
01F803F000
01F003F000
01F007F000
01F007F000
01F007F000
03E00FF000
03E00DE000
03E01FE010
03E03BE038
03E07BE038
03F1F3E070
03FFF3F1F0
03FFE1FFE0
01FFC1FFC0
00FF80FF80
007E007E00
ENDCHAR
STARTCHAR utilde
ENCODING 361
SWIDTH 462 0
DWIDTH 17 0
BBX 19 26 2 0
BITMAP
0F0100
1F8380
3FE780
3FFF00
78FF00
787E00
201C00
000000
000000
3C1C00
7C3C00
783C00
787800
787800
F87800
F8F800
F0F800
F1F000
F1F060
F3F0E0
F3F1E0
FFF3E0
FEFFC0
FEFF80
7C7F00
387C00
ENDCHAR
STARTCHAR Umacron
ENCODING 362
SWIDTH 890 0
DWIDTH 32 0
BBX 37 37 0 0
BITMAP
0003FF8000
0003FF8000
0003FF8000
0003FF8000
0000000000
0000000000
01F0003800
0FF8007C00
1FFC007C00
3FFC007C00
7C7C007C00
787C007C00
F07C00FC00
E07C00FC00
407C00F800
007C00F800
00FC00F800
00F801F800
00F801F800
00F801F800
00F801F000
01F803F000
01F003F000
01F007F000
01F007F000
01F007F000
03E00FF000
03E00DE000
03E01FE010
03E03BE038
03E07BE038
03F1F3E070
03FFF3F1F0
03FFE1FFE0
01FFC1FFC0
00FF80FF80
007E007E00
ENDCHAR
STARTCHAR umacron
ENCODING 363
SWIDTH 462 0
DWIDTH 17 0
BBX 19 23 2 0
BITMAP
0FFC00
1FFC00
1FFC00
1FFC00
000000
000000
3C1C00
7C3C00
783C00
787800
787800
F87800
F8F800
F0F800
F1F000
F1F060
F3F0E0
F3F1E0
FFF3E0
FEFFC0
FEFF80
7C7F00
387C00
ENDCHAR
STARTCHAR Ubreve
ENCODING 364
SWIDTH 890 0
DWIDTH 32 0
BBX 37 40 0 0
BITMAP
0002004000
000700E000
000F81E000
0007FFE000
0007FFC000
0003FF8000
0000FE0000
0000000000
0000000000
01F0003800
0FF8007C00
1FFC007C00
3FFC007C00
7C7C007C00
787C007C00
F07C00FC00
E07C00FC00
407C00F800
007C00F800
00FC00F800
00F801F800
00F801F800
00F801F800
00F801F000
01F803F000
01F003F000
01F007F000
01F007F000
01F007F000
03E00FF000
03E00DE000
03E01FE010
03E03BE038
03E07BE038
03F1F3E070
03FFF3F1F0
03FFE1FFE0
01FFC1FFC0
00FF80FF80
007E007E00
ENDCHAR
STARTCHAR ubreve
ENCODING 365
SWIDTH 462 0
DWIDTH 17 0
BBX 19 27 2 0
BITMAP
380300
3C0780
3C0F00
3E1F00
3FFF00
1FFE00
0FFC00
03F000
000000
000000
3C1C00
7C3C00
783C00
787800
787800
F87800
F8F800
F0F800
F1F000
F1F060
F3F0E0
F3F1E0
FFF3E0
FEFFC0
FEFF80
7C7F00
387C00
ENDCHAR
STARTCHAR Uring
ENCODING 366
SWIDTH 890 0
DWIDTH 32 0
BBX 37 43 0 0
BITMAP
00003C0000
00007F0000
0000FF0000
0001E78000
0001E38000
0001C38000
0001E78000
0000FF0000
0000FF0000
00003C0000
0000000000
0000000000
01F0003800
0FF8007C00
1FFC007C00
3FFC007C00
7C7C007C00
787C007C00
F07C00FC00
E07C00FC00
407C00F800
007C00F800
00FC00F800
00F801F800
00F801F800
00F801F800
00F801F000
01F803F000
01F003F000
01F007F000
01F007F000
01F007F000
03E00FF000
03E00DE000
03E01FE010
03E03BE038
03E07BE038
03F1F3E070
03FFF3F1F0
03FFE1FFE0
01FFC1FFC0
00FF80FF80
007E007E00
ENDCHAR
STARTCHAR uring
ENCODING 367
SWIDTH 462 0
DWIDTH 17 0
BBX 19 29 2 0
BITMAP
01F000
03F800
07FC00
073C00
0F1C00
0F1C00
0F3C00
07F800
07F800
01E000
000000
000000
3C1C00
7C3C00
783C00
787800
787800
F87800
F8F800
F0F800
F1F000
F1F060
F3F0E0
F3F1E0
FFF3E0
FEFFC0
FEFF80
7C7F00
387C00
ENDCHAR
STARTCHAR Uhungarumlaut
ENCODING 368
SWIDTH 890 0
DWIDTH 32 0
BBX 37 42 0 0
BITMAP
0000208000
000071E000
0000F9E000
0000F1E000
0000F3E000
0001E3C000
0001E38000
0001C78000
0001830000
0000000000
0000000000
01F0003800
0FF8007C00
1FFC007C00
3FFC007C00
7C7C007C00
787C007C00
F07C00FC00
E07C00FC00
407C00F800
007C00F800
00FC00F800
00F801F800
00F801F800
00F801F800
00F801F000
01F803F000
01F003F000
01F007F000
01F007F000
01F007F000
03E00FF000
03E00DE000
03E01FE010
03E03BE038
03E07BE038
03F1F3E070
03FFF3F1F0
03FFE1FFE0
01FFC1FFC0
00FF80FF80
007E007E00
ENDCHAR
STARTCHAR uhungarumlaut
ENCODING 369
SWIDTH 462 0
DWIDTH 17 0
BBX 19 30 2 0
BITMAP
01C300
01E780
03E780
03EF80
03CF80
078F00
078E00
071E00
0F1C00
0E1C00
0C1800
000000
000000
3C1C00
7C3C00
783C00
787800
787800
F87800
F8F800
F0F800
F1F000
F1F060
F3F0E0
F3F1E0
FFF3E0
FEFFC0
FEFF80
7C7F00
387C00
ENDCHAR
STARTCHAR Uogonek
ENCODING 370
SWIDTH 890 0
DWIDTH 32 0
BBX 37 40 0 -9
BITMAP
01F0003800
0FF8007C00
1FFC007C00
3FFC007C00
7C7C007C00
787C007C00
F07C00FC00
E07C00FC00
407C00F800
007C00F800
00FC00F800
00F801F800
00F801F800
00F801F800
00F801F000
01F803F000
01F003F000
01F007F000
01F007F000
01F007F000
03E00FF000
03E00DE000
03E01FE010
03E03BE038
03E07BE078
03F1F3F0F0
03FFF3FFF0
03FFE1FFE0
01FFC1FFC0
00FF80FF00
007E003E00
0000003C00
0000003800
0000007800
0000007800
0000007800
0000007FE0
0000003FE0
0000003FC0
0000000F80
ENDCHAR
STARTCHAR uogonek
ENCODING 371
SWIDTH 462 0
DWIDTH 17 0
BBX 19 26 2 -9
BITMAP
3C1C00
7C3C00
783C00
787800
787800
F87800
F8F800
F0F800
F1F000
F1F060
F3F0E0
F3F1E0
FFF3E0
FEFFC0
FEFF80
7C7F00
387E00
00F800
01F000
01E000
01C000
01C000
01E100
01FF00
00FF00
007E00
ENDCHAR
STARTCHAR Wcircumflex
ENCODING 372
SWIDTH 1217 0
DWIDTH 44 0
BBX 45 43 4 0
BITMAP
000007000000
00001F800000
00001FC00000
00003FC00000
00007DE00000
000079E00000
0000F9E00000
0001F1F00000
0001E0F00000
0000E0E00000
000000000000
000000007C00
3C001E00FE00
3E003E01FF00
7E003E03FF00
7C003E03CF80
7C003E038F80
7C003E078F80
7C007E078F80
7C007E078F80
7C007E078F80
7C007E078F00
FC00FC078F00
FC00FC03CF00
FC00FC03DF00
F800FC03FF00
F801FC01FE00
F801FC00FFF8
F801FC007FF8
F803FC007FF8
F803FC007FF0
7C03FC00F800
7C07BE00F800
7C07BE01F000
7C0F3E03E000
7C1F1E03E000
7E1E1F07C000
3E3E1F1F8000
3FFC1FFF0000
3FF80FFE0000
1FF80FFC0000
0FE007F80000
07C003E00000
ENDCHAR
STARTCHAR wcircumflex
ENCODING 373
SWIDTH 700 0
DWIDTH 25 0
BBX 28 31 2 0
BITMAP
000E0000
003F0000
003F0000
007F0000
00770000
00F78000
00E78000
01E78000
03E78000
03C3C000
03C3C000
03838000
00000000
00000000
F0381C00
F0787E00
F0787E00
F0F8FE00
F0F8FE00
F0F8FC20
F1F87FF0
F1F87FF0
F3F8FFF0
F3F9FFC0
F7BDE000
FFBFE000
FF3FC000
FF3F8000
7E3F8000
7E3F0000
381E0000
ENDCHAR
STARTCHAR Ycircumflex
ENCODING 374
SWIDTH 851 0
DWIDTH 31 0
BBX 35 54 0 -11
BITMAP
00001E0000
00003F0000
00007F0000
00007F8000
0000F78000
0001F78000
0001E3C000
0003E3C000
0003C3C000
000381C000
0000000000
0000000000
01F0003800
0FF8007C00
1FFC007C00
3FFC007C00
7C7C007C00
787C007C00
F07C00FC00
E07C00FC00
407C00F800
007C00F800
00FC00F800
00F801F800
00F801F800
00F801F800
00F803F000
01F803F000
01F007F000
01F007F000
01F00FF000
01F01DF000
01F03DF000
01F879E000
01FFF1E1C0
00FFE3FFE0
007FC3FFC0
001F0FFFC0
00003FF800
0000FFE000
0003FFC000
0007E3C000
000F87C000
001F07C000
003C07C000
007C078000
00780F8000
00780F0000
00781F0000
007C3E0000
007FFE0000
007FFC0000
003FF00000
000FC00000
ENDCHAR
STARTCHAR ycircumflex
ENCODING 375
SWIDTH 479 0
DWIDTH 17 0
BBX 21 48 0 -17
BITMAP
001C00
007E00
007E00
00FE00
00EE00
01EF00
03CF00
03CF00
078F00
078780
0F0780
070700
000000
000000
0F0700
1F0F00
1E0F00
1E1E00
1E1E00
3E1E00
3E3E00
3C3E00
3C7E00
3C7E18
3CFC38
3CFCF8
3FFDF8
3FFFE0
3FBFC0
1F3F00
0E7E00
00F800
01F800
03F800
07F800
0FF000
1EF000
3CF000
38F000
71E000
F1E000
F1E000
E3C000
F7C000
FF8000
FF0000
7F0000
3C0000
ENDCHAR
STARTCHAR Ydieresis
ENCODING 376
SWIDTH 851 0
DWIDTH 31 0
BBX 35 50 0 -11
BITMAP
0001C1C000
0003E3E000
0003E7E000
0003E7E000
0003E3C000
0001C3C000
0000000000
0000000000
01F0003800
0FF8007C00
1FFC007C00
3FFC007C00
7C7C007C00
787C007C00
F07C00FC00
E07C00FC00
407C00F800
007C00F800
00FC00F800
00F801F800
00F801F800
00F801F800
00F803F000
01F803F000
01F007F000
01F007F000
01F00FF000
01F01DF000
01F03DF000
01F879E000
01FFF1E1C0
00FFE3FFE0
007FC3FFC0
001F0FFFC0
00003FF800
0000FFE000
0003FFC000
0007E3C000
000F87C000
001F07C000
003C07C000
007C078000
00780F8000
00780F0000
00781F0000
007C3E0000
007FFE0000
007FFC0000
003FF00000
000FC00000
ENDCHAR
STARTCHAR Zacute
ENCODING 377
SWIDTH 721 0
DWIDTH 26 0
BBX 30 42 1 0
BITMAP
00000200
00000700
00001F80
00003F80
00007F00
0000FE00
0001F800
0003E000
00038000
00000000
00000000
007FF800
03FFFFC0
0FFFFFE0
1FFFFFE0
3F000FE0
3C001F80
7C001F00
78003F00
78007E00
7C007C00
7C00FC00
3C00F800
1C01F800
0003F000
0003E000
0007E000
000FC000
000F8000
001F8000
003F0000
003E0000
007E0000
00FC0000
01F80008
3FF8003C
7FFF80FC
FFFFFFF8
FFFFFFF0
FF8FFFE0
FF03FFC0
7C007F00
ENDCHAR
STARTCHAR zacute
ENCODING 378
SWIDTH 445 0
DWIDTH 16 0
BBX 19 30 2 0
BITMAP
001C00
001E00
003E00
003E00
007C00
007800
00F800
00F000
00E000
01C000
018000
000000
000000
7FFE00
FFFE00
FFFE00
7FFE00
03FC00
07E000
1F8000
3F0000
7C0000
7C00E0
F801E0
F803C0
FC0FC0
7FFF80
7FFF00
3FFC00
0FF000
ENDCHAR
STARTCHAR Zdotaccent
ENCODING 379
SWIDTH 721 0
DWIDTH 26 0
BBX 30 39 1 0
BITMAP
0003C000
0007E000
0007E000
000FE000
0007E000
0003C000
00000000
00000000
007FF800
03FFFFC0
0FFFFFE0
1FFFFFE0
3F000FE0
3C001F80
7C001F00
78003F00
78007E00
7C007C00
7C00FC00
3C00F800
1C01F800
0003F000
0003E000
0007E000
000FC000
000F8000
001F8000
003F0000
003E0000
007E0000
00FC0000
01F80008
3FF8003C
7FFF80FC
FFFFFFF8
FFFFFFF0
FF8FFFE0
FF03FFC0
7C007F00
ENDCHAR
STARTCHAR zdotaccent
ENCODING 380
SWIDTH 445 0
DWIDTH 16 0
BBX 19 25 2 0
BITMAP
01E000
03F000
07F000
07F000
03E000
03C000
000000
000000
7FFE00
FFFE00
FFFE00
7FFE00
03FC00
07E000
1F8000
3F0000
7C0000
7C00E0
F801E0
F803C0
FC0FC0
7FFF80
7FFF00
3FFC00
0FF000
ENDCHAR
STARTCHAR Zcaron
ENCODING 381
SWIDTH 721 0
DWIDTH 26 0
BBX 30 42 1 0
BITMAP
001C1C00
003C1E00
001E3C00
001E7800
000E7800
000FF000
0007E000
0007E000
00038000
00000000
00000000
007FF800
03FFFFC0
0FFFFFE0
1FFFFFE0
3F000FE0
3C001F80
7C001F00
78003F00
78007E00
7C007C00
7C00FC00
3C00F800
1C01F800
0003F000
0003E000
0007E000
000FC000
000F8000
001F8000
003F0000
003E0000
007E0000
00FC0000
01F80008
3FF8003C
7FFF80FC
FFFFFFF8
FFFFFFF0
FF8FFFE0
FF03FFC0
7C007F00
ENDCHAR
STARTCHAR zcaron
ENCODING 382
SWIDTH 445 0
DWIDTH 16 0
BBX 19 31 2 0
BITMAP
0E0700
0F0F00
0F0F00
0F1E00
0F1E00
073C00
073800
07F800
07F000
03F000
03E000
01C000
000000
000000
7FFE00
FFFE00
FFFE00
7FFE00
03FC00
07E000
1F8000
3F0000
7C0000
7C00E0
F801E0
F803C0
FC0FC0
7FFF80
7FFF00
3FFC00
0FF000
ENDCHAR
STARTCHAR uni018F
ENCODING 399
SWIDTH 792 0
DWIDTH 29 0
BBX 26 31 2 0
BITMAP
003FC000
01FFF000
07FFFC00
0FFFFE00
1FC0FE00
1F003F00
1E001F80
18001F80
00000F80
00000FC0
00000FC0
00000FC0
000007C0
000007C0
00000FC0
3FFFFFC0
7FFFFFC0
FFFFFF80
FFFFFF80
F8000F80
F8001F80
FC001F00
FC001F00
7C003E00
7E007E00
3F00FC00
3F81F800
1FFFF000
0FFFE000
07FF8000
00FE0000
ENDCHAR
STARTCHAR florin
ENCODING 402
SWIDTH 478 0
DWIDTH 17 0
BBX 21 39 -2 -11
BITMAP
0001F0
0007F8
001FF8
001FF8
003F00
003E00
003C00
003C00
007C00
007C00
007C00
007C00
0FFFF0
1FFFF0
1FFFE0
0FFFC0
007800
00F800
00F800
00F800
00F800
00F800
00F000
00F000
00F000
01F000
01F000
01F000
01F000
01F000
01E000
01E000
03E000
03E000
07E000
FFC000
FFC000
FF0000
FC0000
ENDCHAR
STARTCHAR Ohorn
ENCODING 416
SWIDTH 816 0
DWIDTH 29 0
BBX 29 37 2 0
BITMAP
00000020
00000078
00000078
000000F8
000000F8
000001F0
000FFFF0
007FFFE0
01FFFFC0
03FFFF80
07F03F80
0FC01F80
0F800FC0
1F000FC0
3F0007C0
3E0007E0
3E0007E0
7E0007E0
7C0007E0
7C0007E0
7C0007E0
FC0007E0
FC0007C0
FC0007C0
FC0007C0
FC0007C0
FC000F80
7C000F80
7C001F80
7E001F00
7E003E00
3F007E00
1F81FC00
1FFFF800
0FFFF000
03FFC000
00FE0000
ENDCHAR
STARTCHAR ohorn
ENCODING 417
SWIDTH 451 0
DWIDTH 16 0
BBX 20 22 1 0
BITMAP
000380
000380
000780
000780
000F80
07FF00
0FFF00
1FFC00
3FFC00
7CFC00
7CFC10
78FFF0
F87FF0
F87FF0
F83FC0
F83C00
F83C00
7C7800
7FF800
3FF000
1FE000
0FC000
ENDCHAR
STARTCHAR Uhorn
ENCODING 431
SWIDTH 890 0
DWIDTH 32 0
BBX 37 37 0 0
BITMAP
0000000040
00000000E0
00000000F0
00000001F0
00000001E0
00000003E0
01F0003FE0
0FF8007FC0
1FFC007F80
3FFC007F00
7C7C007C00
787C007C00
F07C00FC00
E07C00FC00
407C00F800
007C00F800
00FC00F800
00F801F800
00F801F800
00F801F800
00F801F000
01F803F000
01F003F000
01F007F000
01F007F000
01F007F000
03E00FF000
03E00DE000
03E01FE010
03E03BE038
03E07BE038
03F1F3E070
03FFF3F1F0
03FFE1FFE0
01FFC1FFC0
00FF80FF80
007E007E00
ENDCHAR
STARTCHAR uhorn
ENCODING 432
SWIDTH 512 0
DWIDTH 18 0
BBX 21 22 2 0
BITMAP
0001C0
0001C0
0001C0
0003C0
0003C0
3C1FC0
7C3F80
783F00
787C00
787800
F87800
F8F800
F0F800
F1F000
F1F018
F3F038
F3F078
FFF0F8
FEFFF0
FEFFE0
7C7F80
383E00
ENDCHAR
STARTCHAR uni01C4
ENCODING 452
SWIDTH 1531 0
DWIDTH 55 0
BBX 57 42 3 0
BITMAP
0000000003818000
000000000383C000
0000000003C78000
0000000003CF8000
0000000001CF0000
0000000001FE0000
0000000000FC0000
0000000000FC0000
0000000000780000
0000000000000000
0000000000000000
01FF00000FFF0000
0FFFE0007FFFF800
1FFFF801FFFFFC00
1FFFFC03FFFFFC00
1E01FE07F001FC00
00007E07C003F000
00003F0F8003E000
02001F0F8007E000
0F801F8F8007C000
1F000F8F800F8000
1F000F87801F8000
1F000F87801F0000
1F000F83803F0000
3E000F80007E0000
3E000F80007C0000
3E000F8000FC0000
3E000F8000F80000
7E000F8001F00000
7C001F8003F00000
7C001F8007E00000
7C001F0007C00000
7C003F000FC00000
7C003E001F800000
FC007E003F000100
FC00FC03FF000380
F803F80FFFF00F80
F80FF01FFFFFFF00
FFFFE01FFFFFFE00
FFFFC01FF1FFFC00
FFFE001FE07FF800
3FF0000F800FE000
ENDCHAR
STARTCHAR uni01C5
ENCODING 453
SWIDTH 1191 0
DWIDTH 43 0
BBX 42 31 3 0
BITMAP
01FF0001C1C0
0FFFE003C3C0
1FFFF803C3C0
1FFFFC01C7C0
1E01FE01E780
00007E01E700
00003F01EF00
02001F00EE00
0F801F80FE00
1F000F80FC00
1F000F80FC00
1F000F807000
1F000F800000
3E000F800000
3E000F9FFF00
3E000F9FFF80
3E000F9FFF80
7E000F9FFF00
7C001F807E00
7C001F81F800
7C001F03F000
7C003F07E000
7C003E0FC000
FC007E0F8000
FC00FC1F0000
F803F83E0000
F80FF03C0000
FFFFE07FFF00
FFFFC07FFF80
FFFE007FFF80
3FF0007FFF00
ENDCHAR
STARTCHAR uni01C6
ENCODING 454
SWIDTH 895 0
DWIDTH 32 0
BBX 36 31 1 0
BITMAP
0000030380
0003878780
0007C78780
0007878F00
000F838F00
000F83DE00
000F83DE00
000F83FC00
000F01F800
000F01F800
001F01F000
001F00E000
001F000000
001E000000
01FE3FFF00
07FE7FFF00
0FFE7FFF00
1FFE3FFF00
3F3C00FE00
3E3C03F800
7C3C0FE000
7C3C1F8000
787C3F0000
F87C3E0030
F8783C0070
F8F87E01F0
F8F8FE07E0
7FFFFFFFC0
7FBFFFFF80
3F9F9FFF00
1E0E03F800
ENDCHAR
STARTCHAR uni01C7
ENCODING 455
SWIDTH 1276 0
DWIDTH 46 0
BBX 48 35 -1 -4
BITMAP
0001FC001FF0
0007FE00FFFE
001FFF01FFFF
003FFF83FFFF
003F0FC7E07E
007C07CF807C
00FC07CF007C
00F807CF00FC
00F807CF00F8
01F807CF00F8
01F0078F80F8
01F0078F80F8
01F0000780F8
01F0000200F8
01F0000001F8
01F0000007F0
01F000001FF0
01F000007FF0
01E00000FFF0
03E00003FDE0
03E00007F1E0
03E0000FC3E0
03E0001F83E0
03E0001F03C0
1FF0003E07C0
7FFFC07E07C0
FFFFFFFC0780
FFFFFFFC0F80
FF8FFFFC0F00
FF03FFFC1F00
7C007F3E3E00
0000003FFC00
0000001FFC00
0000001FF000
00000007C000
ENDCHAR
STARTCHAR uni01C8
ENCODING 456
SWIDTH 927 0
DWIDTH 33 0
BBX 38 48 -1 -17
BITMAP
0000FE0000
0007FF8000
000FFFC000
001FFFC000
003F07E000
007E03E000
00FC01E780
00F801EFC0
00F801EFC0
01F803EFC0
01F003EFC0
01F003C780
01F0018000
01F0000000
01F0000780
01F0000F80
01F0000F80
01F0000F80
01E0000F00
03E0000F00
03E0000F00
03E0000F00
03E0001F00
03E0001F0C
1FF0003F1C
7FFFC07E7C
FFFFFFFEFC
FFFFFFFFF8
FF8FFFFFE0
FF03FFDFC0
7C007F3F00
0000007E00
000000FC00
000001FC00
000003FC00
000007BC00
00000F7800
00001E7800
00001C7800
00003C7800
000038F000
000078F000
000079E000
000079E000
00007FC000
00007FC000
00003F8000
00001E0000
ENDCHAR
STARTCHAR uni01C9
ENCODING 457
SWIDTH 610 0
DWIDTH 22 0
BBX 24 51 2 -17
BITMAP
00E000
03F000
07F800
07F800
0F3800
0F3800
1E3800
1E3800
3E3800
3C39E0
3C7BF0
3C7FF0
7C77F0
7873E0
78F3C0
78E000
79E000
F9C1C0
F9C3C0
FB83C0
F783C0
F707C0
FF07C0
FE07C0
FE07C0
FC0780
F80F83
F81F8F
783F9F
7C7FFE
7FFFFC
3FFFF0
3FEFE0
0F8F80
001F00
003F00
007F00
00FE00
01FE00
03DE00
079E00
0F3C00
0E3C00
1E3C00
1C7800
1C7800
1CF800
1FF000
1FE000
1FC000
078000
ENDCHAR
STARTCHAR uni01CA
ENCODING 458
SWIDTH 1497 0
DWIDTH 54 0
BBX 55 35 0 -4
BITMAP
01E007E000FFE0
07F81FF007FFFC
1FF83FF81FFFFE
3FF87FF83FFFFE
3FF8FFFC7F01FC
7CF9F0FC7C00F8
F879E0FC7800F8
E07BC07CF801F8
E07B807CF801F0
40FF00FCF801F0
00FF00F8F801F0
00FE00F87801F0
00FE00F87801F0
00FC00F83001F0
00FC01F80001F0
00FC01F00007E0
00F801F0001FE0
01F801F0007FE0
01F801F001FFE0
01F003E003FBE0
01F003E007E7C0
01F003E00F87C0
01F003E01F07C0
03F003E03E0780
03E003E03C0F80
03E003E07C0F80
03E003F1F80F00
03E003FFF81F00
03E001FFF81E00
03E000FFF83E00
01C0007E7C7C00
000000007FF800
000000007FF000
000000003FE000
000000000F8000
ENDCHAR
STARTCHAR uni01CB
ENCODING 459
SWIDTH 1138 0
DWIDTH 41 0
BBX 45 48 0 -17
BITMAP
01E007E00000
07F81FF00000
1FF83FF80000
3FF87FF80000
3FF8FFFC0000
7CF9F0FC0000
F879E0FC0F00
F07BC07C1F80
E07B807C3F80
40FF00FC3F80
00FF00F81F00
00FE00F81E00
00FE00F80000
00FC00F80000
00FC01F80E00
00FC01F01E00
00F801F01E00
01F801F01E00
01F801F03E00
01F003E03E00
01F003E03E00
01F003E03E00
01F003E03C00
03F003E03C18
03E003E03C78
03E003E07CF8
03E003F1FDF0
03E003FFFFE0
03E001FFFF80
03E000FFFF00
01C0007E7E00
00000000F800
00000001F800
00000003F800
00000007F800
0000000FF000
0000001EF000
0000003CF000
00000079E000
00000071E000
000000F1E000
000000E3C000
000000E3C000
000000E7C000
000000FF8000
000000FF0000
000000FE0000
0000003C0000
ENDCHAR
STARTCHAR uni01CC
ENCODING 460
SWIDTH 750 0
DWIDTH 27 0
BBX 29 42 2 -17
BITMAP
00000F00
00001F80
00003F80
00003F80
00001F00
00001E00
00000000
00000000
383C0E00
7C7C1E00
78FE1E00
79FE1E00
FBFC1E00
FBFC3E00
F73C3E00
F63C3E00
FE7C3C00
FC783C18
FC787C78
FC787CF8
F879FFF0
F87FFFE0
F87FFF80
F07FFF00
703E7C00
0000F800
0001F800
0003F800
0007F800
000FF000
001EF000
003CF000
0079E000
0071E000
00F1E000
00E3C000
00E3C000
00E7C000
00FF8000
00FF0000
007E0000
003C0000
ENDCHAR
STARTCHAR Gcaron
ENCODING 486
SWIDTH 811 0
DWIDTH 29 0
BBX 31 59 2 -17
BITMAP
001C0E00
001E1E00
001E1E00
000F3C00
000F7800
00077800
0007F000
0003E000
0001C000
00000000
00000000
000FE000
007FF800
00FFFE00
03FFFE00
07F03F00
0FE01F00
0F801F00
1F801F00
3F001F00
3E001F00
3E001F00
7C001E00
7C000C00
7C000000
7C000000
FC000000
FC000000
FC000000
FC01FF80
FC01FF80
FC01FF80
7C01FF80
7E000F80
7E000F80
3F000F0E
3F800F1E
1FE01F7E
0FFFFFFC
07FFFFF0
01FFFFE0
003FDF80
00003F00
00007E00
0000FE00
0001FE00
0003FE00
0007BC00
000F3C00
000E3C00
001C7800
003C7800
003C7800
0038F000
003DF000
003FE000
003FE000
001FC000
000F0000
ENDCHAR
STARTCHAR gcaron
ENCODING 487
SWIDTH 479 0
DWIDTH 17 0
BBX 21 48 0 -17
BITMAP
01C0C0
01E1E0
01E3C0
01E3C0
01E780
01E780
00EF00
00EF00
00FE00
00FC00
007C00
007800
000000
000000
00F000
03F400
07FF00
0FFF00
1F9E00
1F1E00
3E1E00
3E1E00
3C3E00
7C3E18
7C3C78
7C7CF8
7C7FF0
3FFFE0
3FFFC0
1FBF00
0F7E00
00F800
01F800
03F800
07F800
0FF000
1EF000
3CF000
38F000
79E000
71E000
F1E000
E3C000
F7C000
FF8000
FF8000
7F0000
3C0000
ENDCHAR
STARTCHAR uni01EA
ENCODING 490
SWIDTH 816 0
DWIDTH 29 0
BBX 27 40 2 -9
BITMAP
000FE000
007FF800
01FFFE00
03FFFF00
07F03F80
0FC01F80
1F800FC0
1F000FC0
3F0007C0
3E0007E0
3E0007E0
7C0007E0
7C0007E0
7C0007E0
7C0007E0
FC0007E0
FC0007C0
FC0007C0
FC0007C0
FC000FC0
FC000F80
7C001F80
7E001F00
7E003F00
3F007E00
3F81FC00
1FFFF800
0FFFF000
07FFE000
01FF8000
001E0000
003C0000
00380000
00780000
00780000
007C0000
007FE000
003FE000
001FE000
000F8000
ENDCHAR
STARTCHAR uni01EB
ENCODING 491
SWIDTH 451 0
DWIDTH 16 0
BBX 20 26 1 -9
BITMAP
03E000
0FF000
1FF800
3FFC00
7CFC00
7CFC00
78FC30
F8FFF0
F87FF0
F83FF0
F83FC0
F83C00
783C00
7CF800
7FF800
3FF000
1FC000
078000
0F0000
0E0000
0E0000
1E0000
0F0000
0FF800
07F800
03F000
ENDCHAR
STARTCHAR Aringacute
ENCODING 506
SWIDTH 786 0
DWIDTH 28 0
BBX 33 48 2 0
BITMAP
0000000100
0000000780
0000000F80
0000001F80
0000003F00
00003E7C00
00007F3000
0000FF8000
0000E78000
0001E38000
0001E38000
0001E78000
0000FF0000
0000FF0000
00003C0000
0000000000
0000000000
0001FF8000
000FFFF000
003FFFF000
00FFFFF000
01FE00E000
03F8000000
07E00F0000
0FC01F0000
1F801F0000
1F001F0000
3F001F0000
3E003F0000
7E003E0000
7C003E0000
7C003E0000
7C003E0000
FC007E0000
F8007C0000
F8007C0000
F800FC0000
F800FC0000
F800FC0000
F801FC0000
FC01FC0600
FC03FC0E00
7E07FC1E00
7F0F7E3C00
3FFF7FFC00
1FFE3FF800
0FFC3FE000
03F00FC000
ENDCHAR
STARTCHAR aringacute
ENCODING 507
SWIDTH 470 0
DWIDTH 17 0
BBX 23 33 1 0
BITMAP
00001C
00003E
00007E
0078FC
01FCE0
01FE00
03CE00
038F00
038F00
03CE00
03FE00
01FC00
00F800
000000
000000
000000
01E000
07E800
0FFE00
1FFE00
3F3C00
3E3C00
7C3C00
7C3C00
787C00
F87C10
F87838
F8F870
F8F8F0
7FFFE0
7FBFC0
3F9F80
1E0F00
ENDCHAR
STARTCHAR AEacute
ENCODING 508
SWIDTH 1015 0
DWIDTH 37 0
BBX 39 42 2 0
BITMAP
0000000200
0000000780
0000001F80
0000003F80
0000007F00
000000FE00
000001F800
000003E000
0000018000
0000000000
0000000000
0003E1FFF0
001FE3FFF8
007FE7FFF8
00FFE7FFF8
01FF07FFF0
03F80FC000
07F00F8000
0FC00F8000
1F800F8000
1F801F0000
3F001F0000
3E001F0000
7E003F0000
7C003FFFC0
7C003FFFC0
7C003FFFC0
FC007FFF80
FC007E0000
F8007C0000
F800FC0000
F800FC0000
F800FC0000
F801FC0000
FC01FE0000
7C03FE0006
7E07BF001E
7F0F9FC0FE
3FFF1FFFFC
1FFE0FFFF8
0FFC03FFE0
03F000FF00
ENDCHAR
STARTCHAR aeacute
ENCODING 509
SWIDTH 653 0
DWIDTH 24 0
BBX 27 30 1 0
BITMAP
00003000
00007800
00007800
0000F800
0000F000
0001F000
0001E000
0003C000
00038000
00078000
00030000
00000000
00000000
00F1F000
07FFF800
0FFFFC00
1FFFFC00
3F1F3C00
3E3E3C00
7C3C3C00
783C7C00
F87CF800
F87FF060
F87FC0E0
F87E01E0
F8FE07E0
7FFFFFC0
7FDFFF00
3F8FFE00
1F03F800
ENDCHAR
STARTCHAR Oslashacute
ENCODING 510
SWIDTH 816 0
DWIDTH 29 0
BBX 27 46 2 -4
BITMAP
00001000
00007800
0000FC00
0001FC00
0003F800
0007F000
000FC000
001F0000
001CF000
0000F000
0000F000
000FE000
007FF800
01FFFE00
03FFFF00
07F3FF00
0FC3DF80
0F83CFC0
1F03CFC0
3F0787C0
3E0787C0
3E0787E0
7C0707E0
7C0F07E0
7C0F07E0
7C0F07E0
FC0E07E0
FC1E07C0
FC1E07C0
FC1E07C0
FC1C07C0
FC3C0F80
7C3C0F80
7C3C1F80
7E381F00
7E783E00
3F787E00
3FF9FC00
1FFFF800
0FFFF000
03FFC000
00FE0000
01E00000
01E00000
01E00000
01C00000
ENDCHAR
STARTCHAR oslashacute
ENCODING 511
SWIDTH 459 0
DWIDTH 17 0
BBX 20 34 1 -4
BITMAP
00E000
01F000
01F000
01F000
03E000
03C000
078000
078000
0F4000
0EE000
0CE000
00E000
00E000
07E000
0FF800
1FF800
3FFC00
7DFC00
79BE00
799FF0
F99FF0
FB9FF0
FB9FE0
FBBE00
FB3C00
7B7C00
7FF800
3FF800
1FF000
0FC000
060000
060000
0E0000
0E0000
ENDCHAR
STARTCHAR uni0200
ENCODING 512
SWIDTH 786 0
DWIDTH 28 0
BBX 31 42 2 0
BITMAP
00020800
000F1E00
000F1E00
000F9E00
00079F00
00078F00
0003CF00
0001C700
0001C300
00000000
00000000
0001FF80
000FFFF0
003FFFF0
00FFFFF0
01FE00E0
03F80000
07E00F00
0FC01F00
1F801F00
1F001F00
3F001F00
3E003F00
7E003E00
7C003E00
7C003E00
7C003E00
FC007E00
F8007C00
F8007C00
F800FC00
F800FC00
F800FC00
F801FC00
FC01FC06
FC03FC0E
7E07FC1E
7F0F7E3C
3FFF7FFC
1FFE3FF8
0FFC3FE0
03F00FC0
ENDCHAR
STARTCHAR uni0201
ENCODING 513
SWIDTH 470 0
DWIDTH 17 0
BBX 21 30 1 0
BITMAP
387000
3CF000
7CF800
3CF800
3E7800
1E7C00
1E3C00
0F1C00
071C00
070E00
030C00
000000
000000
01E000
07E800
0FFE00
1FFE00
3F3C00
3E3C00
7C3C00
7C3C00
787C00
F87C10
F87838
F8F870
F8F8F0
7FFFE0
7FBFC0
3F9F80
1E0F00
ENDCHAR
STARTCHAR uni0202
ENCODING 514
SWIDTH 786 0
DWIDTH 28 0
BBX 31 41 2 0
BITMAP
00007E00
0001FF80
0003FFE0
0007FFE0
0007C3F0
000781F0
000700E0
00000000
00000000
00000000
0001FF80
000FFFF0
003FFFF0
00FFFFF0
01FE00E0
03F80000
07E00F00
0FC01F00
1F801F00
1F001F00
3F001F00
3E003F00
7E003E00
7C003E00
7C003E00
7C003E00
FC007E00
F8007C00
F8007C00
F800FC00
F800FC00
F800FC00
F801FC00
FC01FC06
FC03FC0E
7E07FC1E
7F0F7E3C
3FFF7FFC
1FFE3FF8
0FFC3FE0
03F00FC0
ENDCHAR
STARTCHAR uni0203
ENCODING 515
SWIDTH 470 0
DWIDTH 17 0
BBX 21 28 1 0
BITMAP
00FC00
03FE00
07FF80
0FFF80
0F8FC0
1F07C0
1E03C0
1E03C0
000000
000000
000000
01E000
07E800
0FFE00
1FFE00
3F3C00
3E3C00
7C3C00
7C3C00
787C00
F87C10
F87838
F8F870
F8F8F0
7FFFE0
7FBFC0
3F9F80
1E0F00
ENDCHAR
STARTCHAR uni0204
ENCODING 516
SWIDTH 686 0
DWIDTH 25 0
BBX 28 42 1 0
BITMAP
00204000
0079E000
0079E000
0079F000
0078F000
003CF000
003C7800
001C3800
000C3000
00000000
00000000
000FF000
007FFC00
01FFFE00
03FFFF00
07F03F00
0FE01F80
0FC00F80
0F800F80
0F800F80
0F800F00
0F800F00
0FC00E00
07F00000
03FF0000
01FF0000
07FF0000
0FFE0000
3FC00000
3F000000
7E000000
FC000000
FC000000
F8000000
FC000000
FC000020
7E0000F0
7F800FF0
3FFFFFF0
1FFFFFE0
07FFFF00
00FFF000
ENDCHAR
STARTCHAR uni0205
ENCODING 517
SWIDTH 393 0
DWIDTH 14 0
BBX 18 30 1 0
BITMAP
71C000
F1E000
FBE000
F9E000
79F000
7CF000
3CF000
1C7800
1C3800
0E3800
0C1800
000000
000000
03E000
0FF000
1FF800
3FF800
7C7800
787800
787800
F8F000
FBE000
FFC0C0
FF01C0
F807C0
7C1F80
7FFF00
3FFE00
1FFC00
07E000
ENDCHAR
STARTCHAR uni0206
ENCODING 518
SWIDTH 686 0
DWIDTH 25 0
BBX 28 41 1 0
BITMAP
0003F000
000FFC00
001FFE00
003FFF00
007C1F00
00780F00
00700700
00000000
00000000
00000000
000FF000
007FFC00
01FFFE00
03FFFF00
07F03F00
0FE01F80
0FC00F80
0F800F80
0F800F80
0F800F00
0F800F00
0FC00E00
07F00000
03FF0000
01FF0000
07FF0000
0FFE0000
3FC00000
3F000000
7E000000
FC000000
FC000000
F8000000
FC000000
FC000020
7E0000F0
7F800FF0
3FFFFFF0
1FFFFFE0
07FFFF00
00FFF000
ENDCHAR
STARTCHAR uni0207
ENCODING 519
SWIDTH 393 0
DWIDTH 14 0
BBX 18 28 1 0
BITMAP
01F000
07FC00
0FFE00
1FFF00
3E1F00
3C0F00
3C0F80
380700
000000
000000
000000
03E000
0FF000
1FF800
3FF800
7C7800
787800
787800
F8F000
FBE000
FFC0C0
FF01C0
F807C0
7C1F80
7FFF00
3FFE00
1FFC00
07E000
ENDCHAR
STARTCHAR uni0208
ENCODING 520
SWIDTH 495 0
DWIDTH 18 0
BBX 21 42 -1 0
BITMAP
008200
03C700
03C780
03E780
01E780
01E3C0
00E3C0
00F1C0
0060C0
000000
000000
03FFF0
07FFF8
07FFF8
07FFF0
003E00
003E00
003E00
007E00
007C00
007C00
007C00
007C00
007C00
007C00
00F800
00F800
00F800
00F800
00F800
00F800
01F800
01F000
01F000
01F000
01F000
01F000
01F000
3FFF00
7FFF80
FFFF80
7FFF00
ENDCHAR
STARTCHAR uni0209
ENCODING 521
SWIDTH 246 0
DWIDTH 9 0
BBX 17 30 -3 0
BITMAP
70E000
F9E000
F9F000
79F000
7CF000
3CF000
3C7800
1E3800
0E3800
0E1C00
061800
000000
000000
01C000
03E000
03C000
03C000
03C000
07C000
07C000
078000
078000
078300
078780
078700
078F00
07FE00
07FC00
03F800
01E000
ENDCHAR
STARTCHAR uni020A
ENCODING 522
SWIDTH 495 0
DWIDTH 18 0
BBX 21 41 -1 0
BITMAP
001F80
007FE0
00FFF0
01FFF8
01F0F8
01E078
01C038
000000
000000
000000
03FFF0
07FFF8
07FFF8
07FFF0
003E00
003E00
003E00
007E00
007C00
007C00
007C00
007C00
007C00
007C00
00F800
00F800
00F800
00F800
00F800
00F800
01F800
01F000
01F000
01F000
01F000
01F000
01F000
3FFF00
7FFF80
FFFF80
7FFF00
ENDCHAR
STARTCHAR uni020B
ENCODING 523
SWIDTH 246 0
DWIDTH 9 0
BBX 15 28 -1 0
BITMAP
07E0
1FF0
3FF8
7FFC
7C7E
F83E
F01E
E01E
0000
0000
0000
0700
0F80
0F00
0F00
0F00
1F00
1F00
1E00
1E00
1E0C
1E1E
1E1C
1E3C
1FF8
1FF0
0FE0
0780
ENDCHAR
STARTCHAR uni020C
ENCODING 524
SWIDTH 816 0
DWIDTH 29 0
BBX 27 42 2 0
BITMAP
00208000
0071E000
00F1E000
00F9E000
0079F000
0078F000
003C7000
001C7000
001C3000
00000000
00000000
000FE000
007FF800
01FFFE00
03FFFF00
07F03F00
0FC01F80
0F800FC0
1F000FC0
3F0007C0
3E0007C0
3E0007E0
7E0007E0
7C0007E0
7C0007E0
7C0007E0
FC0007E0
FC0007C0
FC0007C0
FC0007C0
FC0007C0
FC000F80
7C000F80
7C001F80
7E001F00
7E003E00
3F007E00
1F81FC00
1FFFF800
0FFFF000
03FFC000
00FE0000
ENDCHAR
STARTCHAR uni020D
ENCODING 525
SWIDTH 451 0
DWIDTH 16 0
BBX 20 30 1 0
BITMAP
71C000
F3E000
F3E000
F9E000
79F000
78F000
3CF000
3C7800
1C3800
0E3800
0C1800
000000
000000
07E000
0FF000
1FF800
3FFC00
7CFC00
7CFC10
78FFF0
F87FF0
F87FF0
F83FC0
F83C00
F83C00
7C7800
7FF800
3FF000
1FE000
0FC000
ENDCHAR
STARTCHAR uni020E
ENCODING 526
SWIDTH 816 0
DWIDTH 29 0
BBX 27 41 2 0
BITMAP
0003E000
001FF800
003FFE00
007FFE00
007C3F00
00781F00
00700E00
00000000
00000000
00000000
000FE000
007FF800
01FFFE00
03FFFF00
07F03F00
0FC01F80
0F800FC0
1F000FC0
3F0007C0
3E0007C0
3E0007E0
7E0007E0
7C0007E0
7C0007E0
7C0007E0
FC0007E0
FC0007C0
FC0007C0
FC0007C0
FC0007C0
FC000F80
7C000F80
7C001F80
7E001F00
7E003E00
3F007E00
1F81FC00
1FFFF800
0FFFF000
03FFC000
00FE0000
ENDCHAR
STARTCHAR uni020F
ENCODING 527
SWIDTH 451 0
DWIDTH 16 0
BBX 20 28 1 0
BITMAP
01F000
07FC00
1FFE00
1FFF00
3E1F00
3C0F00
380F00
380700
000000
000000
000000
07E000
0FF000
1FF800
3FFC00
7CFC00
7CFC10
78FFF0
F87FF0
F87FF0
F83FC0
F83C00
F83C00
7C7800
7FF800
3FF000
1FE000
0FC000
ENDCHAR
STARTCHAR uni0210
ENCODING 528
SWIDTH 880 0
DWIDTH 32 0
BBX 34 42 2 0
BITMAP
0010200000
0038F00000
007CF00000
007CF00000
003CF80000
003C780000
001E380000
000E380000
000E180000
0000000000
0000000000
000FF80000
003FFE0000
00FFFF8000
03FFFFC000
07F01FC000
0FC007E000
0F0007E000
1E0E03E000
3E1F03E000
3C1F03E000
7C3F07E000
783E07C000
783E0FC000
783E1F8000
F03E3F0000
F0FFFE0000
F1FFF80000
F1FFE00000
F0FFF80000
F07DFC0000
F07CFC0000
F07C7E0000
F0F83E0000
F0F83F00C0
78F81F01C0
78F81F83C0
7CF81FC7C0
3FF80FFF80
1FF007FF00
0FF003FE00
07E001F800
ENDCHAR
STARTCHAR uni0211
ENCODING 529
SWIDTH 455 0
DWIDTH 16 0
BBX 19 30 2 0
BITMAP
71C000
F1E000
FBE000
F9E000
79F000
78F000
3CF000
1C7800
1C3800
0E3800
0C1800
000000
000000
383C00
7C7C00
78FE00
79FC00
FBFC00
FBFC00
F73C60
F73CE0
FE3FE0
FE3FE0
FC3F80
FC1F00
F80000
F80000
F80000
F00000
700000
ENDCHAR
STARTCHAR uni0212
ENCODING 530
SWIDTH 880 0
DWIDTH 32 0
BBX 34 41 2 0
BITMAP
0001F80000
000FFE0000
001FFF0000
003FFF0000
003E0F8000
003C078000
0038070000
0000000000
0000000000
0000000000
000FF80000
003FFE0000
00FFFF8000
03FFFFC000
07F01FC000
0FC007E000
0F0007E000
1E0E03E000
3E1F03E000
3C1F03E000
7C3F07E000
783E07C000
783E0FC000
783E1F8000
F03E3F0000
F0FFFE0000
F1FFF80000
F1FFE00000
F0FFF80000
F07DFC0000
F07CFC0000
F07C7E0000
F0F83E0000
F0F83F00C0
78F81F01C0
78F81F83C0
7CF81FC7C0
3FF80FFF80
1FF007FF00
0FF003FE00
07E001F800
ENDCHAR
STARTCHAR uni0213
ENCODING 531
SWIDTH 455 0
DWIDTH 16 0
BBX 19 28 2 0
BITMAP
01F000
07FC00
1FFE00
1FFF00
3E1F00
3C0F00
3C0F00
380700
000000
000000
000000
383C00
7C7C00
78FE00
79FC00
FBFC00
FBFC00
F73C60
F73CE0
FE3FE0
FE3FE0
FC3F80
FC1F00
F80000
F80000
F80000
F00000
700000
ENDCHAR
STARTCHAR uni0214
ENCODING 532
SWIDTH 890 0
DWIDTH 32 0
BBX 37 42 0 0
BITMAP
0002080000
000F1C0000
000F1E0000
000F9E0000
00079E0000
00078F0000
00038F0000
0003C70000
0001830000
0000000000
0000000000
01F0003800
0FF8007C00
1FFC007C00
3FFC007C00
7C7C007C00
787C007C00
F07C00FC00
E07C00FC00
407C00F800
007C00F800
00FC00F800
00F801F800
00F801F800
00F801F800
00F801F000
01F803F000
01F003F000
01F007F000
01F007F000
01F007F000
03E00FF000
03E00DE000
03E01FE010
03E03BE038
03E07BE038
03F1F3E070
03FFF3F1F0
03FFE1FFE0
01FFC1FFC0
00FF80FF80
007E007E00
ENDCHAR
STARTCHAR uni0215
ENCODING 533
SWIDTH 462 0
DWIDTH 17 0
BBX 19 30 2 0
BITMAP
71C000
F1E000
FBE000
F9E000
79F000
7CF000
3CF000
1C7800
1C3800
0E3800
0C1800
000000
000000
3C1C00
7C3C00
783C00
787800
787800
F87800
F8F800
F0F800
F1F000
F1F060
F3F0E0
F3F1E0
FFF3E0
FEFFC0
FEFF80
7C7F00
387C00
ENDCHAR
STARTCHAR uni0216
ENCODING 534
SWIDTH 890 0
DWIDTH 32 0
BBX 37 41 0 0
BITMAP
00007E0000
0001FF8000
0003FFC000
0007FFE000
0007C3E000
000781F000
000700E000
0000000000
0000000000
0000000000
01F0003800
0FF8007C00
1FFC007C00
3FFC007C00
7C7C007C00
787C007C00
F07C00FC00
E07C00FC00
407C00F800
007C00F800
00FC00F800
00F801F800
00F801F800
00F801F800
00F801F000
01F803F000
01F003F000
01F007F000
01F007F000
01F007F000
03E00FF000
03E00DE000
03E01FE010
03E03BE038
03E07BE038
03F1F3E070
03FFF3F1F0
03FFE1FFE0
01FFC1FFC0
00FF80FF80
007E007E00
ENDCHAR
STARTCHAR uni0217
ENCODING 535
SWIDTH 462 0
DWIDTH 17 0
BBX 19 28 2 0
BITMAP
01F000
07FC00
0FFE00
1FFF00
3E1F00
3C0F00
3C0F80
380700
000000
000000
000000
3C1C00
7C3C00
783C00
787800
787800
F87800
F8F800
F0F800
F1F000
F1F060
F3F0E0
F3F1E0
FFF3E0
FEFFC0
FEFF80
7C7F00
387C00
ENDCHAR
STARTCHAR uni0218
ENCODING 536
SWIDTH 693 0
DWIDTH 25 0
BBX 24 41 1 -10
BITMAP
003FC0
01FFF8
03FFFC
07FFFE
0FE07E
1F801F
1F001F
1F001F
1F001F
1F001F
1F801E
1FC00C
0FE000
0FFC00
07FF00
01FFC0
00FFF0
001FF8
0007FC
2001FC
78007C
F8007E
F8003E
F8003E
F8007C
F8007C
7E01F8
7FFFF8
3FFFF0
0FFFC0
03FE00
000000
000000
000000
007000
00F800
00F800
00F000
00F000
00E000
00E000
ENDCHAR
STARTCHAR uni0219
ENCODING 537
SWIDTH 427 0
DWIDTH 15 0
BBX 20 28 0 -11
BITMAP
00E000
01E000
03E000
03C000
07C000
07C000
0FE000
0FF000
1FF000
1CF830
3CFC70
787CF0
F07DF0
E7FFE0
E7FFC0
07FF80
07FE00
03E000
000000
01C000
03C000
03C000
03C000
03C000
038000
038000
038000
030000
ENDCHAR
STARTCHAR uni021A
ENCODING 538
SWIDTH 697 0
DWIDTH 25 0
BBX 32 41 1 -10
BITMAP
001FFFFC
03FFFFFE
0FFFFFFF
3FFFFFFE
7F03E000
7C07E000
F807C000
F807C000
F807C000
F807C000
780FC000
780FC000
300F8000
000F8000
000F8000
000F8000
001F8000
001F0000
001F0000
001F0000
001F0000
001F0000
001F0000
003F0000
003E0000
003E0000
003E0000
003E0000
003E0000
003E0000
001C0000
00000000
00000000
00000000
00380000
003C0000
003C0000
003C0000
00380000
00380000
00300000
ENDCHAR
STARTCHAR uni021B
ENCODING 539
SWIDTH 393 0
DWIDTH 14 0
BBX 19 43 0 -11
BITMAP
003C00
007E00
00FE00
00FF00
01EF00
03CF00
03CF00
038E00
078E00
078E00
079C00
0F9C00
0F3800
0F7000
0FF000
FFFF00
FFFF00
FFFF00
FFFE00
1F0000
1F0000
1F0000
1F0000
1F0000
1F0060
1F00E0
0F01E0
0F83C0
0FFF80
07FF00
03FE00
00F800
000000
000000
01C000
03C000
03E000
03C000
03C000
03C000
038000
038000
038000
ENDCHAR
STARTCHAR uni022A
ENCODING 554
SWIDTH 816 0
DWIDTH 29 0
BBX 27 45 2 0
BITMAP
000FFC00
001FFC00
001FFC00
001FFC00
00000000
00000000
001C3C00
003E7C00
003E7C00
003E7C00
003E7C00
003C3800
00000000
00000000
000FE000
007FF800
01FFFE00
03FFFF00
07F03F00
0FC01F80
0F800FC0
1F000FC0
3F0007C0
3E0007C0
3E0007E0
7E0007E0
7C0007E0
7C0007E0
7C0007E0
FC0007E0
FC0007C0
FC0007C0
FC0007C0
FC0007C0
FC000F80
7C000F80
7C001F80
7E001F00
7E003E00
3F007E00
1F81FC00
1FFFF800
0FFFF000
03FFC000
00FE0000
ENDCHAR
STARTCHAR uni022B
ENCODING 555
SWIDTH 451 0
DWIDTH 16 0
BBX 20 31 1 0
BITMAP
0FFE00
0FFE00
0FFE00
0FFE00
000000
000000
0E1C00
1F3E00
1F3E00
3F3E00
1E3E00
1E1C00
000000
000000
07E000
0FF000
1FF800
3FFC00
7CFC00
7CFC10
78FFF0
F87FF0
F87FF0
F83FC0
F83C00
F83C00
7C7800
7FF800
3FF000
1FE000
0FC000
ENDCHAR
STARTCHAR uni022C
ENCODING 556
SWIDTH 816 0
DWIDTH 29 0
BBX 27 46 2 0
BITMAP
000FFC00
001FFE00
001FFE00
001FFC00
00000000
00000000
001E0200
003F0700
007FCF00
007FFF00
00F1FE00
00F0FC00
00403800
00000000
00000000
000FE000
007FF800
01FFFE00
03FFFF00
07F03F00
0FC01F80
0F800FC0
1F000FC0
3F0007C0
3E0007C0
3E0007E0
7E0007E0
7C0007E0
7C0007E0
7C0007E0
FC0007E0
FC0007C0
FC0007C0
FC0007C0
FC0007C0
FC000F80
7C000F80
7C001F80
7E001F00
7E003E00
3F007E00
1F81FC00
1FFFF800
0FFFF000
03FFC000
00FE0000
ENDCHAR
STARTCHAR uni022D
ENCODING 557
SWIDTH 451 0
DWIDTH 16 0
BBX 20 33 1 0
BITMAP
07FE00
0FFE00
0FFE00
0FFE00
000000
000000
000000
0F0100
1F8780
3FC780
3FFF00
79FF00
707E00
203C00
000000
000000
07E000
0FF000
1FF800
3FFC00
7CFC00
7CFC10
78FFF0
F87FF0
F87FF0
F83FC0
F83C00
F83C00
7C7800
7FF800
3FF000
1FE000
0FC000
ENDCHAR
STARTCHAR uni0230
ENCODING 560
SWIDTH 816 0
DWIDTH 29 0
BBX 27 45 2 0
BITMAP
000FFC00
001FFE00
001FFC00
001FFC00
00000000
00000000
0003C000
0007E000
0007E000
0007E000
0007E000
0003C000
00000000
00000000
000FE000
007FF800
01FFFE00
03FFFF00
07F03F00
0FC01F80
0F800FC0
1F000FC0
3F0007C0
3E0007C0
3E0007E0
7E0007E0
7C0007E0
7C0007E0
7C0007E0
FC0007E0
FC0007C0
FC0007C0
FC0007C0
FC0007C0
FC000F80
7C000F80
7C001F80
7E001F00
7E003E00
3F007E00
1F81FC00
1FFFF800
0FFFF000
03FFC000
00FE0000
ENDCHAR
STARTCHAR uni0231
ENCODING 561
SWIDTH 451 0
DWIDTH 16 0
BBX 20 31 1 0
BITMAP
0FFE00
0FFE00
0FFE00
0FFE00
000000
000000
01E000
03F000
03F000
03F000
03F000
01E000
000000
000000
07E000
0FF000
1FF800
3FFC00
7CFC00
7CFC10
78FFF0
F87FF0
F87FF0
F83FC0
F83C00
F83C00
7C7800
7FF800
3FF000
1FE000
0FC000
ENDCHAR
STARTCHAR uni0232
ENCODING 562
SWIDTH 851 0
DWIDTH 31 0
BBX 35 48 0 -11
BITMAP
0001FF8000
0003FFC000
0003FFC000
0001FF8000
0000000000
0000000000
01F0003800
0FF8007C00
1FFC007C00
3FFC007C00
7C7C007C00
787C007C00
F07C00FC00
E07C00FC00
407C00F800
007C00F800
00FC00F800
00F801F800
00F801F800
00F801F800
00F803F000
01F803F000
01F007F000
01F007F000
01F00FF000
01F01DF000
01F03DF000
01F879E000
01FFF1E1C0
00FFE3FFE0
007FC3FFC0
001F0FFFC0
00003FF800
0000FFE000
0003FFC000
0007E3C000
000F87C000
001F07C000
003C07C000
007C078000
00780F8000
00780F0000
00781F0000
007C3E0000
007FFE0000
007FFC0000
003FF00000
000FC00000
ENDCHAR
STARTCHAR uni0233
ENCODING 563
SWIDTH 479 0
DWIDTH 17 0
BBX 21 40 0 -17
BITMAP
03FF00
07FF00
07FF00
07FF00
000000
000000
0F0700
1F0F00
1E0F00
1E1E00
1E1E00
3E1E00
3E3E00
3C3E00
3C7E00
3C7E18
3CFC38
3CFCF8
3FFDF8
3FFFE0
3FBFC0
1F3F00
0E7E00
00F800
01F800
03F800
07F800
0FF000
1EF000
3CF000
38F000
71E000
F1E000
F1E000
E3C000
F7C000
FF8000
FF0000
7F0000
3C0000
ENDCHAR
STARTCHAR uni0237
ENCODING 567
SWIDTH 254 0
DWIDTH 9 0
BBX 21 34 -8 -17
BITMAP
000E00
001F00
001E00
001E00
001E00
001E00
003E00
003E00
003E00
003E18
003C78
003CF8
003DF0
003FE0
003F80
007F00
007E00
00F800
01F800
03F800
07F800
0FF000
1EF000
3CF000
38F000
71E000
71E000
F1E000
E3C000
F7C000
FF8000
FF0000
7F0000
3C0000
ENDCHAR
STARTCHAR uni0259
ENCODING 601
SWIDTH 458 0
DWIDTH 16 0
BBX 15 17 1 0
BITMAP
0FC0
3FF0
7FF8
7FFC
207C
003C
003E
003E
7FFE
7FFE
FFFE
F83C
787C
7FF8
7FF8
3FF0
0FC0
ENDCHAR
STARTCHAR uni02BC
ENCODING 700
SWIDTH 600 0
DWIDTH 22 0
BBX 4 9 10 19
BITMAP
70
F0
F0
F0
F0
E0
E0
E0
C0
ENDCHAR
STARTCHAR circumflex
ENCODING 710
SWIDTH 600 0
DWIDTH 22 0
BBX 12 12 5 19
BITMAP
0380
07C0
0FC0
1FC0
1FE0
3DE0
3DE0
78E0
78F0
F0F0
F0F0
E0E0
ENDCHAR
STARTCHAR caron
ENCODING 711
SWIDTH 600 0
DWIDTH 22 0
BBX 13 12 6 19
BITMAP
7070
F078
F0F0
78F0
79E0
79E0
7BC0
3B80
3F80
3F00
3F00
1E00
ENDCHAR
STARTCHAR uni02C9
ENCODING 713
SWIDTH 600 0
DWIDTH 22 0
BBX 12 4 5 19
BITMAP
7FE0
FFF0
FFF0
7FE0
ENDCHAR
STARTCHAR breve
ENCODING 728
SWIDTH 600 0
DWIDTH 22 0
BBX 15 8 4 19
BITMAP
600C
F01E
F03E
F87C
7FFC
7FF8
3FF0
0FC0
ENDCHAR
STARTCHAR dotaccent
ENCODING 729
SWIDTH 600 0
DWIDTH 22 0
BBX 6 6 8 19
BITMAP
78
FC
FC
FC
FC
78
ENDCHAR
STARTCHAR ring
ENCODING 730
SWIDTH 600 0
DWIDTH 22 0
BBX 9 10 7 19
BITMAP
3E00
7F00
FF80
E380
E380
E380
E380
FF80
7F00
3C00
ENDCHAR
STARTCHAR ogonek
ENCODING 731
SWIDTH 600 0
DWIDTH 22 0
BBX 9 12 5 -9
BITMAP
0800
1800
3C00
7800
F000
F000
F000
F000
F180
FF80
7F80
1F00
ENDCHAR
STARTCHAR tilde
ENCODING 732
SWIDTH 600 0
DWIDTH 22 0
BBX 15 7 4 19
BITMAP
1C04
7E0E
7F9E
FFFE
F3FC
E1F8
4070
ENDCHAR
STARTCHAR hungarumlaut
ENCODING 733
SWIDTH 600 0
DWIDTH 22 0
BBX 14 11 6 19
BITMAP
1C38
1E7C
3E7C
3E78
3CF8
3CF0
78F0
79E0
71C0
E1C0
6180
ENDCHAR
STARTCHAR gravecomb
ENCODING 768
SWIDTH 0 0
DWIDTH 0 0
BBX 8 11 -17 19
BITMAP
60
F0
F8
F8
78
7C
3C
1E
0E
0F
06
ENDCHAR
STARTCHAR acutecomb
ENCODING 769
SWIDTH 0 0
DWIDTH 0 0
BBX 8 11 -12 19
BITMAP
0E
0F
1F
1F
3E
3C
78
78
F0
E0
C0
ENDCHAR
STARTCHAR uni0302
ENCODING 770
SWIDTH 0 0
DWIDTH 0 0
BBX 12 12 -17 19
BITMAP
03C0
07C0
0FE0
0FE0
1EE0
1EE0
3CF0
3CF0
78F0
F8F0
F0F0
6070
ENDCHAR
STARTCHAR tildecomb
ENCODING 771
SWIDTH 0 0
DWIDTH 0 0
BBX 16 7 -18 19
BITMAP
1C02
3F0F
7F8E
FFFE
F3FC
E0FC
4078
ENDCHAR
STARTCHAR uni0304
ENCODING 772
SWIDTH 0 0
DWIDTH 0 0
BBX 11 4 -16 19
BITMAP
FFE0
FFE0
FFE0
FFE0
ENDCHAR
STARTCHAR uni0306
ENCODING 774
SWIDTH 0 0
DWIDTH 0 0
BBX 15 8 -18 19
BITMAP
700E
F01E
F81E
7C3E
7FFC
3FF8
1FF0
0FE0
ENDCHAR
STARTCHAR uni0307
ENCODING 775
SWIDTH 0 0
DWIDTH 0 0
BBX 7 6 -14 19
BITMAP
3C
7E
FE
FE
7C
78
ENDCHAR
STARTCHAR uni0308
ENCODING 776
SWIDTH 0 0
DWIDTH 0 0
BBX 13 6 -17 19
BITMAP
7870
78F8
FCF8
F8F8
F8F8
7070
ENDCHAR
STARTCHAR hookabovecomb
ENCODING 777
SWIDTH 0 0
DWIDTH 0 0
BBX 9 10 -14 19
BITMAP
7C00
FF00
FF00
0780
0780
0780
0700
3F00
7E00
3C00
ENDCHAR
STARTCHAR uni030A
ENCODING 778
SWIDTH 0 0
DWIDTH 0 0
BBX 10 10 -15 19
BITMAP
1E00
7F80
7F80
F3C0
E1C0
E3C0
F380
FF80
7F00
1E00
ENDCHAR
STARTCHAR uni030B
ENCODING 779
SWIDTH 0 0
DWIDTH 0 0
BBX 13 11 -15 19
BITMAP
1C70
3C78
3EF8
3CF8
7CF0
79F0
79E0
F1C0
E1C0
E380
C180
ENDCHAR
STARTCHAR uni030C
ENCODING 780
SWIDTH 0 0
DWIDTH 0 0
BBX 12 12 -15 19
BITMAP
E070
F0F0
F1F0
F1E0
F3C0
73C0
7380
7780
7F00
3F00
3E00
1C00
ENDCHAR
STARTCHAR uni030F
ENCODING 783
SWIDTH 0 0
DWIDTH 0 0
BBX 13 11 -19 19
BITMAP
61C0
F3C0
F3E0
FBE0
F9E0
78F0
3CF0
3C70
1C78
1C38
0C18
ENDCHAR
STARTCHAR uni0311
ENCODING 785
SWIDTH 0 0
DWIDTH 0 0
BBX 15 8 -18 20
BITMAP
07E0
1FF8
3FFC
7FFC
7C7E
F81E
F01E
F01E
ENDCHAR
STARTCHAR uni0312
ENCODING 786
SWIDTH 0 0
DWIDTH 0 0
BBX 5 9 -12 19
BITMAP
70
F0
F8
F0
F0
F0
E0
E0
E0
ENDCHAR
STARTCHAR uni031B
ENCODING 795
SWIDTH 0 0
DWIDTH 0 0
BBX 7 9 -12 13
BITMAP
04
0E
1E
1E
1E
7C
7C
78
E0
ENDCHAR
STARTCHAR dotbelowcomb
ENCODING 803
SWIDTH 0 0
DWIDTH 0 0
BBX 7 6 -17 -8
BITMAP
38
7C
FE
FC
FC
78
ENDCHAR
STARTCHAR uni0324
ENCODING 804
SWIDTH 0 0
DWIDTH 0 0
BBX 13 6 -20 -8
BITMAP
7070
F8F8
F9F8
F9F8
F8F0
70E0
ENDCHAR
STARTCHAR uni0326
ENCODING 806
SWIDTH 0 0
DWIDTH 0 0
BBX 5 9 -16 -11
BITMAP
70
F8
F8
F0
F0
F0
E0
E0
E0
ENDCHAR
STARTCHAR uni0327
ENCODING 807
SWIDTH 0 0
DWIDTH 0 0
BBX 11 11 -20 -9
BITMAP
1F00
1F80
1FC0
01E0
01E0
01E0
01E0
7FC0
FFC0
7F80
7E00
ENDCHAR
STARTCHAR uni0328
ENCODING 808
SWIDTH 0 0
DWIDTH 0 0
BBX 10 12 -17 -9
BITMAP
0800
1C00
3C00
7800
7000
F000
F000
F000
F8C0
7FC0
3FC0
1F00
ENDCHAR
STARTCHAR uni032E
ENCODING 814
SWIDTH 0 0
DWIDTH 0 0
BBX 14 8 -21 -11
BITMAP
E01C
F01C
F03C
F87C
FFFC
7FF8
3FF0
0FC0
ENDCHAR
STARTCHAR uni0331
ENCODING 817
SWIDTH 0 0
DWIDTH 0 0
BBX 11 4 -19 -6
BITMAP
FFE0
FFE0
FFE0
FFE0
ENDCHAR
STARTCHAR uni0394
ENCODING 916
SWIDTH 700 0
DWIDTH 25 0
BBX 22 31 1 0
BITMAP
000700
000F00
000F00
001F80
001F80
003F80
003F80
007F80
007BC0
007BC0
00F3C0
00F3C0
01F3C0
01E1E0
03E1E0
03C1E0
07C1E0
0781E0
0781F0
0F80F0
0F00F0
1F00F0
1E00F0
3E00F8
3E00F8
3C0078
7C0078
7FFFF8
FFFFF8
FFFFFC
7FFFF8
ENDCHAR
STARTCHAR uni03A9
ENCODING 937
SWIDTH 816 0
DWIDTH 29 0
BBX 30 31 -1 0
BITMAP
0001FC00
000FFF00
003FFFC0
007FFFE0
00FE0FE0
01F803F0
01F001F8
03E001F8
07E000F8
07C000F8
07C000FC
0F8000FC
0F8000FC
0F8000FC
0F8000FC
1F8000FC
1F8000F8
1F8000F8
1F8000F8
1F8001F8
1F8001F8
1F8001F0
0F8003F0
0FC007E0
0FC007E0
07E00FC0
07F01F80
7FF83FF8
FFF87FFC
FFF87FFC
7FF07FF8
ENDCHAR
STARTCHAR uni03BC
ENCODING 956
SWIDTH 462 0
DWIDTH 17 0
BBX 20 27 1 -10
BITMAP
040400
1E1E00
3E1E00
3C3C00
3C3C00
7C3C00
7C7C00
787C00
787800
78F830
79F870
79F8F0
FFF9F0
FF7FE0
FF7FC0
FE3F80
FC3E00
F00000
F00000
F00000
F00000
F00000
F00000
F00000
F00000
F00000
F00000
ENDCHAR
STARTCHAR pi
ENCODING 960
SWIDTH 496 0
DWIDTH 18 0
BBX 22 18 1 0
BITMAP
FFFFE0
FFFFE0
FFFFE0
FFFFC0
3E1E00
3C1E00
7C3E00
7C3E00
7C3E00
7C3C00
783C18
783C3C
783C38
F83CF8
F83FF0
F83FE0
F81FC0
700F00
ENDCHAR
STARTCHAR uni0400
ENCODING 1024
SWIDTH 686 0
DWIDTH 25 0
BBX 28 42 1 0
BITMAP
00800000
01E00000
03F00000
03F80000
01FC0000
00FE0000
003F0000
000F8000
00038000
00000000
00000000
000FF000
007FFC00
01FFFE00
03FFFF00
07F03F00
0FE01F80
0FC00F80
0F800F80
0F800F80
0F800F00
0F800F00
0FC00E00
07F00000
03FF0000
01FF0000
07FF0000
0FFE0000
3FC00000
3F000000
7E000000
FC000000
FC000000
F8000000
FC000000
FC000020
7E0000F0
7F800FF0
3FFFFFF0
1FFFFFE0
07FFFF00
00FFF000
ENDCHAR
STARTCHAR uni0401
ENCODING 1025
SWIDTH 686 0
DWIDTH 25 0
BBX 28 39 1 0
BITMAP
001E1C00
003E3E00
003E3E00
003E7E00
003E3E00
001C3C00
00000000
00000000
000FF000
007FFC00
01FFFE00
03FFFF00
07F03F00
0FE01F80
0FC00F80
0F800F80
0F800F80
0F800F00
0F800F00
0FC00E00
07F00000
03FF0000
01FF0000
07FF0000
0FFE0000
3FC00000
3F000000
7E000000
FC000000
FC000000
F8000000
FC000000
FC000020
7E0000F0
7F800FF0
3FFFFFF0
1FFFFFE0
07FFFF00
00FFF000
ENDCHAR
STARTCHAR uni0402
ENCODING 1026
SWIDTH 974 0
DWIDTH 35 0
BBX 38 48 1 -17
BITMAP
001FFFFC00
03FFFFFE00
0FFFFFFF00
1FFFFFFE00
3F03E00000
7C07E00000
7807C00000
F807C00000
F807C00000
F807C00000
F80FC00000
780FC00000
780F800000
300F800000
000F83F000
000F8FFC00
001FBFFE00
001FFFFE00
001F7FFF00
001FF83F00
001FE01F00
001FC01F00
001F801F00
003F001F1C
003F003E3C
003E003EFC
003E003FFC
003E003FF0
003E003FE0
003E003F80
001C003F00
000000FE00
000001FC00
000003FC00
000007FC00
00000FF800
00001FF800
00003CF800
00007CF800
000078F000
0000F1F000
0000F1E000
0000F3E000
0000F3C000
0000FFC000
0000FF8000
0000FF0000
00003C0000
ENDCHAR
STARTCHAR uni0403
ENCODING 1027
SWIDTH 635 0
DWIDTH 23 0
BBX 30 42 1 0
BITMAP
00000400
00001E00
00003F00
00007E00
0000FE00
0001F800
0007E000
00078000
00070000
00000000
00000000
007FFFFC
07FFFFFC
1FFFFFFC
3FFFFFF0
7FBF0000
7C3E0000
F83E0000
F83E0000
F83E0000
F87E0000
787C0000
787C0000
307C0000
007C0000
007C0000
00FC0000
00F80000
00F80000
00F80000
00F80000
00F80000
01F80000
01F00000
01F00000
01F00000
01F00000
01F00000
01F00000
01F00000
01F00000
01E00000
ENDCHAR
STARTCHAR uni0404
ENCODING 1028
SWIDTH 687 0
DWIDTH 25 0
BBX 27 31 2 0
BITMAP
000FE000
007FF800
01FFFC00
03FFFE00
07F03E00
0FE03E00
0F803E00
1F803E00
3F003E00
3E003E00
3E003C00
7E000800
7C000000
7C000000
7FFF8000
FFFFC000
FFFFC000
FFFF8000
FC000000
FC000000
FC000000
7C000000
7C000000
7E000000
3F000000
3F8001E0
1FE00FE0
0FFFFFE0
07FFFFC0
01FFFF00
003FF000
ENDCHAR
STARTCHAR uni0405
ENCODING 1029
SWIDTH 693 0
DWIDTH 25 0
BBX 24 31 1 0
BITMAP
003FC0
01FFF8
03FFFC
07FFFE
0FE07E
1F801F
1F001F
1F001F
1F001F
1F001F
1F801E
1FC00C
0FE000
0FFC00
07FF00
01FFC0
00FFF0
001FF8
0007FC
2001FC
78007C
F8007E
F8003E
F8003E
F8007C
F8007C
7E01F8
7FFFF8
3FFFF0
0FFFC0
03FE00
ENDCHAR
STARTCHAR uni0406
ENCODING 1030
SWIDTH 495 0
DWIDTH 18 0
BBX 21 31 -1 0
BITMAP
03FFF0
07FFF8
07FFF8
07FFF0
003E00
003E00
003E00
007E00
007C00
007C00
007C00
007C00
007C00
007C00
00F800
00F800
00F800
00F800
00F800
00F800
01F800
01F000
01F000
01F000
01F000
01F000
01F000
3FFF00
7FFF80
FFFF80
7FFF00
ENDCHAR
STARTCHAR uni0407
ENCODING 1031
SWIDTH 495 0
DWIDTH 18 0
BBX 21 39 -1 0
BITMAP
0070E0
00F9F0
01F9F0
01F9F0
00F1F0
00F0E0
000000
000000
03FFF0
07FFF8
07FFF8
07FFF0
003E00
003E00
003E00
007E00
007C00
007C00
007C00
007C00
007C00
007C00
00F800
00F800
00F800
00F800
00F800
00F800
01F800
01F000
01F000
01F000
01F000
01F000
01F000
3FFF00
7FFF80
FFFF80
7FFF00
ENDCHAR
STARTCHAR uni0408
ENCODING 1032
SWIDTH 743 0
DWIDTH 27 0
BBX 25 34 3 -3
BITMAP
00FFF800
07FFFF00
1FFFFF80
7FFFFF00
7E003F00
F8007E00
F0007C00
F0007C00
F0007C00
F0007C00
F8007C00
F8007C00
70007C00
0000F800
0001F800
0007F800
001FF800
007FF800
00FEF000
01F9F000
03E1F000
07C1F000
0F81E000
1F03E000
1F03E000
1E03C000
3E07C000
3E078000
3E0F8000
3F1F0000
1FFE0000
1FFC0000
0FF80000
03E00000
ENDCHAR
STARTCHAR uni0409
ENCODING 1033
SWIDTH 1158 0
DWIDTH 42 0
BBX 41 31 0 0
BITMAP
000007800000
00000FC00000
00001FC00000
00001FC00000
00001FC00000
00001FC00000
00003F800000
00003F800000
00003F800000
00007F800000
00007F800000
00007F800000
0000F787F000
0000F7BFFC00
0000F7FFFF00
0001FFFFFF00
0001EFE03F80
0003EF801F80
0003EF800F80
0007CF800F80
0007CF800F80
000F8F800F80
000F87C00F80
701F07C01F80
F01F07C01F00
F83E07E03F00
787E03F07E00
7FFC03FFFC00
3FF801FFF800
1FF000FFF000
0FC0003F8000
ENDCHAR
STARTCHAR uni040A
ENCODING 1034
SWIDTH 1182 0
DWIDTH 43 0
BBX 43 31 -1 0
BITMAP
01F000380000
07FC00780000
0FFC00FC0000
1FFE00F80000
3C3E00F80000
783E00F80000
703E00F80000
E03E01F00000
603E01F00000
003E01F00000
003E01F00000
003E01E1F000
003E03FFFF00
003C03FFFF80
007C07FFFFC0
03FFFFF80FE0
07FFFFC007E0
0FFFFFC003E0
07FFE3C003E0
00F807C003E0
00F807C003E0
00F807C003E0
00F807C007E0
01F003C007C0
01F003E00FC0
01F003E00F80
01F003F03F80
03F001FFFF00
03E000FFFE00
03E0007FF800
01C0001FC000
ENDCHAR
STARTCHAR uni040B
ENCODING 1035
SWIDTH 979 0
DWIDTH 35 0
BBX 39 31 1 0
BITMAP
001FFFFC00
03FFFFFE00
0FFFFFFF00
1FFFFFFE00
3F03E00000
7C07E00000
7807C00000
F807C00000
F807C00000
F807C00000
F80FC00000
780FC00000
780F800000
300F800000
000F83F000
000F8FFC00
001FBFFE00
001FFFFE00
001F7FFF00
001FF83F00
001FE01F00
001FC01F00
001F801F00
003F003F04
003F003E0E
003E003E1E
003E003E3E
003E003FFC
003E003FF8
003E003FE0
001C001F80
ENDCHAR
STARTCHAR uni040C
ENCODING 1036
SWIDTH 937 0
DWIDTH 34 0
BBX 37 42 1 0
BITMAP
0000000400
0000000E00
0000003F00
0000007F00
000000FE00
000001FC00
000003F000
000007C000
0000070000
0000000000
0000000000
00FF800380
03FFF007C0
0FFFF00FC0
1FFFF00F80
3F03F00F80
3E07E01F80
3C07C01F00
7C07C03F00
7C07C03E00
7C07C07E00
3C07C07C00
3E07C0F800
3C07C1F000
180F87E000
000F9FC000
003FFF8000
007FFE0000
007FFC0000
003FFF0000
000FBF8000
001F1F8000
001F0FC000
001F0FC000
601F07E018
F03F07E018
F03E03F038
F87E03F8F8
FFFC01FFF0
7FFC00FFE0
3FF0007FC0
0FC0003F00
ENDCHAR
STARTCHAR uni040D
ENCODING 1037
SWIDTH 890 0
DWIDTH 32 0
BBX 37 42 0 0
BITMAP
0010000000
003C000000
007E000000
003F000000
003F800000
000FC00000
0003F00000
0000F00000
0000700000
0000000000
0000000000
01F0003800
0FF8007C00
1FFC007C00
3FFC007C00
7C7C007C00
787C007C00
F07C00FC00
E07C00FC00
407C00F800
007C00F800
00FC00F800
00F801F800
00F801F800
00F801F800
00F801F000
01F803F000
01F003F000
01F007F000
01F007F000
01F007F000
03E00FF000
03E00DE000
03E01FE010
03E03BE038
03E07BE038
03F1F3E070
03FFF3F1F0
03FFE1FFE0
01FFC1FFC0
00FF80FF80
007E007E00
ENDCHAR
STARTCHAR uni040E
ENCODING 1038
SWIDTH 824 0
DWIDTH 30 0
BBX 33 50 1 -9
BITMAP
0000008000
000201C000
000F03C000
000F038000
000F8F8000
0007FF0000
0007FE0000
0001F80000
0000000000
0000000000
07E0007000
1FF000F800
3FF800F800
7FF800F800
F8F801F800
E0F801F800
40F801F000
00F801F000
00F803F000
01F003F000
01F007F000
01F007F000
03F00FE000
03E00FE000
03E01FE000
03F03FE000
03F0FBE000
01FFF3E000
01FFE3C000
00FFC3C100
003F07FF80
000007FF80
000007FF80
00003FFE00
0001FFE000
0003FF8000
000FFF8000
001FCF8000
003F0F8000
007C0F8000
00F80F0000
00F01F0000
00F01F0000
01F03E0000
00F03E0000
00F8FC0000
00FFF80000
00FFF00000
007FE00000
000F000000
ENDCHAR
STARTCHAR uni040F
ENCODING 1039
SWIDTH 890 0
DWIDTH 32 0
BBX 37 38 0 -7
BITMAP
01F0003800
07F8007C00
1FFC007C00
3FFC007C00
7C7C007C00
787C007C00
F07C00FC00
E07C00FC00
C07C00F800
007C00F800
00FC00F800
00FC01F800
00F801F800
00F801F800
00F801F000
01F803F000
01F003F000
01F003F000
01F007F000
01F007F000
03F00FF000
03E00DE000
03E01DE000
03E01FE010
03E03BE038
03E07BE078
03F1F3F0F0
03FFE1FFE0
01FFC1FFC0
00FF80FF80
007E003E00
003C000000
007C000000
007C000000
007C000000
007C000000
007C000000
0078000000
ENDCHAR
STARTCHAR uni0410
ENCODING 1040
SWIDTH 786 0
DWIDTH 28 0
BBX 31 31 2 0
BITMAP
0001FF80
000FFFF0
003FFFF0
00FFFFF0
01FE00E0
03F80000
07E00F00
0FC01F00
1F801F00
1F001F00
3F001F00
3E003F00
7E003E00
7C003E00
7C003E00
7C003E00
FC007E00
F8007C00
F8007C00
F800FC00
F800FC00
F800FC00
F801FC00
FC01FC06
FC03FC0E
7E07FC1E
7F0F7E3C
3FFF7FFC
1FFE3FF8
0FFC3FE0
03F00FC0
ENDCHAR
STARTCHAR uni0411
ENCODING 1041
SWIDTH 917 0
DWIDTH 33 0
BBX 31 32 1 -1
BITMAP
007FFFFC
07FFFFFC
1FFFFFFC
3FFFFFF0
7F0F8000
7C0F8000
F81F0000
F81F0000
F81F0000
F81F0000
781F0000
783F0000
383E0000
003EFFC0
003FFFF0
00FFFFF8
01FFFFFC
03FE00FE
01FC007E
007C003E
007C003E
007C003E
007C003E
00FC003E
00FC007E
00F800FC
00F801FC
00F807F8
00F83FF0
00F8FFE0
00F8FF00
00707800
ENDCHAR
STARTCHAR uni0412
ENCODING 1042
SWIDTH 827 0
DWIDTH 30 0
BBX 30 33 1 -2
BITMAP
001FFE00
01FFFFC0
0FFFFFE0
3FFFFFF8
7FE007F8
FE0001FC
F80000FC
E000007C
01F0007C
01F0007C
03E000FC
03E000F8
03E003F8
03E00FF0
07C3FFE0
07C3FF00
07C3FC00
07C3FF00
07C01F80
0F800FC0
0F8007C0
0F8007C0
0F8007C0
0F8007C0
0F800FC0
1F801F80
1F00FF80
1FFFFF00
1FFFFC00
1FFFF000
1FFF8000
1F000000
0E000000
ENDCHAR
STARTCHAR uni0413
ENCODING 1043
SWIDTH 635 0
DWIDTH 23 0
BBX 30 31 1 0
BITMAP
007FFFFC
07FFFFFC
1FFFFFFC
3FFFFFF0
7FBF0000
7C3E0000
F83E0000
F83E0000
F83E0000
F87E0000
787C0000
787C0000
307C0000
007C0000
007C0000
00FC0000
00F80000
00F80000
00F80000
00F80000
00F80000
01F80000
01F00000
01F00000
01F00000
01F00000
01F00000
01F00000
01F00000
01F00000
01E00000
ENDCHAR
STARTCHAR uni0414
ENCODING 1044
SWIDTH 964 0
DWIDTH 35 0
BBX 33 31 1 0
BITMAP
0003FE0000
003FFFC000
00FFFFF000
03FFFFF800
07F801FC00
07C000FE00
0700007E00
0007003F00
000F801F00
001F001F00
001F001F80
001E001F80
003E000F80
003E000F80
007C000F80
007C000F80
007C001F80
007C001F80
007C001F00
00F8001F00
00F8003F00
1EF8003F00
7FF8003E00
FFF8007E00
FFFC00FC00
F0FF83FC00
E1FFFFF800
FFEFFFF000
FFC7FFE000
7F81FFC000
3F007F0000
ENDCHAR
STARTCHAR uni0415
ENCODING 1045
SWIDTH 686 0
DWIDTH 25 0
BBX 28 31 1 0
BITMAP
000FF000
007FFC00
01FFFE00
03FFFF00
07F03F00
0FE01F80
0FC00F80
0F800F80
0F800F80
0F800F00
0F800F00
0FC00E00
07F00000
03FF0000
01FF0000
07FF0000
0FFE0000
3FC00000
3F000000
7E000000
FC000000
FC000000
F8000000
FC000000
FC000020
7E0000F0
7F800FF0
3FFFFFF0
1FFFFFE0
07FFFF00
00FFF000
ENDCHAR
STARTCHAR uni0416
ENCODING 1046
SWIDTH 1234 0
DWIDTH 44 0
BBX 47 31 1 0
BITMAP
00F800F003F0
03FE01F00FF8
07FF01F01FFC
0FFF01F01FFC
0E1F81F03E3C
040F81F03C18
0007C1F07C00
0007C1E07C00
0007C3E0F800
0003C3E1F800
0003E3E1F000
0003E3E7E000
0001F3EFE000
0000FFFF8000
00007FFF0000
0000FFFC0000
0003FFFF0000
0007F7DF8000
000FC7CF8000
001F87C7C000
001F0F87C000
003F0F83E000
003E0F83E000
007E0F83F004
607C0F81F00E
F0F80F81F81E
F8F80F80FC3C
FFF00F80FFF8
7FE01F007FF0
7FC01F003FE0
1F800E000F80
ENDCHAR
STARTCHAR uni0417
ENCODING 1047
SWIDTH 725 0
DWIDTH 26 0
BBX 23 31 2 0
BITMAP
003F80
01FFE0
07FFF0
0FFFF8
0FC1F8
1F00F8
1F007C
1E0078
1E0078
1E00F8
1E00F8
0001F0
0001E0
0003E0
007FC0
01FFF0
01FFFC
00F87C
00007E
00003E
70003E
F8007E
F8007E
F8007C
F800FC
FC01F8
7E07F8
7FFFF0
3FFFE0
1FFF80
03FC00
ENDCHAR
STARTCHAR uni0418
ENCODING 1048
SWIDTH 890 0
DWIDTH 32 0
BBX 37 31 0 0
BITMAP
01F0003800
0FF8007C00
1FFC007C00
3FFC007C00
7C7C007C00
787C007C00
F07C00FC00
E07C00FC00
407C00F800
007C00F800
00FC00F800
00F801F800
00F801F800
00F801F800
00F801F000
01F803F000
01F003F000
01F007F000
01F007F000
01F007F000
03E00FF000
03E00DE000
03E01FE010
03E03BE038
03E07BE038
03F1F3E070
03FFF3F1F0
03FFE1FFE0
01FFC1FFC0
00FF80FF80
007E007E00
ENDCHAR
STARTCHAR uni0419
ENCODING 1049
SWIDTH 890 0
DWIDTH 32 0
BBX 37 41 0 0
BITMAP
0000004000
000100E000
000380E000
0007C1E000
0003C3C000
0003FFC000
0001FF0000
00007C0000
0000000000
0000000000
01F0003800
0FF8007C00
1FFC007C00
3FFC007C00
7C7C007C00
787C007C00
F07C00FC00
E07C00FC00
407C00F800
007C00F800
00FC00F800
00F801F800
00F801F800
00F801F800
00F801F000
01F803F000
01F003F000
01F007F000
01F007F000
01F007F000
03E00FF000
03E00DE000
03E01FE010
03E03BE038
03E07BE038
03F1F3E070
03FFF3F1F0
03FFE1FFE0
01FFC1FFC0
00FF80FF80
007E007E00
ENDCHAR
STARTCHAR uni041A
ENCODING 1050
SWIDTH 937 0
DWIDTH 34 0
BBX 37 31 1 0
BITMAP
00FF800380
03FFF007C0
0FFFF00FC0
1FFFF00F80
3F03F00F80
3E07E01F80
3C07C01F00
7C07C03F00
7C07C03E00
7C07C07E00
3C07C07C00
3E07C0F800
3C07C1F000
180F87E000
000F9FC000
003FFF8000
007FFE0000
007FFC0000
003FFF0000
000FBF8000
001F1F8000
001F0FC000
001F0FC000
601F07E018
F03F07E018
F03E03F038
F87E03F8F8
FFFC01FFF0
7FFC00FFE0
3FF0007FC0
0FC0003F00
ENDCHAR
STARTCHAR uni041B
ENCODING 1051
SWIDTH 861 0
DWIDTH 31 0
BBX 36 31 0 0
BITMAP
0000078000
00000FC000
00000FC000
00001FC000
00001FC000
00001FC000
00003FC000
00003F8000
00003F8000
00007F8000
00007F8000
00007F8000
0000FF8000
0000F78000
0000FF8000
0001FF8000
0001EF8000
0003EF8000
0003EF8000
0007CF8000
0007C78000
000F87C000
000F87C000
701F07C020
F01F07C070
F83E07E0F0
F87E03E1E0
7FFC03FFC0
3FF801FF80
1FF000FF00
0FC0007C00
ENDCHAR
STARTCHAR uni041C
ENCODING 1052
SWIDTH 1133 0
DWIDTH 41 0
BBX 45 31 0 0
BITMAP
00007801E000
0000FC01F000
0000FC03F000
0001FC03F000
0001FC07F000
0001FC07F000
0001FC0FF000
0001FC0FF000
0003FC0FF000
0003FC1FF000
0003FC1FF000
0003FC3FF000
0003FC3DF000
0007BC3DF000
0007BC7DF000
0007BC79F000
0007BC79F000
000FBCF1F000
000F3CF1F000
000F3CF1F000
001F3DE1F000
001F3FE1F000
001E3FE1F000
703E1FC1F018
F03E1FC1F018
F87C1FC1F038
F87C1F80F878
7FF81F80FFF0
7FF00F807FE0
3FE00F003FC0
0FC007001F00
ENDCHAR
STARTCHAR uni041D
ENCODING 1053
SWIDTH 873 0
DWIDTH 31 0
BBX 37 32 -1 0
BITMAP
0000000780
01F0000FC0
07FC001FE0
0FFC003CE0
1FFE007CE0
3C3E0078E0
783E00F8E0
703E00F0E0
E03E01F0E0
603E01F1E0
003E01E1C0
003E03E3C0
003E03E780
003E03EF80
003C03FF00
007C0FFE00
07FFFFF800
07FFFFE000
0FFFFFC000
07FE07C000
00F807C000
00F807C000
00F807C000
00F807C000
01F007C018
01F003E038
01F003E078
01F003F0F0
03F001FFF0
03E001FFE0
03E000FF80
01C0003E00
ENDCHAR
STARTCHAR uni041E
ENCODING 1054
SWIDTH 816 0
DWIDTH 29 0
BBX 27 31 2 0
BITMAP
000FE000
007FF800
01FFFE00
03FFFF00
07F03F00
0FC01F80
0F800FC0
1F000FC0
3F0007C0
3E0007C0
3E0007E0
7E0007E0
7C0007E0
7C0007E0
7C0007E0
FC0007E0
FC0007C0
FC0007C0
FC0007C0
FC0007C0
FC000F80
7C000F80
7C001F80
7E001F00
7E003E00
3F007E00
1F81FC00
1FFFF800
0FFFF000
03FFC000
00FE0000
ENDCHAR
STARTCHAR uni041F
ENCODING 1055
SWIDTH 892 0
DWIDTH 32 0
BBX 36 31 1 0
BITMAP
001FFFFC00
03FFFFFFE0
0FFFFFFFF0
3FFFFFFFF0
3F9F00F9E0
7C1F00F800
783F00F800
F83E00F800
F83E00F800
F83E00F800
783E01F800
787E01F000
387C01F000
007C01F000
007C01F000
007C03F000
007C03E000
00FC03E000
00F803E000
00F803E000
00F807E000
00F807C000
00F807C000
01F807C030
01F807C070
01F807C0F0
01F007E1E0
01F003FFC0
01F003FF80
01F001FF00
00E0007C00
ENDCHAR
STARTCHAR uni0420
ENCODING 1056
SWIDTH 805 0
DWIDTH 29 0
BBX 28 34 2 -3
BITMAP
0007F800
003FFE00
00FFFF80
01FFFFC0
03F01FC0
07C007E0
0F8007E0
1F0F03E0
1E1F03F0
3E1F03F0
3C1F03F0
7C1F03E0
781F03E0
783F07E0
F83E07C0
F03E0FC0
F03E3F80
F1FFFF00
F3FFFE00
F3FFF800
F1FFC000
F07C0000
F07C0000
F07C0000
F07C0000
F0F80000
F0F80000
F0F80000
78F80000
7DF80000
3FF00000
3FF00000
0FE00000
07C00000
ENDCHAR
STARTCHAR uni0421
ENCODING 1057
SWIDTH 686 0
DWIDTH 25 0
BBX 27 31 2 0
BITMAP
000FE000
007FF800
01FFFC00
03FFFC00
07F07E00
0FC03E00
0F803E00
1F003E00
3F003E00
3E003E00
3E003E00
7C003C00
7C000000
7C000000
7C000000
FC000000
FC000000
FC000000
FC000000
FC000000
FC000000
7C000000
7E000000
7E000000
3F000040
3F8001E0
1FE00FE0
0FFFFFE0
07FFFFC0
01FFFE00
003FF000
ENDCHAR
STARTCHAR uni0422
ENCODING 1058
SWIDTH 697 0
DWIDTH 25 0
BBX 32 31 1 0
BITMAP
001FFFFC
03FFFFFE
0FFFFFFF
3FFFFFFE
7F03E000
7C07E000
F807C000
F807C000
F807C000
F807C000
780FC000
780FC000
300F8000
000F8000
000F8000
000F8000
001F8000
001F0000
001F0000
001F0000
001F0000
001F0000
001F0000
003F0000
003E0000
003E0000
003E0000
003E0000
003E0000
003E0000
001C0000
ENDCHAR
STARTCHAR uni0423
ENCODING 1059
SWIDTH 824 0
DWIDTH 30 0
BBX 33 40 1 -9
BITMAP
07E0007000
1FF000F800
3FF800F800
7FF800F800
F8F801F800
E0F801F800
40F801F000
00F801F000
00F803F000
01F003F000
01F007F000
01F007F000
03F00FE000
03E00FE000
03E01FE000
03F03FE000
03F0FBE000
01FFF3E000
01FFE3C000
00FFC3C100
003F07FF80
000007FF80
000007FF80
00003FFE00
0001FFE000
0003FF8000
000FFF8000
001FCF8000
003F0F8000
007C0F8000
00F80F0000
00F01F0000
00F01F0000
01F03E0000
00F03E0000
00F8FC0000
00FFF80000
00FFF00000
007FE00000
000F000000
ENDCHAR
STARTCHAR uni0424
ENCODING 1060
SWIDTH 977 0
DWIDTH 35 0
BBX 33 44 2 -9
BITMAP
0600000000
0FC0000000
0FFFFC0000
0FFFFE0000
07FFFE0000
00FFFE0000
0000F80000
0000F80000
0000F00000
00F8F0F800
03FEF1FE00
0FFFF7FE00
0FFFFFFF00
1F87EF1F00
3F03FE1F00
3E01FC1F00
7E01F81F80
7C03F01F80
7C03E01F00
FC03E01F00
F803C01F00
F803C01F00
F807C01F00
F80FC03F00
F80FC03E00
F81FC03E00
F83FC07C00
FC7FF0FC00
7FF7FFF800
7FE7FFF000
3FC7FFE000
1F0F9F8000
000F800000
000F800000
000F000000
181F000000
3C1F000000
3C1E000000
3E3E000000
3E3C000000
1FFC000000
1FF8000000
0FF0000000
03E0000000
ENDCHAR
STARTCHAR uni0425
ENCODING 1061
SWIDTH 712 0
DWIDTH 26 0
BBX 31 31 -1 0
BITMAP
01F00070
07FC01F8
1FFC01F0
3FFE03F0
3C7F07E0
783F0FC0
701F1F80
001FBF00
000FBE00
000FFE00
000FFC00
0007F800
0007F000
0007E000
0007C000
000FE000
001FE000
003FE000
007FF000
00FDF000
00F9F000
01F9F000
03F1F800
07E0F806
0FC0F80E
1F80FC1E
3F807C3E
7F007FFC
7E003FF8
FC001FF0
78000FC0
ENDCHAR
STARTCHAR uni0426
ENCODING 1062
SWIDTH 890 0
DWIDTH 32 0
BBX 37 43 0 -12
BITMAP
01F0003800
0FF8007C00
1FFC007C00
3FFC007C00
7C7C007C00
787C007C00
F07C00FC00
E07C00FC00
407C00F800
007C00F800
00FC00F800
00F801F800
00F801F800
00F801F000
00F801F000
01F803F000
01F003F000
01F007F000
01F007F000
01F007F000
03E00FF000
03E00DE000
03E01FE000
03E03BE000
03E07BF030
03F1F3FE78
03FFF3FFF0
03FFE1FFF0
01FFC0FFC0
00FF801F80
007E007E00
000001FC00
000003FC00
00000FFC00
00001FBC00
00003E3C00
00003C7800
00007C7800
00007CF800
00007FF000
00003FF000
00003FE000
00000F8000
ENDCHAR
STARTCHAR uni0427
ENCODING 1063
SWIDTH 773 0
DWIDTH 28 0
BBX 23 31 4 0
BITMAP
3C001C
3E003C
3E003E
3E003E
3E007C
7E007C
7E007C
7C007C
7C007C
7C00FC
7C00FC
FC00FC
F801F8
F801F8
F803F8
FC07F8
FC1FF8
FFFEF8
7FFEF8
7FFCF8
3FF8F0
0FE0F0
0001F0
0001F0
0001F0
0001F0
0001F0
0001F0
0001F0
0001E0
0001E0
ENDCHAR
STARTCHAR uni0428
ENCODING 1064
SWIDTH 1272 0
DWIDTH 46 0
BBX 50 31 0 0
BITMAP
01F0007000E000
0FF8007801F000
1FFC00F801F000
3FFC00F801F000
7C7C00F803F000
787C00F803F000
F07C00F803E000
E07C01F803E000
407C01F003E000
007C01F003E000
00FC01F007E000
00F801F007E000
00F803E007E000
00F803E007C000
00F803E00FC000
01F803E00FC000
01F007C00FC000
01F007C01FC000
01F00FC01FC000
01F00FC03F8000
03E01FC03F8000
03E01FC07F8000
03E03BC07F8040
03E03B80EF80C0
03E077C1EF81C0
03F1F7C3CF83C0
03FFE3FFCFC7C0
03FFC3FF8FFF80
01FFC3FF07FF00
01FF01FE03FE00
007C00F801F800
ENDCHAR
STARTCHAR uni0429
ENCODING 1065
SWIDTH 1272 0
DWIDTH 46 0
BBX 50 43 0 -12
BITMAP
01F0007000E000
0FF8007801F000
1FFC00F801F000
3FFC00F801F000
7C7C00F803F000
787C00F803F000
F07C00F803E000
E07C01F803E000
407C01F003E000
007C01F003E000
00FC01F007E000
00F801F007E000
00F803E007C000
00F803E007C000
00F803E00FC000
01F803E00FC000
01F007C00FC000
01F007C01FC000
01F00FC01F8000
01F00FC03F8000
03E01FC03F8000
03E01FC07F8000
03E03BC07F8000
03E03F80EF8000
03E077C1EFC0C0
03F1F7C3CFF9C0
03FFE7FFCFFFC0
03FFC3FF87FFC0
01FF83FF03FF00
01FF01FE00FE00
007C00F801F800
0000000007F000
000000001FF000
000000003FF000
000000007CF000
00000000F9E000
00000000F1E000
00000001F1E000
00000001F3C000
00000001FFC000
00000001FF8000
00000000FF0000
000000007E0000
ENDCHAR
STARTCHAR uni042A
ENCODING 1066
SWIDTH 863 0
DWIDTH 31 0
BBX 27 30 4 0
BITMAP
001E0000
FFFF0000
FFFF0000
FFFE0000
7FFC0000
00F80000
00F80000
00F00000
01F00000
01F00000
03E7F800
03FFFF00
03FFFF80
0FFFFFC0
3FE00FC0
3FC007C0
3FC007E0
17C007E0
07C007E0
07C007E0
07C007C0
07C007C0
07C007C0
07C00F80
03E01F80
03F07F00
01FFFE00
01FFFC00
00FFF000
003FC000
ENDCHAR
STARTCHAR uni042B
ENCODING 1067
SWIDTH 1078 0
DWIDTH 39 0
BBX 37 31 1 0
BITMAP
01C00000F0
03E00000F8
03E00001F8
03E00001F8
07E00001F0
07C00001F0
07C00001F0
07C00001F0
07C00001F0
0F800001F0
0F800003F0
0F9FE003E0
0FFFFC03E0
0FFFFE03E0
3FFFFF03E0
FF807F03E0
FF001F03E0
FF001F87C0
5F001F87C0
1F001F87C0
1F001F07C0
1F001F07C0
1F001F0FC0
1F003F0FC0
1F003E0F80
0F807E0F80
0FC1FC0F80
0FFFF80F80
07FFF00F80
03FFC00F80
00FF000F00
ENDCHAR
STARTCHAR uni042C
ENCODING 1068
SWIDTH 721 0
DWIDTH 26 0
BBX 25 31 1 0
BITMAP
01C00000
03E00000
03E00000
03E00000
07E00000
07C00000
07C00000
07C00000
07C00000
0F800000
0F800000
0F9FE000
0FFFFC00
0FFFFE00
3FFFFF00
FF807F00
FF001F00
FF001F80
5F001F80
1F001F80
1F001F00
1F001F00
1F001F00
1F003F00
1F003E00
0F807E00
0FC1FC00
0FFFF800
07FFF000
03FFC000
00FF0000
ENDCHAR
STARTCHAR uni042D
ENCODING 1069
SWIDTH 755 0
DWIDTH 27 0
BBX 25 31 2 0
BITMAP
007F0000
03FFE000
0FFFF000
1FFFF800
3F81FC00
3E00FE00
38007E00
30003F00
00003F00
00001F00
00001F00
00001F00
00001F80
00001F00
03FFFF00
07FFFF00
07FFFF00
03FFFF00
00001F00
00003F00
00003E00
F0003E00
F0007E00
F0007C00
F000F800
F801F800
FC07F000
FFFFE000
7FFFC000
3FFF0000
07F80000
ENDCHAR
STARTCHAR uni042E
ENCODING 1070
SWIDTH 1246 0
DWIDTH 45 0
BBX 45 31 -1 0
BITMAP
01F000003C00
07FC001C7F00
0FFC007E7F80
1FFE00FE7FC0
3E3E01FE0FE0
783E01EE03F0
703E03DE03F0
F03E07DE01F0
603E07BC01F8
003E0FBC00F8
003E0FF800F8
003E0FF800F8
003E0FF000F8
003C1FE000F8
007CFFC000F8
07FFFF0000F8
07FFFF0000F8
0FFFFF0000F8
07FC1F0001F8
00F81F0001F0
00F81F0001F0
00F81F0003F0
00F81F8003E0
01F00F8007E0
01F00FC00FC0
01F00FC01F80
01F007F03F00
03F003FFFE00
03E001FFFC00
03E000FFF000
01C0003FC000
ENDCHAR
STARTCHAR uni042F
ENCODING 1071
SWIDTH 850 0
DWIDTH 31 0
BBX 35 31 0 0
BITMAP
0007FC7000
001FFFF000
003FFFF800
007FFFF800
00FC03F000
00F801F000
01F001F000
01F001F000
01F003F000
01F003F000
01F003F000
01F007E000
01F007E000
01F807E000
00FC0FE000
00FFFFE000
007FFFE000
003FFFC000
000FFFC000
00007FC000
0000FBC000
0000F3C000
0001E7C000
6003E7C060
F007C7C0E0
F01F87C1E0
F83F03E3E0
7FFE03FFC0
7FFC03FF80
3FF001FF00
0FC000FC00
ENDCHAR
STARTCHAR uni0430
ENCODING 1072
SWIDTH 470 0
DWIDTH 17 0
BBX 21 17 1 0
BITMAP
01E000
07E800
0FFE00
1FFE00
3F3C00
3E3C00
7C3C00
7C3C00
787C00
F87C10
F87838
F8F870
F8F8F0
7FFFE0
7FBFC0
3F9F80
1E0F00
ENDCHAR
STARTCHAR uni0431
ENCODING 1073
SWIDTH 473 0
DWIDTH 17 0
BBX 21 33 1 0
BITMAP
000700
003F00
03FF00
07FF00
0FFC00
1F8000
1E0000
1E0000
0F0000
0F8000
07C000
03E000
03F000
01F000
00F800
007C00
07FC00
0FFE00
1FFE00
3FFE00
7E7E00
7C7E10
787FF8
783FF8
F83FF8
F83FC0
F87C00
787C00
78F800
7FF800
7FF000
3FE000
0F8000
ENDCHAR
STARTCHAR uni0432
ENCODING 1074
SWIDTH 473 0
DWIDTH 17 0
BBX 20 34 2 0
BITMAP
00E000
03F000
07F800
07F800
0F3800
0F3800
1E3800
1E3800
3E3800
3C7800
3C7000
7C7000
7CF000
78E000
79C000
79C000
FB8000
FBE000
FFF000
FFF800
FEFC00
FCFC00
F8FC20
F8FFF0
F87FF0
F07FF0
F83FC0
F83C00
787C00
7C7800
7FF800
3FF000
1FE000
0F8000
ENDCHAR
STARTCHAR uni0433
ENCODING 1075
SWIDTH 380 0
DWIDTH 14 0
BBX 17 17 1 0
BITMAP
0FC000
3FF000
7FF000
7FF000
70F000
00F000
01E000
07C000
1F8000
3E0180
780380
F80780
F81F80
FFFF00
7FFE00
7FF800
1FE000
ENDCHAR
STARTCHAR uni0434
ENCODING 1076
SWIDTH 479 0
DWIDTH 17 0
BBX 21 34 0 -17
BITMAP
00F000
03F400
07FF00
0FFF00
1F9E00
1F1E00
3E1E00
3E1E00
3C3E00
7C3E18
7C3C78
7C7CF8
7C7FF0
3FFFE0
3FFFC0
1FBF00
0F7E00
00F800
01F800
03F800
07F800
0FF000
1EF000
3CF000
38F000
79E000
71E000
F1E000
E3C000
F7C000
FF8000
FF8000
7F0000
3C0000
ENDCHAR
STARTCHAR uni0435
ENCODING 1077
SWIDTH 393 0
DWIDTH 14 0
BBX 18 17 1 0
BITMAP
03E000
0FF000
1FF800
3FF800
7C7800
787800
787800
F8F000
FBE000
FFC0C0
FF01C0
F807C0
7C1F80
7FFF00
3FFE00
1FFC00
07E000
ENDCHAR
STARTCHAR uni0436
ENCODING 1078
SWIDTH 717 0
DWIDTH 26 0
BBX 29 17 1 0
BITMAP
0F0F0F00
1F8F3F80
3FDE7FC0
3FDE7FC0
3DFEF1C0
39FEF3C0
00FFE3C0
00FDE180
01EDE000
71FFE018
F1FFE038
F1DEE078
F3DEF0F8
FF9EFFF0
FF9E7FE0
FF1C3FC0
3C1C1F00
ENDCHAR
STARTCHAR uni0437
ENCODING 1079
SWIDTH 435 0
DWIDTH 16 0
BBX 22 34 -2 -17
BITMAP
00FC00
03FE00
07FF00
07FF00
070F00
000700
000700
000F00
001E00
007C00
03F818
0FE07C
0F80F8
0FC3F0
07F7E0
03FF80
00FE00
00FC00
01F800
03FC00
07FC00
0F7C00
1E7800
3C7800
3C7800
78F800
70F000
70F000
71F000
F3E000
7FC000
7F8000
7F0000
3E0000
ENDCHAR
STARTCHAR uni0438
ENCODING 1080
SWIDTH 462 0
DWIDTH 17 0
BBX 19 17 2 0
BITMAP
3C1C00
7C3C00
783C00
787800
787800
F87800
F8F800
F0F800
F1F000
F1F060
F3F0E0
F3F1E0
FFF3E0
FEFFC0
FEFF80
7C7F00
387C00
ENDCHAR
STARTCHAR uni0439
ENCODING 1081
SWIDTH 462 0
DWIDTH 17 0
BBX 19 27 2 0
BITMAP
000600
380E00
3C0E00
3C3E00
3FFC00
3FF800
1FF000
07C000
000000
000000
3C1C00
7C3C00
783C00
787800
787800
F87800
F8F800
F0F800
F1F000
F1F060
F3F0E0
F3F1E0
FFF3E0
FEFFC0
FEFF80
7C7F00
387C00
ENDCHAR
STARTCHAR uni043A
ENCODING 1082
SWIDTH 465 0
DWIDTH 17 0
BBX 19 17 2 0
BITMAP
383C00
7CFE00
79FF00
7BFF00
FBCF00
FFCF00
F78F00
F78E00
FF8000
FF8060
FF80E0
FF81E0
FFC3E0
FBFFC0
F9FF80
F0FF00
707C00
ENDCHAR
STARTCHAR uni043B
ENCODING 1083
SWIDTH 549 0
DWIDTH 20 0
BBX 24 17 0 0
BITMAP
000F00
001F00
003F80
003F80
003F00
007F00
007F00
00FF00
30FF00
79EF03
F1EF07
F3EF0F
F3CF9E
FF8FFE
FF87FC
7F07F8
3C03E0
ENDCHAR
STARTCHAR uni043C
ENCODING 1084
SWIDTH 734 0
DWIDTH 26 0
BBX 31 17 0 0
BITMAP
001C0F00
003E1F00
007E3F00
007E3F00
007E7F00
007E7F00
00FEF700
00FEFF00
31EEEF00
79EFEF06
F1EFCF0E
F3CFCF0E
F3CFCF1E
FF8F8FFC
FF8F87F8
7F0707F0
3C0703C0
ENDCHAR
STARTCHAR uni043D
ENCODING 1085
SWIDTH 475 0
DWIDTH 17 0
BBX 20 17 2 0
BITMAP
3C1C00
783C00
783C00
783C00
F87C00
F87800
FFF800
FFF800
FFF800
FFF830
F0F070
F0F0F0
F0F9E0
F0FFC0
F07F80
F07F00
703C00
ENDCHAR
STARTCHAR uni043E
ENCODING 1086
SWIDTH 451 0
DWIDTH 16 0
BBX 20 17 1 0
BITMAP
07E000
0FF000
1FF800
3FFC00
7CFC00
7CFC10
78FFF0
F87FF0
F87FF0
F83FC0
F83C00
F83C00
7C7800
7FF800
3FF000
1FE000
0FC000
ENDCHAR
STARTCHAR uni043F
ENCODING 1087
SWIDTH 496 0
DWIDTH 18 0
BBX 21 17 2 0
BITMAP
383C00
7C7C00
78FE00
79FE00
FBFC00
FBFC00
F73C00
F63C00
FE7C00
FC7830
FC7878
FC7870
F879F0
F87FE0
F87FC0
F07F80
703E00
ENDCHAR
STARTCHAR uni0440
ENCODING 1088
SWIDTH 481 0
DWIDTH 17 0
BBX 26 34 -4 -17
BITMAP
01C78000
03EFE000
03FFE000
03FFF000
03F9F000
03F1F000
03E1F000
03E1F000
03E1F000
03E1E0C0
03E3E1C0
07E3E3C0
07E7C780
0FFFFF80
0FFFFF00
1FFFFC00
1FF8F800
3BC00000
3BC00000
3BC00000
73C00000
73C00000
73C00000
E3C00000
E3C00000
E7800000
E7800000
E7800000
E7800000
EF000000
FF000000
FE000000
7E000000
38000000
ENDCHAR
STARTCHAR uni0441
ENCODING 1089
SWIDTH 368 0
DWIDTH 13 0
BBX 17 17 1 0
BITMAP
03C000
0FE000
1FF000
3FF000
7C7000
7C7000
78F000
F86000
F80000
F80180
F80380
F80780
7C1F00
7FFE00
3FFC00
1FF800
0FE000
ENDCHAR
STARTCHAR uni0442
ENCODING 1090
SWIDTH 744 0
DWIDTH 27 0
BBX 29 17 2 0
BITMAP
383C1E00
7CFC3E00
79FC7F00
79FCFE00
FBFDFE00
FFFFFE00
F77F9E00
FE7F3E00
FE7F3E00
FC7E3C18
FC7E3C38
FC7E3C78
F87C3CF8
F87C3FF0
F87C3FE0
F0783FC0
70381F00
ENDCHAR
STARTCHAR uni0443
ENCODING 1091
SWIDTH 479 0
DWIDTH 17 0
BBX 21 34 0 -17
BITMAP
0F0700
1F0F00
1E0F00
1E1E00
1E1E00
3E1E00
3E3E00
3C3E00
3C7E00
3C7E18
3CFC38
3CFCF8
3FFDF8
3FFFE0
3FBFC0
1F3F00
0E7E00
00F800
01F800
03F800
07F800
0FF000
1EF000
3CF000
38F000
71E000
F1E000
F1E000
E3C000
F7C000
FF8000
FF0000
7F0000
3C0000
ENDCHAR
STARTCHAR uni0444
ENCODING 1092
SWIDTH 721 0
DWIDTH 26 0
BBX 30 41 1 -12
BITMAP
00038000
00078000
00078000
000F8000
000F8000
000F0000
000F0000
000F0000
001F0000
001E0000
001E0000
001E0000
01FE7800
07FEFC00
0FFDFE00
1FFFFE00
3F3F1E00
3E3E1F00
7C3E1F00
7C3E1E00
787E1E00
F87C3E08
F87C3E1C
F8FC7C38
F8FCFC78
7FFFFFF0
7FFFFFE0
3F7FFFC0
1E7F8F00
00780000
00780000
00780000
00780000
00780000
00780000
00780000
00780000
00780000
00780000
00780000
00700000
ENDCHAR
STARTCHAR uni0445
ENCODING 1093
SWIDTH 529 0
DWIDTH 19 0
BBX 23 17 1 0
BITMAP
0F07C0
1FCFC0
3FDFE0
3FFFC0
3DF9C0
39F9C0
00F800
00F000
01F000
71F00E
F1F01E
F1F81E
F3F87C
FFFFF8
FFFFF0
FF3FE0
3C1F80
ENDCHAR
STARTCHAR uni0446
ENCODING 1094
SWIDTH 501 0
DWIDTH 18 0
BBX 20 28 2 -11
BITMAP
3C1C00
7C3C00
783C00
787800
787800
F87800
F8F800
F0F800
F1F000
F1F000
F3F000
F3F070
FFF0F0
FEFFE0
FEFFC0
7C7F80
387E00
00FC00
03F800
07B800
0F7800
1E7800
1C7000
3CF000
3FE000
1FE000
1FC000
0F0000
ENDCHAR
STARTCHAR uni0447
ENCODING 1095
SWIDTH 555 0
DWIDTH 20 0
BBX 25 20 0 0
BITMAP
00400000
01F00000
01F00000
03FFF000
03FFF000
03BFF000
079FF000
0787E000
070F8000
0F1F0000
0E3E0000
1E7C0000
3C780380
78F80780
F8F80F00
F0F83F00
E07FFE00
C07FFC00
003FF000
001FC000
ENDCHAR
STARTCHAR uni0448
ENCODING 1096
SWIDTH 693 0
DWIDTH 25 0
BBX 28 17 2 0
BITMAP
3C381C00
7C3C3C00
78783C00
78783C00
78787C00
F8F87800
F8F87800
F0F8F800
F1F8F800
F1F1F820
F1F1F070
F3F3F0E0
FFFFF1E0
FFFFFFC0
FE7EFF80
7C7E7F00
38383C00
ENDCHAR
STARTCHAR uni0449
ENCODING 1097
SWIDTH 732 0
DWIDTH 26 0
BBX 28 28 2 -11
BITMAP
3C381C00
7C3C3C00
78783C00
78783C00
78787C00
F8F87800
F8F87800
F0F8F800
F1F8F800
F1F1F000
F1F1F000
F3F3F070
FFFFF8F0
FFFFFFF0
FE7E7FE0
7C7E7F80
38387F00
0000FC00
0001FC00
0007F800
000F3800
000E7800
001C7800
001CF000
001FF000
001FE000
001FC000
000F8000
ENDCHAR
STARTCHAR uni044A
ENCODING 1098
SWIDTH 542 0
DWIDTH 20 0
BBX 23 18 1 0
BITMAP
700000
FFE000
7FE000
3FC000
0F0000
1F3C00
1EFE00
3FFF00
3FFF00
3F1F00
3E0F06
3C0F0E
3E0F1E
3E1F3C
3FFFFC
1FFFF8
0FFFE0
03F7C0
ENDCHAR
STARTCHAR uni044B
ENCODING 1099
SWIDTH 702 0
DWIDTH 25 0
BBX 28 17 2 0
BITMAP
3C003C00
7C003C00
7C007C00
78007C00
78F0FC00
FBF8F800
FFF9F800
FFFFF800
FC3FF800
F83FF830
F03FF070
F83EF0F0
F87CF9E0
7FFCFFC0
7FF87F80
3FE07F00
0F803E00
ENDCHAR
STARTCHAR uni044C
ENCODING 1100
SWIDTH 517 0
DWIDTH 19 0
BBX 21 17 2 0
BITMAP
3C0000
7C0000
7C0000
780000
78F000
FBF800
FFFC00
FFFC00
FC3C00
F83E18
F03E38
F83C78
F87CF8
7FFFF0
7FFFE0
3FFF80
0FDF00
ENDCHAR
STARTCHAR uni044D
ENCODING 1101
SWIDTH 466 0
DWIDTH 17 0
BBX 21 17 1 0
BITMAP
0FE000
3FF800
3FFC00
3FFC00
107E00
003E00
001E30
03FFF8
03FFF0
73FFF0
F01E00
F03E00
F87E00
FFFC00
7FF800
3FF000
0FC000
ENDCHAR
STARTCHAR uni044E
ENCODING 1102
SWIDTH 676 0
DWIDTH 24 0
BBX 27 17 2 0
BITMAP
3C07C000
781FE000
783FF000
787FF800
F8F9F800
F8F9FC00
FFF1FFE0
FFF0FFE0
FFF0FFE0
FFF07F80
F1F07800
F0F07800
F0F8F800
F0FFF000
F07FE000
F03FC000
701F8000
ENDCHAR
STARTCHAR uni044F
ENCODING 1103
SWIDTH 543 0
DWIDTH 20 0
BBX 24 17 0 0
BITMAP
007EC0
01FFE0
03FFC0
03C1C0
0383C0
0383C0
0387C0
03C780
13FF80
79FF83
F0FF87
F03B8F
F87F9F
FFF7FE
FFE3FC
7FC3F8
1F01E0
ENDCHAR
STARTCHAR uni0450
ENCODING 1104
SWIDTH 393 0
DWIDTH 14 0
BBX 18 30 1 0
BITMAP
1C0000
3C0000
3E0000
3E0000
1F0000
0F0000
078000
078000
03C000
01C000
00C000
000000
000000
03E000
0FF000
1FF800
3FF800
7C7800
787800
787800
F8F000
FBE000
FFC0C0
FF01C0
F807C0
7C1F80
7FFF00
3FFE00
1FFC00
07E000
ENDCHAR
STARTCHAR uni0451
ENCODING 1105
SWIDTH 393 0
DWIDTH 14 0
BBX 18 25 1 0
BITMAP
0E1E00
1F3E00
1F3E00
1F3E00
1F3E00
1E1C00
000000
000000
03E000
0FF000
1FF800
3FF800
7C7800
787800
787800
F8F000
FBE000
FFC0C0
FF01C0
F807C0
7C1F80
7FFF00
3FFE00
1FFC00
07E000
ENDCHAR
STARTCHAR uni0452
ENCODING 1106
SWIDTH 514 0
DWIDTH 19 0
BBX 21 47 1 -17
BITMAP
038000
07C000
078000
0F8000
0F8000
7FFE00
7FFE00
7FFE00
1FFC00
1F0000
1E0000
3E0000
3E0000
3E0E00
3E3F00
3C7F00
3CFF00
3DFF00
7DFE00
7F9E00
7F9E00
7F1E00
7F1E18
7E3E38
7E3EF8
7E3DF8
7C3FE0
7C3FC0
7C3F00
383E00
007C00
00F800
03F800
07F800
0F7800
1E7800
1CF000
3CF000
78F000
71E000
71E000
F3E000
F3C000
FF8000
FF8000
7F0000
3C0000
ENDCHAR
STARTCHAR uni0453
ENCODING 1107
SWIDTH 380 0
DWIDTH 14 0
BBX 17 30 1 0
BITMAP
003000
007800
007800
00F800
00F000
01F000
01E000
03C000
038000
038000
030000
000000
000000
0FC000
3FF000
7FF000
7FF000
70F000
00F000
01E000
07C000
1F8000
3E0180
780380
F80780
F81F80
FFFF00
7FFE00
7FF800
1FE000
ENDCHAR
STARTCHAR uni0454
ENCODING 1108
SWIDTH 379 0
DWIDTH 14 0
BBX 17 17 1 0
BITMAP
07E000
0FF800
3FF800
3FF800
7C3800
7C3800
F80000
FFC000
FFC000
FFC180
F80380
F80780
7C1F80
7FFF00
3FFE00
1FF800
07E000
ENDCHAR
STARTCHAR uni0455
ENCODING 1109
SWIDTH 427 0
DWIDTH 15 0
BBX 20 18 0 -1
BITMAP
00E000
01E000
03E000
03C000
07C000
07C000
0FE000
0FF000
1FF000
1CF830
3CFC70
787CF0
F07DF0
E7FFE0
E7FFC0
07FF80
07FE00
03E000
ENDCHAR
STARTCHAR uni0456
ENCODING 1110
SWIDTH 246 0
DWIDTH 9 0
BBX 12 25 2 0
BITMAP
1E00
3F00
7F00
7F00
3E00
3C00
0000
0000
3800
7C00
7800
7800
7800
F800
F800
F000
F000
F060
F0F0
F0E0
F1E0
FFC0
FF80
7F00
3C00
ENDCHAR
STARTCHAR uni0457
ENCODING 1111
SWIDTH 246 0
DWIDTH 9 0
BBX 14 25 0 0
BITMAP
7070
F8F8
F8F8
F8F8
F8F0
70F0
0000
0000
0E00
1F00
1E00
1E00
1E00
3E00
3E00
3C00
3C00
3C18
3C3C
3C38
3C78
3FF0
3FE0
1FC0
0F00
ENDCHAR
STARTCHAR uni0458
ENCODING 1112
SWIDTH 254 0
DWIDTH 9 0
BBX 21 42 -8 -17
BITMAP
000F00
001F80
001F80
001F80
001F80
000F00
000000
000000
000E00
001F00
001E00
001E00
001E00
001E00
003E00
003E00
003E00
003E18
003C78
003CF8
003DF0
003FE0
003F80
007F00
007E00
00F800
01F800
03F800
07F800
0FF000
1EF000
3CF000
38F000
71E000
71E000
F1E000
E3C000
F7C000
FF8000
FF0000
7F0000
3C0000
ENDCHAR
STARTCHAR uni0459
ENCODING 1113
SWIDTH 794 0
DWIDTH 29 0
BBX 33 17 0 0
BITMAP
000F000000
001F800000
003F800000
003F800000
003F8E0000
007F3F8000
007F7FC000
00FFFFC000
70FFC7C000
79EF83E180
F1EF03C380
F3CF83C780
F3C787CF80
FF87FFFF00
FF87FFFE00
7F03FFF800
3C00FDF000
ENDCHAR
STARTCHAR uni045A
ENCODING 1114
SWIDTH 751 0
DWIDTH 27 0
BBX 30 17 2 0
BITMAP
3C1C0000
783C0000
783C0000
783C0000
F87CF000
F87BFC00
FFFFFC00
FFFFFE00
FFFE3E00
FFFC3E1C
F0783E1C
F0783E3C
F07C7C78
F07FFFF0
F03FFFE0
F01FFFC0
700FCF00
ENDCHAR
STARTCHAR uni045B
ENCODING 1115
SWIDTH 502 0
DWIDTH 18 0
BBX 21 31 2 0
BITMAP
020000
0F8000
0F8000
0F0000
1F0000
1F0000
FFF800
FFFC00
FFFC00
7FF800
3E0000
3C0000
3C0000
7C0000
7C1C00
7C7E00
78FE00
79FE00
7BFE00
FBFC00
FF3C00
FF3C00
FE3C00
FE7C18
FC7838
FC7878
FC7CF0
F87FE0
F87FC0
F83F80
701E00
ENDCHAR
STARTCHAR uni045C
ENCODING 1116
SWIDTH 465 0
DWIDTH 17 0
BBX 19 30 2 0
BITMAP
001C00
001E00
003E00
003E00
007C00
007800
007800
00F000
00E000
01C000
00C000
000000
000000
383C00
7CFE00
79FF00
7BFF00
FBCF00
FFCF00
F78F00
F78E00
FF8000
FF8060
FF80E0
FF81E0
FFC3E0
FBFFC0
F9FF80
F0FF00
707C00
ENDCHAR
STARTCHAR uni045D
ENCODING 1117
SWIDTH 462 0
DWIDTH 17 0
BBX 19 30 2 0
BITMAP
1C0000
3C0000
3E0000
3E0000
1F0000
0F0000
078000
078000
03C000
01C000
00C000
000000
000000
3C1C00
7C3C00
783C00
787800
787800
F87800
F8F800
F0F800
F1F000
F1F060
F3F0E0
F3F1E0
FFF3E0
FEFFC0
FEFF80
7C7F00
387C00
ENDCHAR
STARTCHAR uni045E
ENCODING 1118
SWIDTH 479 0
DWIDTH 17 0
BBX 21 44 0 -17
BITMAP
000180
0E0380
0F0380
0F0F80
0FFF00
0FFE00
07FC00
01F000
000000
000000
0F0700
1F0F00
1E0F00
1E1E00
1E1E00
3E1E00
3E3E00
3C3E00
3C7E00
3C7E18
3CFC38
3CFCF8
3FFDF8
3FFFE0
3FBFC0
1F3F00
0E7E00
00F800
01F800
03F800
07F800
0FF000
1EF000
3CF000
38F000
71E000
F1E000
F1E000
E3C000
F7C000
FF8000
FF0000
7F0000
3C0000
ENDCHAR
STARTCHAR uni045F
ENCODING 1119
SWIDTH 600 0
DWIDTH 22 0
BBX 19 21 2 -4
BITMAP
3C1C00
7C3C00
783C00
787800
787800
F87800
F8F800
F0F800
F1F000
F1F060
F3F0E0
F3F1E0
FFF3E0
FEFFC0
FEFF80
7C7F00
387C00
380000
780000
380000
300000
ENDCHAR
STARTCHAR uni0462
ENCODING 1122
SWIDTH 721 0
DWIDTH 26 0
BBX 25 31 1 0
BITMAP
01C00000
03E00000
03E00000
03E00000
3FFE0000
7FFE0000
7FFE0000
07C00000
07C00000
0F800000
0F800000
0F9FE000
0FFFFC00
0FFFFE00
7FFFFF00
FF807F00
FF001F00
FF001F80
5F001F80
1F001F80
1F001F00
1F001F00
1F001F00
1F003F00
1F003E00
0F807E00
0FC1FC00
0FFFF800
07FFF000
03FFC000
00FF0000
ENDCHAR
STARTCHAR uni0463
ENCODING 1123
SWIDTH 517 0
DWIDTH 19 0
BBX 22 24 1 0
BITMAP
020000
0F0000
1F0000
1F0000
1F0000
1E0000
FFE000
FFF000
FFF000
7FE000
7C0000
7C7800
7DFC00
7FFE00
7FFE00
7E1E00
7C1F0C
781F1C
7C1E3C
7C3E7C
7FFFF8
3FFFF0
1FFFC0
07EF80
ENDCHAR
STARTCHAR uni046A
ENCODING 1130
SWIDTH 1234 0
DWIDTH 44 0
BBX 47 31 1 0
BITMAP
01FFFFFFFFF0
03FFFFFFFFF0
03FFFFFFFFF0
01FFFFFFFFE0
000F80003E00
000F80007C00
0007C0007C00
0007C000F800
0007C000F800
0003C001F800
0003E003F000
0003E007E000
0001F01FC000
0000FFFF8000
00007FFE0000
0000FFFC0000
0003FFFF0000
0007F7DF8000
000FC7CF8000
001F87C7C000
001F0F87C000
003F0F83E000
003E0F83E000
007E0F83F004
607C0F81F00E
F0F80F81F81E
F8F80F80FC3C
FFF00F80FFF8
7FE01F007FF0
7FC01F003FE0
1F800E000F80
ENDCHAR
STARTCHAR uni046B
ENCODING 1131
SWIDTH 788 0
DWIDTH 28 0
BBX 32 31 1 0
BITMAP
00003C00
00007C00
0000FC00
0000FC00
0000FC00
0000FC00
0001FC00
0001DC00
0001DC00
0003FC00
0003FC00
0003BC00
0007B800
0007B800
00F7B9E0
01FF3BF0
01FF3FF0
01FF3FE0
003E3E00
001E3C00
003E3C00
003E7800
007E7C00
707EFC03
F0FEFC07
F1FEFC0F
F3EFDE1E
FFCFDFFE
FFCF8FFC
FF0F87F8
3C0703E0
ENDCHAR
STARTCHAR uni0472
ENCODING 1138
SWIDTH 816 0
DWIDTH 29 0
BBX 27 31 2 0
BITMAP
000FE000
007FF800
01FFFE00
03FFFF00
07F03F00
0FC01F80
0F800FC0
1F000FC0
3F0007C0
3E0007C0
3E0007E0
7C0007E0
7DF007E0
7FFC07E0
7FFFFFE0
FFFFFFE0
FE0FFFC0
FC03FFC0
FC0007C0
FC000FC0
FC000F80
7C000F80
7C001F80
7E003F00
7E003E00
3F007E00
1F81FC00
1FFFF800
0FFFF000
03FFC000
00FE0000
ENDCHAR
STARTCHAR uni0473
ENCODING 1139
SWIDTH 451 0
DWIDTH 16 0
BBX 20 17 1 0
BITMAP
07E000
0FF000
1FF800
3FFC00
7C7C00
783C00
783FF0
FE3FF0
FFFFF0
FFFFF0
FFFF80
F83C00
7C7C00
7FF800
3FF000
1FE000
0FC000
ENDCHAR
STARTCHAR uni0474
ENCODING 1140
SWIDTH 797 0
DWIDTH 29 0
BBX 32 31 4 0
BITMAP
1C0007F8
3E000FFE
7E000FFF
7E000FFF
7C001F8E
7C001F80
7C001F00
7C001F00
7C001F00
7C003F00
7C003E00
FC003E00
FC003E00
FC007C00
FC007C00
FC007C00
FC00F800
7C00F800
7C01F000
7C01F000
7C03F000
7C03E000
7C07E000
7E07C000
3E0F8000
3F1F8000
3FFF0000
1FFE0000
0FFC0000
0FF80000
03E00000
ENDCHAR
STARTCHAR uni0475
ENCODING 1141
SWIDTH 420 0
DWIDTH 15 0
BBX 18 17 2 0
BITMAP
F01F00
F03FC0
F03FC0
F07D80
F07800
F0F800
F0F000
F1F000
F1E000
F3E000
F3C000
FFC000
FF8000
FF8000
7F0000
7E0000
3C0000
ENDCHAR
STARTCHAR uni048A
ENCODING 1162
SWIDTH 890 0
DWIDTH 32 0
BBX 37 49 0 -8
BITMAP
000000E000
000380E000
0007C1E000
0007C3E000
0003FFC000
0003FF8000
0001FF0000
00007C0000
0000000000
0000000000
01F0003800
0FF8007C00
1FFC007C00
3FFC007C00
7C7C007C00
787C007C00
F07C00FC00
E07C00FC00
407C00F800
007C00F800
00FC00F800
00F801F800
00F801F800
00F801F800
00F801F000
01F803F000
01F003F000
01F007F000
01F007F000
01F007F000
03E00FF000
03E00DE000
03E01FE010
03E03BE038
03E07BE078
03F1F3F0F0
03FFF3FFF0
03FFE1FFE0
01FFC1FFC0
00FF80FF80
007E007F00
0000001E00
0000003E00
0000007C00
0000007800
000000F800
000000F000
000001F000
000000E000
ENDCHAR
STARTCHAR uni048B
ENCODING 1163
SWIDTH 462 0
DWIDTH 17 0
BBX 19 34 2 -6
BITMAP
000200
100600
3C0E00
3C1E00
3C3C00
3FFC00
1FF800
0FF000
07C000
000000
000000
3C1C00
7C3C00
783C00
787800
787800
F87800
F8F800
F0F800
F1F000
F1F060
F3F0E0
F3F1E0
FFF3E0
FEFFC0
FEFF80
7C7F00
387E00
003C00
007800
00F800
00F000
01E000
01E000
ENDCHAR
STARTCHAR uni048C
ENCODING 1164
SWIDTH 721 0
DWIDTH 26 0
BBX 25 31 1 0
BITMAP
01C00000
03E00000
03E00000
03E00000
3FFE0000
7FFE0000
7FFE0000
07C00000
07C00000
0F800000
0F800000
0F9FE000
0FFFFC00
0FFFFE00
7FFFFF00
FF807F00
FF001F00
FF001F80
5F001F80
1F001F80
1F001F00
1F001F00
1F001F00
1F003F00
1F003E00
0F807E00
0FC1FC00
0FFFF800
07FFF000
03FFC000
00FF0000
ENDCHAR
STARTCHAR uni048D
ENCODING 1165
SWIDTH 517 0
DWIDTH 19 0
BBX 22 24 1 0
BITMAP
020000
0F0000
1F0000
1F0000
1F0000
1E0000
FFE000
FFF000
FFF000
7FE000
7C0000
7C7800
7DFC00
7FFE00
7FFE00
7E1E00
7C1F0C
781F1C
7C1E3C
7C3E7C
7FFFF8
3FFFF0
1FFFC0
07EF80
ENDCHAR
STARTCHAR uni048E
ENCODING 1166
SWIDTH 805 0
DWIDTH 29 0
BBX 30 35 2 -4
BITMAP
0007F800
003FFE00
00FFFF80
01FFFFC0
03F01FC0
07C007E0
0F8003E0
0F0F03E0
1E1F03F0
3E1F03F0
3C1F1BF0
3C1F3FE0
781F3FE0
783F0FF0
783E07FC
F03E0FFC
F03E3F9C
F1FFFF00
F3FFFE00
F3FFF800
F1FFC000
F07C0000
F07C0000
F07C0000
F07C0000
F0F80000
F0F80000
F0F80000
F8F80000
7DF80000
7FF80000
3FF00000
3FF00000
1FE00000
07C00000
ENDCHAR
STARTCHAR uni048F
ENCODING 1167
SWIDTH 481 0
DWIDTH 17 0
BBX 26 34 -4 -17
BITMAP
01C78000
03EFE000
03FFE000
03FFF000
03F9F000
03F1F000
03E1F000
03E1F000
03E1F000
03EDE0C0
03EFE1C0
07EFE3C0
07EFC780
0FFFFF80
0FFFFF00
1FFFFC00
1FF8F800
3BC00000
3BC00000
3BC00000
73C00000
73C00000
73C00000
E3C00000
E3C00000
E7800000
E7800000
E7800000
E7800000
E7000000
FF000000
FE000000
7E000000
38000000
ENDCHAR
STARTCHAR uni0490
ENCODING 1168
SWIDTH 645 0
DWIDTH 23 0
BBX 31 40 1 0
BITMAP
00000008
0000001E
0000001E
0000001E
0000001E
0000001E
0000003E
0000003E
0000003C
007FFFFC
07FFFFFC
1FFFFFF8
3FFFFFE0
7F3F0000
7C3E0000
F83E0000
F83E0000
F83E0000
F87E0000
787C0000
787C0000
387C0000
007C0000
007C0000
00FC0000
00F80000
00F80000
00F80000
00F80000
00F80000
01F80000
01F00000
01F00000
01F00000
01F00000
01F00000
01F00000
01F00000
01F00000
01E00000
ENDCHAR
STARTCHAR uni0491
ENCODING 1169
SWIDTH 394 0
DWIDTH 14 0
BBX 13 23 2 0
BITMAP
0010
0038
0038
0038
0078
0078
3FF8
7FF8
7FF0
7FC0
F800
F800
F000
F000
F000
F000
F000
F000
F000
F000
F000
F000
7000
ENDCHAR
STARTCHAR uni0492
ENCODING 1170
SWIDTH 635 0
DWIDTH 23 0
BBX 30 31 1 0
BITMAP
007FFFFC
07FFFFFC
1FFFFFFC
3FFFFFF0
7F3F0000
7C3E0000
F83E0000
F83E0000
F83E0000
F87E0000
F87C0000
787C0000
787C0000
007C0000
07FFC000
0FFFE000
07FFC000
00F80000
00F80000
00F80000
00F80000
01F80000
01F80000
01F00000
01F00000
01F00000
01F00000
01F00000
01F00000
01F00000
01E00000
ENDCHAR
STARTCHAR uni0493
ENCODING 1171
SWIDTH 380 0
DWIDTH 14 0
BBX 18 17 0 0
BITMAP
07E000
1FF800
3FF800
3FF800
387800
007800
01F800
F7F000
7FC000
3FE0C0
3FE1C0
7C03C0
7C0FC0
7FFF80
3FFF00
3FFC00
0FF000
ENDCHAR
STARTCHAR uni0494
ENCODING 1172
SWIDTH 884 0
DWIDTH 32 0
BBX 35 48 1 -17
BITMAP
007FFFFC00
03FFFFFC00
0FFFFFFC00
3FFFFFF000
7FBF000000
7C3E000000
783E000000
F83E000000
F83E000000
F87E000000
F87E000000
787C000000
787C000000
307C000000
007C1F8000
00FC7FE000
00FDFFF000
00FBFFF000
00FFFFF000
00FFC3F800
00FF01F800
01FC01F800
01FC01F800
01F801F0C0
01F001F3E0
01F001F7E0
01F001FFC0
01F001FF80
01F001FF00
01F001FC00
01E003F800
000007E000
00000FE000
00001FE000
00007FC000
0000FFC000
0000F7C000
0001E7C000
0003C78000
0007CF8000
00078F8000
00078F0000
000F1F0000
000FBE0000
000FFE0000
0007FC0000
0007F80000
0003E00000
ENDCHAR
STARTCHAR uni0495
ENCODING 1173
SWIDTH 441 0
DWIDTH 16 0
BBX 19 28 1 -11
BITMAP
0FC000
3FF000
7FF000
7FF000
70F000
00F000
01E000
07C000
1F8000
3E0000
780000
F800E0
F813E0
FFFFC0
7FFF80
7FFF00
1FFC00
03F000
07F000
0FF000
1EF000
3CE000
39E000
79E000
7FC000
7F8000
3F8000
1E0000
ENDCHAR
STARTCHAR uni0496
ENCODING 1174
SWIDTH 1234 0
DWIDTH 44 0
BBX 48 43 1 -12
BITMAP
00F800F003F0
03FE01F00FF8
07FF01F01FFC
0FFF01F01FFC
0E1F81F03E3C
040F81F03C18
0007C1F07C00
0007C1E07800
0007C3E0F800
0003C3E1F800
0003E3E1F000
0003E3E7E000
0001F3EFC000
0000FFFF8000
00007FFE0000
0000FFFE0000
0003FFFF0000
0007F7DF8000
000FC7CFC000
001F87C7C000
001F0F87E000
003F0F83E000
003E0F83E000
007E0F83F000
707C0F81F802
F0F80F81F807
F8F80F80FFDF
FFF00F807FFF
7FE01F003FFC
3FC01F001FF8
1F800E000FE0
000000001FC0
000000007FC0
00000000FFC0
00000001F780
00000003E780
00000007C780
000000078F80
000000078F00
00000007FF00
00000007FE00
00000003FC00
00000001F000
ENDCHAR
STARTCHAR uni0497
ENCODING 1175
SWIDTH 803 0
DWIDTH 29 0
BBX 32 28 1 -11
BITMAP
0F0F0F00
1F8F3F80
3FDE7FC0
3FDE7FC0
3DFEF1C0
39FEF3C0
00FFE3C0
00FDE180
01EDE000
71FFE000
F1FFE002
F1DEE007
F3DEF09F
FF9EFFFE
FF9E7FFC
FF1C3FF0
3C1C1FE0
00000F80
00001F80
00007F80
0000F780
0001E700
0001CF00
0003CF00
0003FE00
0003FC00
0001FC00
0000F000
ENDCHAR
STARTCHAR uni0498
ENCODING 1176
SWIDTH 725 0
DWIDTH 26 0
BBX 23 43 2 -12
BITMAP
003F80
01FFE0
07FFF0
0FFFF8
0FC1F8
1F00F8
1F007C
1E0078
1E0078
1E00F8
1E00F8
0001F0
0001E0
0003E0
007FC0
01FFF0
01FFFC
00F87C
00007E
00003E
70003E
F8007E
F8007E
F8007C
F800FC
FC01FC
7E07F8
7FFFF0
3FFFE0
1FFF80
03FF80
007F80
00FF80
03EF00
07CF00
078F00
0F8F00
0F1E00
0F1E00
0FFE00
0FFC00
07F800
03E000
ENDCHAR
STARTCHAR uni0499
ENCODING 1177
SWIDTH 445 0
DWIDTH 16 0
BBX 19 28 1 -11
BITMAP
07E000
1FF800
3FF800
787C00
787C00
707C00
00F800
03F000
07C000
07F000
00F840
6078E0
E07BE0
F0FFC0
FFFF80
7FFE00
1FFC00
01F000
07F000
0FF000
1EE000
3CE000
39E000
39E000
3FC000
3F8000
3F8000
0E0000
ENDCHAR
STARTCHAR uni049A
ENCODING 1178
SWIDTH 937 0
DWIDTH 34 0
BBX 37 43 1 -12
BITMAP
00FF800380
03FFF007C0
0FFFF00FC0
1FFFF00F80
3F03F00F80
3E07E01F80
3C07C01F00
7C07C03F00
7C07C03E00
7C07C07E00
3C07C07C00
3E07C0F800
3C07C1F000
180F87E000
000F9FC000
003FFF8000
007FFE0000
007FFC0000
003FFF0000
000FBF8000
001F1F8000
001F0FC000
001F07C000
E01F07E000
F03F07E018
F03E03F038
F87E03FFF8
7FFC01FFF8
7FFC00FFE0
3FF0007FC0
0FC0007F00
000000FE00
000003FE00
000007FE00
00000F9E00
00001F3C00
00003E3C00
00003E3C00
00003E7800
00003FF800
00003FF000
00001FE000
00000FC000
ENDCHAR
STARTCHAR uni049B
ENCODING 1179
SWIDTH 531 0
DWIDTH 19 0
BBX 21 28 2 -11
BITMAP
383C00
7CFE00
79FF00
7BFF00
FBCF00
FFCF00
F78F00
F78E00
FF8000
FF8000
FF8000
FF8038
FFC278
FBFFF8
FBFFE0
F1FFC0
703F00
007E00
01FC00
03FC00
079C00
0F3C00
0E3800
0E7800
0FF000
0FF000
0FE000
078000
ENDCHAR
STARTCHAR uni049C
ENCODING 1180
SWIDTH 937 0
DWIDTH 34 0
BBX 37 31 1 0
BITMAP
00FF800380
03FFF007C0
0FFFF00FC0
1FFFF00F80
3F03F00F80
3E07E01F80
3C07C01F00
7C07C03F00
7C07C03E00
7C07DC7E00
3C07DC7C00
3E07DCF800
3C07DDF000
180F9FE000
000F9FC000
003FFF8000
007FFE0000
007FFC0000
003FFF0000
000FBF8000
001F3F8000
001F3FC000
001F7FC000
601F7FE018
E03F77E018
F03E73F038
F87E33F878
FFFC01FFF0
7FFC00FFE0
3FF0007FC0
0FC0003F00
ENDCHAR
STARTCHAR uni049D
ENCODING 1181
SWIDTH 485 0
DWIDTH 17 0
BBX 20 17 2 0
BITMAP
383E00
7C7F00
78FF80
78FF80
F9E780
FDC780
F5C700
FDC600
FFC000
FF8030
FFC070
FFC0F0
FFE1F0
F5FFE0
F5FFC0
F0FF80
707E00
ENDCHAR
STARTCHAR uni049E
ENCODING 1182
SWIDTH 937 0
DWIDTH 34 0
BBX 37 31 1 0
BITMAP
00FF800380
03FFF007C0
0FFFF00FC0
1FFFF00F80
3F03F00F80
3E07E01F80
3C07C01F00
7C07C03F00
7C7FF83E00
7CFFFC7E00
3C7FF87C00
3E07C0F800
3C0FC1F000
080F87E000
000F9FC000
003FFF8000
007FFE0000
007FFC0000
003FFF0000
000FBF8000
001F1F8000
001F0FC000
001F0FC000
601F07E018
E03F07E018
F03E03F038
F87E03F878
FFFC01FFF0
7FFC00FFE0
3FF0007FC0
0FC0003F00
ENDCHAR
STARTCHAR uni049F
ENCODING 1183
SWIDTH 473 0
DWIDTH 17 0
BBX 20 31 2 0
BITMAP
020000
0F8000
0F8000
0F0000
1F0000
1F0000
7FF800
FFFC00
FFFC00
7FF800
3E0000
3C0000
7C0000
7C0000
7C3C00
7CFF00
79FF00
79FF00
7BE700
FBC700
FF8F00
F78600
F78000
FF8020
FF8070
FF80F0
FFC1E0
FBFFC0
F9FF80
78FF00
707E00
ENDCHAR
STARTCHAR uni04A0
ENCODING 1184
SWIDTH 937 0
DWIDTH 34 0
BBX 37 31 1 0
BITMAP
0000000380
0001E007C0
1FFFF00FC0
3FFFF00F80
3FFFF00F80
0FFFE01F80
0007C01F00
0007C03F00
0007C03E00
0007C07E00
0007C07C00
0007C0F800
000FC1F000
000F87E000
000F9FC000
003FFF8000
007FFE0000
007FFC0000
003FFF0000
000FBF8000
001F1F8000
001F0FC000
001F0FC000
601F07E018
E03F07E018
F03E03F038
F87E03F878
FFFC01FFF0
7FFC00FFE0
3FF0007FC0
0FC0003F00
ENDCHAR
STARTCHAR uni04A1
ENCODING 1185
SWIDTH 555 0
DWIDTH 20 0
BBX 24 18 1 0
BITMAP
700000
7FC3C0
FFCFE0
7FDFF0
079FF0
07BC70
07BC70
0FF8F0
0F7860
0FF800
0FF806
0FF807
0FF80F
0FFC3E
0FBFFC
0F9FF8
078FF0
0707C0
ENDCHAR
STARTCHAR uni04A2
ENCODING 1186
SWIDTH 907 0
DWIDTH 33 0
BBX 38 44 -1 -12
BITMAP
0000000780
01F0000FC0
07FC001FE0
0FFC003CE0
1FFE007CE0
3C3E0078E0
783E00F8E0
703E00F0E0
E03E01F0E0
403E01F1E0
003E01E1C0
003E03E3C0
003E03E780
003E03EF00
003C03FE00
007C07FC00
03FFFFF000
07FFFFC000
0FFFFFC000
07FE07C000
00F807C000
00F807C000
00F807C000
00F807C000
01F007C000
01F007E00C
01F003F01C
01F003FF7C
03F001FFFC
03E001FFF0
03E000FFE0
01C0003F80
0000007F00
000001FF00
000003FF00
000007CF00
00000F9E00
00001F1E00
00001F1E00
00001F3C00
00001FFC00
00001FF800
00000FF000
000007E000
ENDCHAR
STARTCHAR uni04A3
ENCODING 1187
SWIDTH 515 0
DWIDTH 19 0
BBX 20 28 2 -11
BITMAP
3C1C00
783C00
783C00
783C00
F87C00
F87800
FFF800
FFF800
FFF800
FFF800
F0F010
F0F070
F0FCF0
F0FFF0
F07FE0
F03F80
703F00
00FC00
01FC00
03FC00
073800
0E3800
1E7800
1CF000
1FF000
1FE000
0FC000
078000
ENDCHAR
STARTCHAR uni04A4
ENCODING 1188
SWIDTH 873 0
DWIDTH 31 0
BBX 41 32 -1 0
BITMAP
00000003F800
01F0000FFF80
07FC001FFF80
0FFC003FFF80
1FFE007E0000
3C3E007C0000
783E00F80000
703E00F80000
E03E01F80000
403E01F00000
003E01F00000
003E03E00000
003E03E00000
003E03E00000
003C03E00000
007C07E00000
03FFFFC00000
07FFFFC00000
0FFFFFC00000
07FE07C00000
00F807C00000
00F807C00000
00F807C00000
00F807C00000
01F007C01800
01F003E03800
01F003E07800
01F003F0F800
03F001FFF000
03E001FFE000
03E000FF8000
01C0003F0000
ENDCHAR
STARTCHAR uni04A5
ENCODING 1189
SWIDTH 475 0
DWIDTH 17 0
BBX 20 18 2 0
BITMAP
000380
3C1FC0
783F80
783F00
783C00
F87C00
F87C00
FFF800
FFF800
FFF800
FFF830
F0F070
F0F0F0
F0F9E0
F0FFC0
F07F80
F07F00
703C00
ENDCHAR
STARTCHAR uni04A8
ENCODING 1192
SWIDTH 997 0
DWIDTH 36 0
BBX 38 31 2 0
BITMAP
001E000000
007F000000
01FF000000
03FF07F000
07FC1FFC00
0FE03FFE00
1FC0FFFF00
1F80FC3F00
3F01F01F80
3E03F00F80
3E03E00FC0
7E07E007C0
7C07C007C0
7C07C007C0
7C07C007C0
FC07C007C0
FC07C007C0
FC07C007C0
FC07C00FC0
FC07C00F80
FC07C00F80
7C07C01F00
7C07E03F00
7E03F07E00
3E03F0FC00
3F01FFF81C
1FC0FFF0FC
0FFFFFFFFC
07FFFFFFF8
01FFFFFFE0
007FE1FE00
ENDCHAR
STARTCHAR uni04A9
ENCODING 1193
SWIDTH 574 0
DWIDTH 21 0
BBX 24 17 1 0
BITMAP
038000
0FC000
1FCF80
3F1FC0
7C3FC0
787FE0
7879E0
F8F1E0
F8F1E0
F8F1C3
F8F3C7
F8F78F
7CFFBF
7FFFFE
3FFFFC
1FFFF0
0FEFC0
ENDCHAR
STARTCHAR uni04AA
ENCODING 1194
SWIDTH 781 0
DWIDTH 28 0
BBX 30 48 2 -17
BITMAP
000FE000
007FF800
00FFFC00
03FFFC00
07F07E00
0FC03E00
0F803E00
1F003E00
3F003E00
3E003E00
3E003E00
7C003C00
7C000000
7C000000
7C000000
FC000000
FC000000
FC000000
FC000000
FC000000
FC000000
7C000000
7C000000
7E000608
3E000E1C
3F003E7C
1FC0FEFC
1FFFFFF0
07FFFFE0
03FFFF80
00FF3F00
00007E00
0000FC00
0001FC00
0003FC00
0007F800
000F7800
001E7800
003C7800
0038F000
0078F000
0078F000
0071E000
0073E000
007FC000
007F8000
003F8000
001E0000
ENDCHAR
STARTCHAR uni04AB
ENCODING 1195
SWIDTH 431 0
DWIDTH 16 0
BBX 18 28 1 -11
BITMAP
03C000
0FE000
1FF000
3FF000
7C7000
7C7000
78F000
F86000
F80000
F80000
F80040
F801C0
7C13C0
7FFFC0
3FFF80
3FFE00
0FF800
03F000
07F000
0FF000
1CE000
38E000
79E000
73C000
7FC000
7F8000
7F0000
1E0000
ENDCHAR
STARTCHAR uni04AC
ENCODING 1196
SWIDTH 697 0
DWIDTH 25 0
BBX 32 43 1 -12
BITMAP
003FFFFC
03FFFFFE
0FFFFFFF
3FFFFFFE
7F03E000
7C07E000
F807C000
F807C000
F807C000
F807C000
780FC000
780F8000
300F8000
000F8000
000F8000
000F8000
001F8000
001F0000
001F0000
001F0000
001F0000
001F0000
001F0000
003F0000
003E0000
003E0000
003E0000
003FC000
003FC000
003FC000
001FC000
003FC000
00FFC000
01F3C000
03E78000
03C78000
07C78000
07CF8000
07CF0000
07FF0000
07FE0000
03FC0000
00F00000
ENDCHAR
STARTCHAR uni04AD
ENCODING 1197
SWIDTH 784 0
DWIDTH 28 0
BBX 30 28 2 -11
BITMAP
383C1E00
7CFC3E00
79FC7F00
79FCFE00
FBFDFE00
FFFFFE00
F77F9E00
FE7F3E00
FE7F3C00
FC7E3C00
FC7E3C08
FC7E3C1C
F87C3F3C
F87C3FFC
F87C3FF0
F0781FE0
70381F80
00003F00
0000FE00
0001FE00
0003CE00
00079E00
00071C00
00073C00
0007F800
0007F800
0007F000
0003C000
ENDCHAR
STARTCHAR uni04AE
ENCODING 1198
SWIDTH 677 0
DWIDTH 24 0
BBX 22 31 5 0
BITMAP
700078
F800FC
F800F8
FC01F8
7C01F0
7E03F0
3E07E0
3E07C0
3F0FC0
1F0F80
1F9F00
0F9F00
0FBE00
0FFE00
07FC00
07F800
03F800
03F000
03E000
01E000
01E000
01E000
03E000
03E000
03E000
03E000
03E000
03E000
03E000
03E000
01C000
ENDCHAR
STARTCHAR uni04AF
ENCODING 1199
SWIDTH 472 0
DWIDTH 17 0
BBX 20 29 2 -12
BITMAP
F01C00
F07C00
F07E00
F0FE00
F8FC00
F8FC00
F8FC60
787FF0
787FF0
78FFE0
79FF80
79E000
7BC000
7BC000
7F8000
7F0000
7E0000
3C0000
3C0000
3C0000
3C0000
3C0000
3E0000
3E0000
3E0000
3E0000
3E0000
3E0000
1C0000
ENDCHAR
STARTCHAR uni04B0
ENCODING 1200
SWIDTH 677 0
DWIDTH 24 0
BBX 22 31 5 0
BITMAP
700078
F800FC
FC00F8
FC01F8
7C01F0
7E03E0
3E07E0
3E07C0
3F0FC0
1F0F80
1F9F00
0FBF00
0FBE00
07FC00
07FC00
07F800
03F800
03F000
3FFF00
3FFF00
3FFE00
01E000
03E000
03E000
03E000
03E000
03E000
03E000
03E000
03E000
01C000
ENDCHAR
STARTCHAR uni04B1
ENCODING 1201
SWIDTH 472 0
DWIDTH 17 0
BBX 21 29 1 -12
BITMAP
780E00
783E00
783F00
787F00
7C7E00
7C7E00
7C7E30
3C3FF8
3C7FF8
3C7FF0
3CFFC0
3CF000
3DE000
3DE000
3FC000
3F8000
FFE000
FFF000
FFF000
FFE000
1E0000
1E0000
1F0000
1F0000
1F0000
1F0000
1F0000
1F0000
0E0000
ENDCHAR
STARTCHAR uni04B2
ENCODING 1202
SWIDTH 716 0
DWIDTH 26 0
BBX 31 43 -1 -12
BITMAP
03F00070
07FC01F8
1FFC01F0
3FFE03F0
3C7F07E0
783F0FC0
701F1F80
001FBF00
000FBE00
000FFC00
000FFC00
0007F800
0007F000
0007E000
0007E000
000FE000
001FE000
003FE000
007FF000
00FDF000
00F9F000
01F1F000
03F0F800
07E0F800
0FC0F802
1F80FC0E
3F007FFE
7F007FFE
7E003FFC
FC001FF0
78000FC0
00003F80
0000FF80
0001FF80
0003E780
0007CF80
00078F00
000F8F00
000F9F00
000FFE00
000FFC00
0007F800
0003F000
ENDCHAR
STARTCHAR uni04B3
ENCODING 1203
SWIDTH 601 0
DWIDTH 22 0
BBX 24 28 1 -11
BITMAP
0F07C0
1FCFC0
3FDFE0
3FFFC0
3DF9C0
39F9C0
00F800
00F000
01F000
71F000
F1F001
F1F803
F3F84F
FFFFDF
FFFFFE
FF7FF8
3C3FF0
0007C0
001FC0
003FC0
007B80
00F380
01E780
01E700
01FF00
01FE00
00FC00
007800
ENDCHAR
STARTCHAR uni04B4
ENCODING 1204
SWIDTH 1040 0
DWIDTH 37 0
BBX 41 43 1 -12
BITMAP
003FFF03C000
03FFFFC3C000
1FFFFFC7C000
3FFFFFC7C000
7F03E007C000
7C03E007C000
F803E007C000
F807E007C000
F807C00FC000
F807C00FC000
7807C00F8000
7807C00F8000
300F800F8000
000F801F8000
000F801F8000
000F801F8000
001F803F0000
001F003F0000
001F007F0000
001F007F0000
001F00FF0000
001F00FF0000
003E01DF0000
003E03DF0000
003F079F8180
003F0F9FE780
003FFF1FEF80
001FFE1FFF00
001FFC0FFE00
000FF801F800
0007E007F000
0000000FE000
0000003FE000
0000007FE000
000000FBC000
000001F3C000
000003E3C000
000003E78000
000003C78000
000003FF8000
000003FF0000
000001FE0000
000000F80000
ENDCHAR
STARTCHAR uni04B5
ENCODING 1205
SWIDTH 501 0
DWIDTH 18 0
BBX 20 34 2 -11
BITMAP
0FFE00
1FFE00
0FFC00
000000
000000
000000
3C1C00
7C3C00
783C00
787800
787800
F87800
F8F800
F0F800
F1F000
F1F000
F3F000
F3F070
FFF0F0
FEFFE0
FEFFC0
7C7F80
387E00
00FC00
03F800
07B800
0F7800
1E7800
1C7000
3CF000
3FE000
1FE000
1FC000
0F0000
ENDCHAR
STARTCHAR uni04B6
ENCODING 1206
SWIDTH 804 0
DWIDTH 29 0
BBX 29 43 4 -12
BITMAP
1C001C00
3E003C00
3E003E00
3E003E00
3E003C00
3E007C00
7E007C00
7E007C00
7C007C00
7C007C00
7C00FC00
7C00FC00
FC00FC00
F801F800
F803F800
F803F800
FC07F800
FC1FF800
FFFEF800
7FFEF800
7FFCF000
3FF8F000
0FE1F000
0001F000
0001F000
0001FC18
0001FF78
0000FFF8
00007FF0
00000FE0
00003F80
0000FE00
0001FE00
0007FE00
000FDE00
001F1E00
001E3C00
003E3C00
003E7C00
003FF800
001FF800
001FF000
0007C000
ENDCHAR
STARTCHAR uni04B7
ENCODING 1207
SWIDTH 631 0
DWIDTH 23 0
BBX 26 31 0 -11
BITMAP
00400000
01F00000
01F00000
03FFF000
03FFF000
03BFF000
079FF000
0787E000
070F8000
0F1F0000
0E3E0000
1E7C0000
3C780000
78780040
78F801C0
F0F813C0
E07FFFC0
C07FFF80
007FFE00
001FFC00
0003F000
0007F000
000FF000
001EE000
0038E000
0079E000
0079C000
007FC000
007F8000
003F0000
001E0000
ENDCHAR
STARTCHAR uni04B8
ENCODING 1208
SWIDTH 773 0
DWIDTH 28 0
BBX 23 31 4 0
BITMAP
1C001C
3E003C
3E003E
3E003E
3E003C
3E007C
7E007C
7E007C
7C007C
7C607C
7C70FC
7C70FC
FC70F8
F871F8
F8F1F8
F8E3F8
F8E7F8
FCEFF8
FFFEF8
7FFEF8
7FFCF0
3FF0F0
0FC0F0
01C1F0
01C1F0
01C1F0
00C1F0
0001F0
0001F0
0001E0
0001E0
ENDCHAR
STARTCHAR uni04B9
ENCODING 1209
SWIDTH 575 0
DWIDTH 21 0
BBX 25 21 0 0
BITMAP
00020000
00E70000
01F60000
01FE0000
03FE3800
03FFF800
03BFF800
07BFF000
07B3E000
0F07C000
0F0F8000
1F1F0000
1E3E0080
3C3C0180
7C7C0380
F87C0F80
F07C1F00
E07FFF00
C03FFC00
003FF800
000FC000
ENDCHAR
STARTCHAR uni04BA
ENCODING 1210
SWIDTH 755 0
DWIDTH 27 0
BBX 29 31 3 0
BITMAP
07000000
0F800000
0F800000
1F800000
1F800000
1F000000
1F000000
1F000000
1F000000
1F000000
1F000000
3E000000
3E000000
3E000000
3E0FC000
3E3FF000
3E7FF800
7EFFF800
7DFFFC00
7FE0FC00
7F807C00
7F007C00
7E007C00
FC00F810
FC00F838
F800F878
F800F8F0
F800FFF0
F800FFE0
F800FF80
F0007E00
ENDCHAR
STARTCHAR uni04BB
ENCODING 1211
SWIDTH 502 0
DWIDTH 18 0
BBX 21 34 2 0
BITMAP
00E000
03F800
07F800
07F800
0F3800
0F3800
1E3800
1E3800
1E3800
3C7800
3C7000
3C7000
7CE000
78E000
79C000
7BC000
7F8000
7F1C00
FE7E00
FCFE00
FDFE00
FBFE00
F3FC00
F73C00
F73C00
FE3C00
FE7C18
FC7838
FC7878
FC7CF0
F87FE0
F87FC0
F03F80
F01E00
ENDCHAR
STARTCHAR uni04BC
ENCODING 1212
SWIDTH 808 0
DWIDTH 29 0
BBX 32 31 2 0
BITMAP
0000FE00
0007FF80
000FFFC0
003FFFC0
007F07E0
007E03E0
00FC01E0
01F801F0
01F001F0
03F001F0
03E001F0
03E001E0
F7E003E0
F7C003E0
FFFFFFE0
FFFFFFE0
7FFFFFC0
3FFFFF00
07C00000
07C00000
07C00000
07C00000
07E00000
03E00000
03F00000
01F8000F
01FE007F
00FFFFFE
003FFFFC
001FFFF0
0003FF00
ENDCHAR
STARTCHAR uni04BD
ENCODING 1213
SWIDTH 483 0
DWIDTH 17 0
BBX 22 17 0 0
BITMAP
003E00
00FF00
01FF80
03FF80
03C780
07C780
078780
678F00
FFBF00
FFFE0C
7FF81C
1FC07C
07C0F8
07FFF8
03FFE0
01FFC0
007F00
ENDCHAR
STARTCHAR uni04BE
ENCODING 1214
SWIDTH 808 0
DWIDTH 29 0
BBX 32 40 2 -9
BITMAP
0000FE00
0007FF80
000FFFC0
003FFFC0
007F07E0
007E03E0
00FC01E0
01F801F0
01F001F0
03F001F0
03E001F0
03E001E0
F7E003E0
F7C003E0
FFFFFFE0
FFFFFFE0
7FFFFFC0
3FFFFF00
07C00000
07C00000
07C00000
07C00000
07E00000
03E00000
03F00000
01F8000F
01FE007F
00FFFFFE
007FFFFC
001FFFF0
000FFF00
001E0000
003C0000
00380000
00380000
003C0000
003FE000
003FE000
001FE000
000FC000
ENDCHAR
STARTCHAR uni04BF
ENCODING 1215
SWIDTH 483 0
DWIDTH 17 0
BBX 22 27 0 -10
BITMAP
003E00
00FF00
01FF80
03FF80
03C780
07C780
078780
678F80
FF9F00
FFFE0C
7FFC1C
3FE03C
07C07C
07F3F8
03FFF0
01FFC0
00FF80
003C00
007800
007800
007000
007000
007800
007FC0
007FC0
003FC0
000F00
ENDCHAR
STARTCHAR uni04C0
ENCODING 1216
SWIDTH 495 0
DWIDTH 18 0
BBX 21 31 -1 0
BITMAP
03FFF0
07FFF8
07FFF8
07FFF0
003E00
003E00
003E00
007E00
007C00
007C00
007C00
007C00
007C00
007C00
00F800
00F800
00F800
00F800
00F800
00F800
01F800
01F000
01F000
01F000
01F000
01F000
01F000
3FFF00
7FFF80
FFFF80
7FFF00
ENDCHAR
STARTCHAR uni04C1
ENCODING 1217
SWIDTH 1234 0
DWIDTH 44 0
BBX 47 41 1 0
BITMAP
000000008000
00000201C000
00000F03C000
00000F038000
00000F8F8000
000007FF0000
000007FE0000
000001F80000
000000000000
000000000000
00F800F003F0
03FE01F00FF8
07FF01F01FFC
0FFF01F01FFC
0E1F81F03E3C
040F81F03C18
0007C1F07C00
0007C1E07C00
0007C3E0F800
0003C3E1F800
0003E3E1F000
0003E3E7E000
0001F3EFE000
0000FFFF8000
00007FFF0000
0000FFFC0000
0003FFFF0000
0007F7DF8000
000FC7CF8000
001F87C7C000
001F0F87C000
003F0F83E000
003E0F83E000
007E0F83F004
607C0F81F00E
F0F80F81F81E
F8F80F80FC3C
FFF00F80FFF8
7FE01F007FF0
7FC01F003FE0
1F800E000F80
ENDCHAR
STARTCHAR uni04C2
ENCODING 1218
SWIDTH 717 0
DWIDTH 26 0
BBX 29 27 1 0
BITMAP
00001800
00E03800
00F03800
00F0F800
00FFF000
00FFE000
007FC000
001F0000
00000000
00000000
0F0F0F00
1F8F3F80
3FDE7FC0
3FDE7FC0
3DFEF1C0
39FEF3C0
00FFE3C0
00FDE180
01EDE000
71FFE018
F1FFE038
F1DEE078
F3DEF0F8
FF9EFFF0
FF9E7FE0
FF1C3FC0
3C1C1F00
ENDCHAR
STARTCHAR uni04C3
ENCODING 1219
SWIDTH 937 0
DWIDTH 34 0
BBX 37 43 1 -12
BITMAP
00FF800380
03FFF007C0
0FFFF00FC0
1FFFF00F80
3F03F00F80
3E07E01F80
3C07C01F00
7C07C03F00
7C07C03E00
7C07C07E00
3C07C07C00
3E07C0F800
3C07C1F000
180F87E000
000F9FC000
003FFF8000
007FFE0000
007FFC0000
003FFF0000
000FBF8000
001F1F8000
001F0FC000
001F07C000
E01F07E000
F03F07E018
F03E03F038
F87E03FFF8
7FFC01FFF8
7FFC00FFE0
3FF0007FC0
0FC0007F00
000000FE00
000003FE00
000007FE00
00000F9E00
00001F3C00
00003E3C00
00003E3C00
00003E7800
00003FF800
00003FF000
00001FE000
00000FC000
ENDCHAR
STARTCHAR uni04C4
ENCODING 1220
SWIDTH 531 0
DWIDTH 19 0
BBX 21 28 2 -11
BITMAP
383C00
7CFE00
79FF00
7BFF00
FBCF00
FFCF00
F78F00
F78E00
FF8000
FF8000
FF8000
FF8038
FFC278
FBFFF8
FBFFE0
F1FFC0
703F00
007E00
01FC00
03FC00
079C00
0F3C00
0E3800
0E7800
0FF000
0FF000
0FE000
078000
ENDCHAR
STARTCHAR uni04C5
ENCODING 1221
SWIDTH 861 0
DWIDTH 31 0
BBX 36 39 0 -8
BITMAP
0000078000
00000FC000
00000FC000
00001FC000
00001FC000
00001FC000
00003FC000
00003F8000
00003F8000
00007F8000
00007F8000
00007F8000
0000FF8000
0000F78000
0000FF8000
0001FF8000
0001EF8000
0003EF8000
0003EF8000
0007CF8000
0007CF8000
000F87C000
000F87C000
701F07C070
F01F07C0F0
F83E07E0F0
7C7E03F3E0
7FFC03FFC0
3FF801FF80
1FF000FF00
0FC0007E00
0000003E00
0000007C00
000000F800
000000F800
000001F000
000003E000
000003E000
000001C000
ENDCHAR
STARTCHAR uni04C6
ENCODING 1222
SWIDTH 549 0
DWIDTH 20 0
BBX 24 23 0 -6
BITMAP
000F00
001F00
003F80
003F80
003F00
007F00
007F00
00FF00
30FF00
79EF03
F1EF07
F3EF0F
F3CF9E
FF8FFC
FF87FC
7F07F8
3C03F0
0003E0
0003C0
000780
000F80
000F00
000E00
ENDCHAR
STARTCHAR uni04C7
ENCODING 1223
SWIDTH 907 0
DWIDTH 33 0
BBX 38 44 -1 -12
BITMAP
0000000780
01F0000FC0
07FC001FE0
0FFC003CE0
1FFE007CE0
3C3E0078E0
783E00F8E0
703E00F0E0
E03E01F0E0
403E01F1E0
003E01E1C0
003E03E3C0
003E03E780
003E03EF00
003C03FE00
007C07FC00
03FFFFF000
07FFFFC000
0FFFFFC000
07FE07C000
00F807C000
00F807C000
00F807C000
00F807C000
01F007C000
01F007E00C
01F003F01C
01F003FF7C
03F001FFFC
03E001FFF0
03E000FFE0
01C0003F80
0000007F00
000001FF00
000003FF00
000007CF00
00000F9E00
00001F1E00
00001F1E00
00001F3C00
00001FFC00
00001FF800
00000FF000
000007E000
ENDCHAR
STARTCHAR uni04C8
ENCODING 1224
SWIDTH 515 0
DWIDTH 19 0
BBX 20 28 2 -11
BITMAP
3C1C00
783C00
783C00
783C00
F87C00
F87800
FFF800
FFF800
FFF800
FFF800
F0F010
F0F070
F0FCF0
F0FFF0
F07FE0
F03F80
703F00
00FC00
01FC00
03FC00
073800
0E3800
1E7800
1CF000
1FF000
1FE000
0FC000
078000
ENDCHAR
STARTCHAR uni04C9
ENCODING 1225
SWIDTH 873 0
DWIDTH 31 0
BBX 37 40 -1 -8
BITMAP
0000000780
01F0000FC0
07FC001FE0
0FFC003CE0
1FFE007CE0
3C3E0078E0
783E00F8E0
703E00F0E0
E03E01F0E0
403E01F1E0
003E01E1C0
003E03E3C0
003E03E780
003E03EF00
003C03FE00
007C07FC00
03FFFFF000
07FFFFC000
0FFFFFC000
07FE07C000
00F807C000
00F807C000
00F807C000
00F807C000
01F007C018
01F003E038
01F003E078
01F003FBF0
03F001FFE0
03E001FFE0
03E000FFC0
01C0003F80
0000001F00
0000003E00
0000003C00
0000007C00
000000F800
000000F800
000000F000
000000E000
ENDCHAR
STARTCHAR uni04CA
ENCODING 1226
SWIDTH 475 0
DWIDTH 17 0
BBX 20 23 2 -6
BITMAP
3C1C00
783C00
783C00
783C00
F87C00
F87800
FFF800
FFF800
FFF800
FFF830
F0F070
F0F0F0
F0F9E0
F0FFC0
F0FF80
F07F00
703E00
003E00
007C00
007800
00F800
00F000
00E000
ENDCHAR
STARTCHAR uni04CB
ENCODING 1227
SWIDTH 773 0
DWIDTH 28 0
BBX 23 43 4 -12
BITMAP
3C001C
3E003C
3E003E
3E003E
3E007C
7E007C
7E007C
7C007C
7C007C
7C00FC
7C00FC
FC00FC
F801F8
F801F8
F803F8
FC07F8
FC1FF8
FFFEF8
7FFEF8
7FFCF8
3FF8F0
0FE0F0
0001F0
0001F0
0001F0
0001F0
0001F0
000FF0
000FF0
001FE0
007FE0
00FF00
03FF00
07DE00
0F9E00
0F1E00
1F1E00
1E3C00
1E3C00
1FF800
1FF800
0FF000
07C000
ENDCHAR
STARTCHAR uni04CC
ENCODING 1228
SWIDTH 555 0
DWIDTH 20 0
BBX 25 24 0 -4
BITMAP
00400000
01F00000
01F00000
03FFF000
03FFF000
03BFF000
079FF000
0787E000
070F8000
0F1F0000
0E3E0000
1E7C0000
3C780380
78F80780
F8F80F00
F0F83F00
E07FFE00
C07FFC00
003FF800
001FF000
0000F000
0000F000
0000E000
00006000
ENDCHAR
STARTCHAR uni04CD
ENCODING 1229
SWIDTH 1133 0
DWIDTH 41 0
BBX 45 39 0 -8
BITMAP
00007801E000
0000FC01F000
0001FC03F000
0001FC03F000
0001FC07F000
0001FC07F000
0001FC0FF000
0003FC0FF000
0003FC1FF000
0003FC1FF000
0003FC1FF000
0003FC3FF000
0007FC3DF000
0007BC7DF000
0007BC79F000
0007BC79F000
000FBCF9F000
000FBCF1F000
000F3CF1F000
001F3DF1F000
001F3FE1F000
001F3FE1F000
703E1FE1F018
F03E1FC1F018
F87C1FC1F838
FCFC1FC0F8F8
7FF81F80FFF0
7FF81F80FFF0
3FF00F807FE0
3FE00F003FC0
0F8007000F80
000000001F00
000000001E00
000000003E00
000000007C00
000000007C00
00000000F800
00000000F000
000000007000
ENDCHAR
STARTCHAR uni04CE
ENCODING 1230
SWIDTH 734 0
DWIDTH 26 0
BBX 31 24 0 -7
BITMAP
001C0F00
003E1F00
007E3F00
007E3F00
007E7F00
007E7F00
00FEF700
00FEFF00
31EEEF00
79EFEF06
F1EFCF0E
F3CFCF0E
F3CFCF1E
FF8F8FFC
FF8F8FF8
7F0707F0
3C0703E0
000003C0
000007C0
00000F80
00000F00
00001F00
00001E00
00001C00
ENDCHAR
STARTCHAR uni04CF
ENCODING 1231
SWIDTH 222 0
DWIDTH 8 0
BBX 9 29 1 0
BITMAP
0780
0780
0F80
0F80
0F80
0F00
1F00
1F00
1F00
1F00
1E00
1E00
3E00
3E00
3E00
3E00
3C00
3C00
7C00
7C00
7C00
7C00
7800
7800
F800
F800
F800
F800
7000
ENDCHAR
ENDFONT
